<svg height="52.326" viewBox="0 0 52.326 52.326" width="52.326" xmlns="http://www.w3.org/2000/svg"
    xmlns:xlink="http://www.w3.org/1999/xlink">
    <clipPath id="a">
        <path d="m0 0h52.326v52.326h-52.326z" />
    </clipPath>
    <g clip-path="url(#a)">
        <circle cx="18.5" cy="18.5" fill="#ff7bac" r="18.5"
            transform="matrix(.70710678 .70710678 -.70710678 .70710678 26.163 0)" />
        <g fill="#fff">
            <path
                d="m6.874 14.475-6.663-6.586a.7.7 0 0 1 0-1l6.663-6.589a1.049 1.049 0 0 1 1.471 0 1.02 1.02 0 0 1 0 1.453l-5.7 5.634 5.7 5.633a1.021 1.021 0 0 1 0 1.454 1.049 1.049 0 0 1 -1.471 0"
                transform="matrix(.70710678 .70710678 -.70710678 .70710678 30.79911530186 20.70497472186)" />
            <path
                d="m6.874 14.475-6.663-6.586a.7.7 0 0 1 0-1l6.663-6.589a1.049 1.049 0 0 1 1.471 0 1.02 1.02 0 0 1 0 1.453l-5.7 5.634 5.7 5.633a1.021 1.021 0 0 1 0 1.454 1.049 1.049 0 0 1 -1.471 0"
                transform="matrix(-.70710678 -.70710678 .70710678 -.70710678 21.88037748572 32.68124225472)" />
        </g>
    </g>
</svg>