<svg height="26.939" viewBox="0 0 27.708 26.939" width="27.708" xmlns="http://www.w3.org/2000/svg">
    <g fill="#92e0ff">
        <path
            d="m644.236 594.09c-5.093 0-9.236-5.179-9.236-11.545s4.143-11.545 9.236-11.545 9.236 5.179 9.236 11.545-4.143 11.545-9.236 11.545zm0-21.551c-4.244 0-7.7 4.489-7.7 10.006s3.453 10.006 7.7 10.006 7.7-4.489 7.7-10.006-3.456-10.006-7.7-10.006z"
            transform="translate(-630.382 -567.152)" />
        <path d="m634.388 586.539h-4.618a.77.77 0 0 1 0-1.539h4.618a.77.77 0 0 1 0 1.539z"
            transform="translate(-629 -570.376)" />
        <path
            d="m635.552 579.437a.764.764 0 0 1 -.44-.139l-3.783-2.649a.769.769 0 0 1 .882-1.261l3.783 2.648a.769.769 0 0 1 -.442 1.4z"
            transform="translate(-629.461 -568.13)" />
        <path
            d="m656.855 579.437a.769.769 0 0 1 -.442-1.4l3.783-2.648a.769.769 0 0 1 .882 1.261l-3.778 2.65a.764.764 0 0 1 -.445.137z"
            transform="translate(-635.238 -568.13)" />
        <path
            d="m631.77 595.5a.77.77 0 0 1 -.442-1.4l3.783-2.649a.77.77 0 0 1 .882 1.262l-3.783 2.648a.765.765 0 0 1 -.44.139z"
            transform="translate(-629.461 -571.829)" />
        <path
            d="m660.637 595.5a.765.765 0 0 1 -.44-.139l-3.783-2.648a.77.77 0 0 1 .882-1.262l3.783 2.649a.77.77 0 0 1 -.442 1.4z"
            transform="translate(-635.238 -571.829)" />
        <path d="m662.388 586.539h-4.618a.77.77 0 0 1 0-1.539h4.618a.77.77 0 0 1 0 1.539z"
            transform="translate(-635.449 -570.376)" />
        <path
            d="m640.7 572.157a.769.769 0 0 1 -.728-.522 6.568 6.568 0 0 0 -6.2-4.1.77.77 0 0 1 0-1.539 8.035 8.035 0 0 1 7.655 5.14.767.767 0 0 1 -.48.976.754.754 0 0 1 -.247.045z"
            transform="translate(-629.921 -566)" />
        <path
            d="m650.77 572.157a.751.751 0 0 1 -.248-.042.767.767 0 0 1 -.48-.976 8.035 8.035 0 0 1 7.658-5.139.77.77 0 0 1 0 1.539 6.568 6.568 0 0 0 -6.2 4.1.769.769 0 0 1 -.73.518z"
            transform="translate(-633.837 -566)" />
        <path
            d="m644.466 583.626a13.087 13.087 0 0 1 -8.178-3.256.77.77 0 1 1 .962-1.2c4.856 3.885 9.575 3.885 14.431 0a.77.77 0 0 1 .962 1.2 13.087 13.087 0 0 1 -8.177 3.256z"
            transform="translate(-630.612 -568.994)" />
        <path
            d="m646.77 596.854a.769.769 0 0 1 -.77-.77v-12.314a.77.77 0 0 1 1.539 0v12.315a.769.769 0 0 1 -.769.769z"
            transform="translate(-632.916 -569.916)" />
    </g>
</svg>