<svg xmlns="http://www.w3.org/2000/svg" width="20.096" height="20.095" viewBox="0 0 20.096 20.095">
    <g id="noun_forward_call_3952703" data-name="noun_forward call_3952703"
        transform="translate(-18.738 13.755) rotate(-45)">
        <path id="Path_13" data-name="Path 13"
            d="M20.987,10h.105c.995.021,1.764.633,1.628,1.6l-.01.059-.433,2.511a1.166,1.166,0,0,1-1.324,1.153h-.535c-.753,0-.869.689-.873,2.321V18c.012,1.476.142,2.118.831,2.143h.51c.871,0,1.231.3,1.38,1.089l.444,2.575c.177.99-.6,1.634-1.618,1.655a3.381,3.381,0,0,1-2.562-1.047c-1.405-1.408-2.03-4.025-2.03-6.685s.625-5.285,2.03-6.692A3.4,3.4,0,0,1,20.987,10Zm4.988,4.3a.532.532,0,0,1,.342.124l.034.031,2.91,2.893a.55.55,0,0,1,.192.382.507.507,0,0,1-.151.334l-2.95,2.941a.533.533,0,0,1-.376.156.473.473,0,0,1-.49-.488.535.535,0,0,1,.125-.348l.032-.034.745-.743,1.547-1.387-1.6.071h-3.7a.506.506,0,0,1-.05-1.01l.043,0h3.712l1.6.071-1.547-1.38-.745-.75a.522.522,0,0,1-.156-.382.471.471,0,0,1,.49-.481Z"
            transform="translate(0)" fill="#fff" />
    </g>
</svg>
