<svg xmlns="http://www.w3.org/2000/svg" width="34.448" height="34.448" viewBox="0 0 34.448 34.448">
  <g id="Group_705" data-name="Group 705" transform="translate(-150.173 -1335.994)">
    <ellipse id="Ellipse_72" data-name="Ellipse 72" cx="17.224" cy="17.224" rx="17.224" ry="17.224" transform="translate(150.173 1335.994)" fill="#0c6bc2"/>
    <path id="Path_476" data-name="Path 476" d="M6.292,15a20.647,20.647,0,0,0,2.493,2.146,13.128,13.128,0,0,0,2.621,1.508,6.4,6.4,0,0,0,2.484.552,3.8,3.8,0,0,0,1.482-.287,3.53,3.53,0,0,0,1.242-.9,3.419,3.419,0,0,0,.51-.779,1.923,1.923,0,0,0,.193-.822,1.491,1.491,0,0,0-.128-.608,1.164,1.164,0,0,0-.437-.5l-2.493-1.765a2.215,2.215,0,0,0-.527-.308,1.316,1.316,0,0,0-.475-.094,1.063,1.063,0,0,0-.535.15,2.489,2.489,0,0,0-.535.433l-.591.565a.391.391,0,0,1-.308.137.48.48,0,0,1-.18-.034l-.146-.06a6.027,6.027,0,0,1-.981-.711q-.6-.505-1.2-1.1t-1.1-1.2a5.778,5.778,0,0,1-.7-.972,1.322,1.322,0,0,1-.064-.154.541.541,0,0,1-.03-.18A.393.393,0,0,1,7,9.712l.574-.591A2.8,2.8,0,0,0,8,8.577a1.078,1.078,0,0,0,.15-.544,1.261,1.261,0,0,0-.1-.463,2.87,2.87,0,0,0-.3-.54L6,4.573a1.324,1.324,0,0,0-.514-.441,1.488,1.488,0,0,0-.642-.141,2.229,2.229,0,0,0-1.567.7A3.566,3.566,0,0,0,2.4,5.96a3.973,3.973,0,0,0-.274,1.473,6.414,6.414,0,0,0,.548,2.48,13.144,13.144,0,0,0,1.486,2.6A20.026,20.026,0,0,0,6.292,15Z" transform="translate(158.675 1342.347)" fill="#fff"/>
  </g>
</svg>
