<svg height="23.52" viewBox="0 0 26 23.52" width="26" xmlns="http://www.w3.org/2000/svg">
    <g fill="#b176cc">
        <path
            d="m166.2 157.089h.006l1.552 1.072v-4.951h20.457v4.9l1.561-1.058h.005a.357.357 0 0 0 .012-.593l-.718-.5v-3.179a.43.43 0 0 0 -.43-.43h-4.792l-5.105-3.526a1.134 1.134 0 0 0 -1.282-.005l-5.211 3.531h-4.928a.43.43 0 0 0 -.43.43v3.2l-.7.477a.38.38 0 0 0 .003.632z"
            transform="translate(-164.987 -148.622)" />
        <path
            d="m175.192 286.093-11.685 7.92a1.148 1.148 0 0 1 -1.3-.006l-11.4-7.873a.517.517 0 0 0 -.812.426v13.516a.517.517 0 0 0 .517.517h24.965a.517.517 0 0 0 .517-.517v-13.554a.517.517 0 0 0 -.802-.429z"
            transform="translate(-150 -277.073)" />
        <path
            d="m284.547 238.166a.182.182 0 0 0 -.181-.2h-.666a.182.182 0 0 0 -.181.165l-.01.113a1.3 1.3 0 0 0 -.17-.132 1.4 1.4 0 0 0 -.783-.227 2.126 2.126 0 0 0 -1.759.866 3.363 3.363 0 0 0 -.653 2.11 2.387 2.387 0 0 0 .486 1.564 1.628 1.628 0 0 0 1.314.6 1.576 1.576 0 0 0 1.286-.577.18.18 0 0 1 .294.021 1.252 1.252 0 0 0 1.145.555 2.049 2.049 0 0 0 1.669-.883 3.5 3.5 0 0 0 .662-2.181 3.8 3.8 0 0 0 -1.247-2.94 4.49 4.49 0 0 0 -3.119-1.122 4.423 4.423 0 0 0 -3.306 1.338 4.651 4.651 0 0 0 -1.294 3.357 4.3 4.3 0 0 0 1.238 3.187 4.446 4.446 0 0 0 3.25 1.221 6.071 6.071 0 0 0 2.371-.409.182.182 0 0 0 .11-.167v-.66a.182.182 0 0 0 -.259-.164 5.109 5.109 0 0 1 -2.169.419 3.377 3.377 0 0 1 -2.518-.949 3.45 3.45 0 0 1 -.93-2.51 3.742 3.742 0 0 1 .984-2.644 3.259 3.259 0 0 1 2.481-1.049 3.309 3.309 0 0 1 2.437.873 3.073 3.073 0 0 1 .871 2.259 2.9 2.9 0 0 1 -.354 1.518.933.933 0 0 1 -.8.536c-.112 0-.452 0-.452-.915 0-.047.047-.6.25-2.976zm-1.581 3.313a.994.994 0 0 1 -.889.568.693.693 0 0 1 -.587-.29 1.438 1.438 0 0 1 -.237-.88 2.646 2.646 0 0 1 .378-1.461 1.048 1.048 0 0 1 .915-.545c.364 0 .782.109.782.957a3.267 3.267 0 0 1 -.362 1.65z"
            transform="translate(-269.714 -230.225)" />
    </g>
</svg>