<svg height="26" viewBox="0 0 29.939 26" width="29.939" xmlns="http://www.w3.org/2000/svg">
    <path
        d="m312.97 262a.785.785 0 0 1 -.407-.113c-.287-.172-.6-.357-.931-.554-4.764-2.819-13.632-8.064-13.632-16.666a8.662 8.662 0 0 1 14.97-5.941 8.662 8.662 0 0 1 14.97 5.941c0 8.6-8.868 13.848-13.632 16.666-.332.2-.644.382-.931.554a.785.785 0 0 1 -.407.113zm-6.3-24.424a7.1 7.1 0 0 0 -7.091 7.091c0 7.7 8.365 12.652 12.858 15.31l.536.318.536-.318c4.493-2.658 12.858-7.607 12.858-15.31a7.087 7.087 0 0 0 -12.764-4.247.816.816 0 0 1 -1.261 0 7.124 7.124 0 0 0 -5.675-2.844z"
        fill="#fff" transform="translate(-298 -236)" />
</svg>