<svg xmlns="http://www.w3.org/2000/svg" width="506.31" height="506.31" viewBox="0 0 506.31 506.31">
  <g id="Group_775" data-name="Group 775" transform="translate(7027.675 1174.47)">
    <path id="Path_609" data-name="Path 609" d="M1571.984,149.116c139.813,0,253.153,113.341,253.153,253.156S1711.8,655.426,1571.984,655.426s-253.156-113.341-253.156-253.153,113.344-253.156,253.156-253.156Z" transform="translate(-8346.503 -1323.586)" fill="#f0f0f0" fill-rule="evenodd"/>
    <path id="Path_610" data-name="Path 610" d="M1454.563,574.2c-92.581-7.563-89.2-186.972-83.1-265.626,5.782-74.626,37.915-146.8,83.842-139.531,68.178-21.006,106.57,56.169,111.644,136.694,5.02,79.662,28.753,276.611-112.383,268.463Z" transform="translate(-8238.557 -1288.102)" fill="#252e4b" fill-rule="evenodd"/>
    <path id="Path_611" data-name="Path 611" d="M1444.16,218.424s8.473,59.016-1.387,75.584c-16.264,20.671-43.289,26.6-81.817,45.355,83.2,193.963,192.608,150.112,251.744,2.417-59.714-33.874-62.763-31.669-77.678-47.617-8.208-8.786-11.253-31.157-12.492-79.109l-78.37,3.371Z" transform="translate(-8255.534 -1181.207)" fill="#ffcca9" fill-rule="evenodd"/>
    <path id="Path_612" data-name="Path 612" d="M1387.6,218.569l78.193,11.026c1.614,32.977,4.872,49.671,11.7,56.975.193.2.379.4.565.6-53.936,16.953-80.313-18.823-88.644-48.534-.5-7.838-1.226-14.982-1.811-20.068Z" transform="translate(-8198.002 -1173.615)" fill="#f4a592" fill-rule="evenodd"/>
    <path id="Path_613" data-name="Path 613" d="M1384.845,198c-5.9-.016-9.434,13.282-6.1,26.14s5.159,24.4,11.064,24.418,3.3-8.322,3.333-23.335-2.389-27.2-8.293-27.224Z" transform="translate(-8219.905 -1218.039)" fill="#ffcca9" fill-rule="evenodd"/>
    <path id="Path_614" data-name="Path 614" d="M1428.227,198.046c5.9.022,9.364,13.339,5.971,26.175s-5.286,24.371-11.187,24.352-3.257-8.341-3.219-23.347,2.531-27.2,8.436-27.18Z" transform="translate(-8129.84 -1217.931)" fill="#ffcca9" fill-rule="evenodd"/>
    <path id="Path_615" data-name="Path 615" d="M1442.751,173.42c67.366.013,61.534,40.067,61.379,94.893s-37.58,91.333-62.529,89.128c-22.522-.787-60.116-32.611-59.964-87.441.114-41.915-4.767-76.092,24.343-89.974,8.969-4.281,20.9-6.606,36.771-6.606Z" transform="translate(-8211.402 -1271.106)" fill="#ffcca9" fill-rule="evenodd"/>
    <path id="Path_616" data-name="Path 616" d="M1388.337,266.02c8.3-32.895,7.889-43.28,38.3-67.7,36.108,39.03,77.928,25.726,85.213,73.486,8.9-6.562,6.072-22.956,5.626-30.469-1.137-36.215-34.56-75.514-68.093-71.337-47.819,9.5-56.369,23.742-71.28,81.356l10.233,14.666Z" transform="translate(-8218.507 -1279.156)" fill="#252e4b" fill-rule="evenodd"/>
    <path id="Path_617" data-name="Path 617" d="M1703.412,369.665l-11.089-59.2c-2.988-15.73-20.614-32.5-37.1-39.09-21.881-10.619-37.634-14.28-57.673-25.91-24.251,100.138-133.3,70.62-137.63.487-28.774,10.533-33.024,13.737-62.76,25.265.007.028-31.928,10.378-40,42.227l-14.682,60.33a253.129,253.129,0,0,0,360.937-4.11Z" transform="translate(-8295.441 -1115.536)" fill="#ff7bac" fill-rule="evenodd"/>
  </g>
</svg>
