<svg height="20.979" viewBox="0 0 23.976 20.979" width="23.976" xmlns="http://www.w3.org/2000/svg">
    <g fill="#707070">
        <path d="m7.492 2.248h16.483v1.498h-16.483z" />
        <path d="m0 2.248h2.997v1.498h-2.997z" />
        <path d="m20.979 9.74h2.997v1.498h-2.997z" />
        <path d="m0 9.74h16.483v1.498h-16.483z" />
        <path d="m11.988 17.232h11.988v1.498h-11.988z" />
        <path d="m0 17.232h7.492v1.498h-7.492z" />
        <path
            d="m505 177.994a3 3 0 1 1 3-3 3 3 0 0 1 -3 3zm0-4.5a1.5 1.5 0 1 0 1.5 1.5 1.5 1.5 0 0 0 -1.5-1.494z"
            transform="translate(-499.752 -172)" />
        <path
            d="m523 187.994a3 3 0 1 1 3-3 3 3 0 0 1 -3 3zm0-4.5a1.5 1.5 0 1 0 1.5 1.5 1.5 1.5 0 0 0 -1.5-1.494z"
            transform="translate(-504.266 -174.508)" />
        <path
            d="m511 197.994a3 3 0 1 1 3-3 3 3 0 0 1 -3 3zm0-4.5a1.5 1.5 0 1 0 1.5 1.5 1.5 1.5 0 0 0 -1.5-1.494z"
            transform="translate(-501.257 -177.015)" />
    </g>
</svg>