<svg height="25.68" viewBox="0 0 25.16 25.68" width="25.16" xmlns="http://www.w3.org/2000/svg">
    <path
        d="m-1085.631 1523.83a13.739 13.739 0 0 0 -.218-2.429h-12.1v4.859h7.324a7.729 7.729 0 0 1 -2.811 4.113l3.779 3.007a13.065 13.065 0 0 0 4.026-9.55z"
        fill="#3284ff" transform="translate(1110.791 -1510.99)" />
    <path
        d="m-1182.8 1439a7.264 7.264 0 0 1 4.785 1.776l3.5-3.547a11.994 11.994 0 0 0 -8.44-3.434 12.953 12.953 0 0 0 -11.464 7.109l4.293 3.273a7.871 7.871 0 0 1 7.326-5.177z"
        fill="#ff3424" transform="translate(1195.799 -1433.792)" />
    <path
        d="m-1204.546 1505.236 4.14-3.294a7.68 7.68 0 0 1 -.391-2.418 7.688 7.688 0 0 1 .464-2.631l-4.293-3.273a12.62 12.62 0 0 0 -1.376 5.731 12.627 12.627 0 0 0 1.456 5.885z"
        fill="#fb0" transform="translate(1206.002 -1486.51)" />
    <path
        d="m-1189.608 1563.654-4.14 3.294a12.951 12.951 0 0 0 11.384 6.955 11.99 11.99 0 0 0 8.292-3.291l-3.779-3.007a7.252 7.252 0 0 1 -4.355 1.439 7.87 7.87 0 0 1 -7.402-5.39z"
        fill="#26b14c" transform="translate(1195.204 -1548.222)" />
</svg>