<svg xmlns="http://www.w3.org/2000/svg" width="40.009" height="30.288" viewBox="0 0 40.009 30.288">
    <path
        d="M-936.935-413.123a2.459,2.459,0,0,1-1.179-1.039,9.859,9.859,0,0,0-8.338-6.272c-2.125-.162-3.768-1.848-4.814-3.783a5.69,5.69,0,0,0-.5-.774.853.853,0,0,1,.06-.989,1.394,1.394,0,0,0,.241-.788,1.338,1.338,0,0,0-1.31-1.365,1.3,1.3,0,0,0-1.136.686.8.8,0,0,1-.838.488,5.244,5.244,0,0,0-1.265-.154,5.252,5.252,0,0,0-2.649.716,4.46,4.46,0,0,1-4.323.315,8.815,8.815,0,0,0-4.143-1.031,9.353,9.353,0,0,0-9.154,9.54,9.353,9.353,0,0,0,9.154,9.54,8.864,8.864,0,0,0,5.425-1.857,3.2,3.2,0,0,1,3.031-.632,3.252,3.252,0,0,1,1.911,2.476,10.361,10.361,0,0,0,2.123,4.451,5.292,5.292,0,0,1,1.335,3.294v1.32a.879.879,0,0,0,.55.846,5.076,5.076,0,0,0,3.4,0,.788.788,0,0,0,.424-.37c.4-.718.91-1.5,1.7-1.5h.1c.8,0,1.306.782,1.706,1.5a.8.8,0,0,0,.428.371,5.076,5.076,0,0,0,3.4,0,.876.876,0,0,0,.543-.844V-400.3a5.309,5.309,0,0,1,1.34-3.3,10.427,10.427,0,0,0,2.337-6.277,1.475,1.475,0,0,1,.616-1.009,1.382,1.382,0,0,0,.475-1.05A1.375,1.375,0,0,0-936.935-413.123Zm-21.637-9.472a.854.854,0,0,1-.836-.871.854.854,0,0,1,.836-.871.854.854,0,0,1,.836.871A.854.854,0,0,1-958.572-422.6Z"
        transform="translate(976.286 428.133)" fill="#ff7bac" />
</svg>