<svg height="43.905" viewBox="0 0 42.78 43.905" width="42.78" xmlns="http://www.w3.org/2000/svg">
    <path
        d="m2164.774 1095.255a.42.42 0 0 1 -.414-.358l-.631-4.208-2.948-1.637a.42.42 0 1 1 .407-.734l3.129 1.737a.42.42 0 0 1 .211.3l.662 4.412a.42.42 0 0 1 -.353.477.426.426 0 0 1 -.063.011z"
        fill="#0c6bc2" transform="translate(-2145.35 -1069.094)" />
    <path
        d="m2277.081 1274.862h-12.825a.629.629 0 0 1 -.592-.844l2.332-6.432a.629.629 0 0 1 1.184.429l-2.026 5.588h11.03l-2.026-5.588a.629.629 0 1 1 1.184-.429l2.332 6.432a.63.63 0 0 1 -.592.844z"
        fill="#fff" transform="translate(-2241.18 -1235.442)" />
    <path
        d="m2272.429 1270.561h-12.829a.981.981 0 0 1 -.922-1.315l2.332-6.432a.981.981 0 1 1 1.844.668l-1.854 5.118h10.028l-1.855-5.117a.981.981 0 0 1 1.844-.669l2.332 6.433a.981.981 0 0 1 -.922 1.315zm-10.493-7.691a.279.279 0 0 0 -.262.183l-2.332 6.432a.278.278 0 0 0 .262.373h12.825a.278.278 0 0 0 .262-.373l-2.332-6.432a.278.278 0 1 0 -.523.19l2.026 5.588a.351.351 0 0 1 -.33.471h-11.032a.351.351 0 0 1 -.33-.471l2.026-5.588a.278.278 0 0 0 -.261-.373z"
        fill="#0c6bc2" transform="translate(-2236.528 -1230.79)" />
    <circle cx="23.076" cy="39.101" fill="#fff" r="4.139" />
    <path
        d="m2213.588 1317.679a4.453 4.453 0 1 1 4.453-4.453 4.459 4.459 0 0 1 -4.453 4.453zm0-8.277a3.824 3.824 0 1 0 3.824 3.824 3.828 3.828 0 0 0 -3.824-3.826z"
        fill="#0c6bc2" transform="translate(-2190.512 -1274.125)" />
    <circle cx="35.902" cy="39.101" fill="#fff" r="4.139" />
    <path
        d="m2396.349 1317.679a4.453 4.453 0 1 1 4.454-4.453 4.458 4.458 0 0 1 -4.454 4.453zm0-8.277a3.824 3.824 0 1 0 3.824 3.824 3.828 3.828 0 0 0 -3.824-3.826z"
        fill="#0c6bc2" transform="translate(-2360.448 -1274.125)" />
    <path d="m2383.072 1002.629v10.8h11.6c0-5.963-5.193-10.8-11.6-10.8z" fill="#92e0ff"
        transform="translate(-2352.243 -989.466)" />
    <path
        d="m2390.018 1009.129h-11.6a.351.351 0 0 1 -.351-.351v-10.8a.351.351 0 0 1 .351-.351c6.59 0 11.951 5 11.951 11.155a.351.351 0 0 1 -.351.347zm-11.249-.7h10.891c-.2-5.493-4.976-9.927-10.891-10.1z"
        fill="#0c6bc2" transform="translate(-2347.589 -984.811)" />
    <circle cx="23.075" cy="39.1" fill="#caf4ff" r="2.25" />
    <path
        d="m2238.125 1340.363a2.6 2.6 0 1 1 2.6-2.6 2.6 2.6 0 0 1 -2.6 2.6zm0-4.5a1.9 1.9 0 1 0 1.9 1.9 1.9 1.9 0 0 0 -1.9-1.9z"
        fill="#0c6bc2" transform="translate(-2215.049 -1298.661)" />
    <circle cx="35.901" cy="39.1" fill="#caf4ff" r="2.25" />
    <path
        d="m2420.886 1340.363a2.6 2.6 0 1 1 2.6-2.6 2.6 2.6 0 0 1 -2.6 2.6zm0-4.5a1.9 1.9 0 1 0 1.9 1.9 1.9 1.9 0 0 0 -1.9-1.9z"
        fill="#0c6bc2" transform="translate(-2384.984 -1298.661)" />
    <path d="m2307.7 1318.117h-8.409a.315.315 0 0 1 0-.629h8.409a.315.315 0 0 1 0 .629z"
        fill="#0c6bc2" transform="translate(-2274.045 -1282.229)" />
    <path
        d="m2211.128 1158.482v5.121a3.446 3.446 0 0 0 3.264 3.584h17.138a3.446 3.446 0 0 0 3.265-3.584v-5.121z"
        fill="#fff" transform="translate(-2192.366 -1134.382)" />
    <path
        d="m2226.876 1162.884h-17.138a3.79 3.79 0 0 1 -3.616-3.936v-5.121a.351.351 0 0 1 .351-.351h23.667a.351.351 0 0 1 .351.351v5.121a3.79 3.79 0 0 1 -3.615 3.936zm-20.051-8.705v4.769a3.089 3.089 0 0 0 2.913 3.233h17.138a3.089 3.089 0 0 0 2.913-3.233v-4.769z"
        fill="#0c6bc2" transform="translate(-2187.711 -1129.727)" />
    <path
        d="m2334.118 1198.023 1.676-1.48c.741-.741.854-1.172.728-1.678a1.328 1.328 0 0 0 -.978-.993 1.578 1.578 0 0 0 -1.464.5l-.008.009-.009-.009a1.578 1.578 0 0 0 -1.464-.5 1.328 1.328 0 0 0 -.978.993c-.126.505-.058.892.746 1.7l1.658 1.462a.07.07 0 0 0 .093-.004z"
        fill="#64bdfa" transform="translate(-2304.357 -1167.25)" />
    <path
        d="m2329.438 1193.74a.42.42 0 0 1 -.279-.105l-1.658-1.462-.016-.015c-.8-.8-1.016-1.317-.838-2.029a1.678 1.678 0 0 1 1.223-1.246 3.391 3.391 0 0 0 3.135 0 1.677 1.677 0 0 1 1.223 1.246c.174.695-.048 1.24-.82 2.011l-.016.015-1.676 1.48a.42.42 0 0 1 -.278.105zm-1.463-2.087 1.464 1.291 1.481-1.309c.711-.713.7-1.027.628-1.336a.976.976 0 0 0 -.732-.74 1.247 1.247 0 0 0 -1.122.414l-.009.009a.352.352 0 0 1 -.494 0l.239-.258-.245.251a1.249 1.249 0 0 0 -1.124-.415.976.976 0 0 0 -.732.74c-.076.3-.142.565.645 1.353z"
        fill="#0c6bc2" transform="translate(-2299.723 -1162.599)" />
    <path
        d="m1957.57 1147.573a1.889 1.889 0 0 1 -1.686-2.736c1.425-2.84 3-6.037 3.351-6.857l1.061-10.17a1.888 1.888 0 1 1 3.756.392l-1.085 10.4c-.041.4-.068.675-3.707 7.926a1.888 1.888 0 0 1 -1.69 1.045z"
        fill="#fff" transform="translate(-1954.847 -1104.288)" />
    <path
        d="m1952.924 1143.271a2.219 2.219 0 0 1 -1-.238 2.242 2.242 0 0 1 -1-3.006c1.324-2.638 2.919-5.876 3.321-6.79l1.055-10.116a2.24 2.24 0 1 1 4.455.465l-1.085 10.4c-.048.476-.075.739-3.743 8.047a2.23 2.23 0 0 1 -2.003 1.238zm1.8-9.391c-.574 1.237-1.983 4.093-3.172 6.462a1.539 1.539 0 0 0 .684 2.063 1.536 1.536 0 0 0 2.063-.684c3.61-7.192 3.637-7.462 3.672-7.8l1.085-10.406a1.537 1.537 0 0 0 -3.058-.319l-1.061 10.17a.347.347 0 0 1 -.027.1v.009a.35.35 0 0 1 .007.116v.012a.351.351 0 0 1 -.193.277z"
        fill="#0c6bc2" transform="translate(-1950.201 -1099.635)" />
    <path
        d="m2081.206 974.569a1.779 1.779 0 0 1 -.64-.119l-5.343-2.054a1.784 1.784 0 0 1 -1.119-1.368l-1-5.9a1.784 1.784 0 0 1 3.518-.594l.827 4.9 4.394 1.69a1.784 1.784 0 0 1 -.64 3.449z"
        fill="#fff" transform="translate(-2064.008 -952.659)" />
    <path
        d="m2076.553 970.268a2.126 2.126 0 0 1 -.766-.143l-5.344-2.054a2.144 2.144 0 0 1 -1.339-1.637l-1-5.9a2.135 2.135 0 0 1 4.21-.711l.794 4.7 4.207 1.618a2.135 2.135 0 0 1 1.227 2.759 2.149 2.149 0 0 1 -1.989 1.368zm-6.339-11.524a1.433 1.433 0 0 0 -1.413 1.671l1 5.9a1.439 1.439 0 0 0 .9 1.1l5.343 2.054a1.427 1.427 0 0 0 .514.1 1.442 1.442 0 0 0 1.337-.919 1.432 1.432 0 0 0 -.823-1.851l-4.394-1.689a.352.352 0 0 1 -.221-.269l-.827-4.9a1.435 1.435 0 0 0 -1.416-1.197z"
        fill="#0c6bc2" transform="translate(-2059.356 -948.007)" />
    <path
        d="m2052.525 1159.65a1.889 1.889 0 0 1 -1.868-1.63l-1.065-7.681a4.855 4.855 0 0 0 -.392-1.333l-3.437-7.517a1.888 1.888 0 0 1 3.435-1.57l3.437 7.517a8.654 8.654 0 0 1 .7 2.377l1.065 7.688a1.891 1.891 0 0 1 -1.873 2.148z"
        fill="#fff" transform="translate(-2038.446 -1116.096)" />
    <path
        d="m2047.878 1155.338a2.248 2.248 0 0 1 -2.216-1.932l-1.065-7.681a4.5 4.5 0 0 0 -.363-1.234l-3.437-7.517a2.24 2.24 0 1 1 4.074-1.863l3.437 7.517a9.006 9.006 0 0 1 .726 2.474l1.066 7.689a2.24 2.24 0 0 1 -1.911 2.526 2.277 2.277 0 0 1 -.311.021zm-5.044-20.834a1.539 1.539 0 0 0 -1.4 2.177l3.437 7.517a5.2 5.2 0 0 1 .42 1.429l1.065 7.682a1.538 1.538 0 0 0 2.749.716 1.527 1.527 0 0 0 .3-1.138l-1.065-7.688a8.305 8.305 0 0 0 -.669-2.279l-3.437-7.517a1.541 1.541 0 0 0 -1.4-.9z"
        fill="#0c6bc2" transform="translate(-2033.799 -1111.433)" />
    <path
        d="m1981.44 959.675-3.192-11.094c0-.018 0-.035-.007-.053l.1-3.658.072-3.208a4.2 4.2 0 0 0 -8.391-.188l-.071 3.192-.1 4-2.475 11a1.563 1.563 0 0 0 1.526 1.759h11.022a1.563 1.563 0 0 0 1.516-1.75z"
        fill="#fff" transform="translate(-1965.701 -928.789)" />
    <path
        d="m1975.262 957.132h-11.022a1.873 1.873 0 0 1 -1.394-.628 1.956 1.956 0 0 1 -.481-1.522c0-.013 0-.025.006-.038l2.467-10.971.1-3.97.071-3.191a4.548 4.548 0 0 1 9.094.2l-.072 3.208-.095 3.631 3.184 11.068a.354.354 0 0 1 .012.058 1.956 1.956 0 0 1 -.481 1.522 1.873 1.873 0 0 1 -1.389.633zm-12.2-2.053a1.252 1.252 0 0 0 .309.957 1.155 1.155 0 0 0 .87.394h11.022a1.155 1.155 0 0 0 .87-.394 1.252 1.252 0 0 0 .31-.948l-3.183-11.064a.348.348 0 0 1 -.011-.057l-.007-.048a.344.344 0 0 1 0-.054l.1-3.658.072-3.207a3.845 3.845 0 0 0 -7.689-.172l-.071 3.192-.1 4.005a.355.355 0 0 1 -.008.068z"
        fill="#0c6bc2" transform="translate(-1961.049 -924.136)" />
    <path
        d="m1981.951 823.76c.243-1.213 2.464-1.3 1.764-2.349-.85-1.277-3.791-2.918-4.729 1.754-.362 1.8-2.381 3.332-2.129 4.128.169.531 4.312.363 5.094-3.533z"
        fill="#caf4ff" transform="translate(-1974.516 -819.706)" />
    <path
        d="m1972.938 823.217c-.413 0-.955-.077-1.078-.465-.176-.554.269-1.159.831-1.926a6.518 6.518 0 0 0 1.288-2.378c.275-1.371.907-3.065 2.357-3.351a3.216 3.216 0 0 1 3.009 1.471.95.95 0 0 1 .175.746c-.1.43-.5.676-.937.937s-.869.524-.951.93a4.886 4.886 0 0 1 -4.5 4.03c-.06.004-.125.006-.194.006zm-.414-.747a3.418 3.418 0 0 0 1.938-.29 4.11 4.11 0 0 0 2.481-3.136 2.3 2.3 0 0 1 1.276-1.393c.26-.157.584-.352.615-.489a.34.34 0 0 0 -.074-.2 2.58 2.58 0 0 0 -2.288-1.171c-.846.167-1.47 1.135-1.8 2.8a7.147 7.147 0 0 1 -1.41 2.655 4.058 4.058 0 0 0 -.738 1.225z"
        fill="#0c6bc2" transform="translate(-1969.853 -815.06)" />
    <path
        d="m1955.126 960-2.323 2.845 3.99 5.519a1.784 1.784 0 1 1 -2.891 2.09l-4.793-6.63a1.783 1.783 0 0 1 .064-2.173l4.728-5.847"
        fill="#fff" transform="translate(-1948.42 -945.922)" />
    <path
        d="m1950.7 966.884a2.142 2.142 0 0 1 -1.732-.884l-4.793-6.63a2.137 2.137 0 0 1 .077-2.6l4.727-5.846a.351.351 0 1 1 .546.442l-4.728 5.848a1.434 1.434 0 0 0 -.053 1.746l4.793 6.63a1.438 1.438 0 0 0 1.162.593 1.432 1.432 0 0 0 1.159-2.271l-3.99-5.519a.351.351 0 0 1 .013-.428l2.323-2.845a.351.351 0 1 1 .544.444l-2.148 2.636 3.831 5.3a2.135 2.135 0 0 1 -1.729 3.385z"
        fill="#0c6bc2" transform="translate(-1943.775 -941.267)" />
    <circle cx="3.462" cy="3.462" fill="#fff" r="3.462"
        transform="matrix(.369 -.929 .929 .369 6.177 6.541)" />
    <path
        d="m2045.325 833.9a3.845 3.845 0 0 1 -.758-.076 3.795 3.795 0 1 1 .758.076zm-.009-6.926a3.114 3.114 0 1 0 .613.061 3.116 3.116 0 0 0 -.612-.063z"
        fill="#0c6bc2" transform="translate(-2034.645 -825.482)" />
</svg>