<svg height="44.015" viewBox="0 0 44.015 44.015" width="44.015" xmlns="http://www.w3.org/2000/svg"><ellipse cx="22.007" cy="22.007" fill="#fff" rx="22.007" ry="22.007"/><g fill="#505050"><path d="m668.4 65.043a16.511 16.511 0 0 1 -16.4-16.4 3.591 3.591 0 0 1 1.226-2.7l2.487-2.37a2.045 2.045 0 0 1 3.112.338l2.533 3.546a2.043 2.043 0 0 1 -.313 2.723l-2.034 1.8a1.162 1.162 0 0 0 -.348.769 6.039 6.039 0 0 0 2 3.632 6.062 6.062 0 0 0 3.624 2h.008a1.175 1.175 0 0 0 .791-.371l1.783-2.01a2.1 2.1 0 0 1 2.722-.315l3.558 2.542a2.045 2.045 0 0 1 .327 3.1l-2.385 2.5a3.578 3.578 0 0 1 -2.691 1.216zm-11.273-21.018a1.018 1.018 0 0 0 -.706.284l-2.5 2.385a2.581 2.581 0 0 0 -.892 1.945 15.487 15.487 0 0 0 15.371 15.379 2.568 2.568 0 0 0 1.931-.877l2.4-2.519a1.021 1.021 0 0 0 -.171-1.556l-3.568-2.549a1.044 1.044 0 0 0 -1.358.159l-1.8 2.033a2.182 2.182 0 0 1 -1.533.695h-.012a6.959 6.959 0 0 1 -4.349-2.3 6.94 6.94 0 0 1 -2.3-4.362 2.166 2.166 0 0 1 .672-1.511l2.056-1.82a1.028 1.028 0 0 0 .348-.767 1.009 1.009 0 0 0 -.19-.591l-2.541-3.558a1.036 1.036 0 0 0 -.858-.47z" transform="translate(-640.996 -30.996)"/><path d="m684.253 54.253h-1.025v-.513a8.724 8.724 0 0 0 -8.715-8.715h-.513v-1.025h.513a9.751 9.751 0 0 1 9.74 9.74z" transform="translate(-651.718 -31.483)"/><path d="m681.177 57.177h-1.025v-.513a5.646 5.646 0 0 0 -5.639-5.639h-.513v-1.025h.513a6.672 6.672 0 0 1 6.664 6.664z" transform="translate(-651.718 -34.408)"/><path d="m678.1 60.1h-1.025v-.513a2.566 2.566 0 0 0 -2.563-2.563h-.512v-1.024h.513a3.593 3.593 0 0 1 3.588 3.588z" transform="translate(-651.718 -37.332)"/></g></svg>