<svg id="Group_67" data-name="Group 67" xmlns="http://www.w3.org/2000/svg" width="21.147" height="21.147" viewBox="0 0 21.147 21.147">
  <path id="Path_69" data-name="Path 69" d="M667.738,64.147A15.84,15.84,0,0,1,652,48.41a3.445,3.445,0,0,1,1.176-2.592l2.386-2.274a1.962,1.962,0,0,1,2.985.325l2.43,3.4a1.96,1.96,0,0,1-.3,2.612l-1.951,1.725a1.115,1.115,0,0,0-.334.738,5.794,5.794,0,0,0,1.923,3.485,5.816,5.816,0,0,0,3.476,1.923h.008a1.127,1.127,0,0,0,.759-.356l1.705-1.928a2.01,2.01,0,0,1,2.611-.3l3.414,2.439a1.962,1.962,0,0,1,.314,2.978l-2.288,2.4A3.433,3.433,0,0,1,667.738,64.147ZM656.918,43.984a.977.977,0,0,0-.677.272l-2.4,2.288a2.476,2.476,0,0,0-.856,1.866,14.858,14.858,0,0,0,14.754,14.754,2.464,2.464,0,0,0,1.852-.841l2.3-2.416a.979.979,0,0,0-.164-1.493L668.3,55.968a1,1,0,0,0-1.3.153l-1.725,1.95a2.094,2.094,0,0,1-1.471.666h-.012a6.677,6.677,0,0,1-4.173-2.211,6.659,6.659,0,0,1-2.211-4.185,2.078,2.078,0,0,1,.644-1.45l1.973-1.746a.986.986,0,0,0,.334-.736.969.969,0,0,0-.182-.567l-2.438-3.414A.994.994,0,0,0,656.918,43.984Z" transform="translate(-652 -43)" fill="#505050"/>
  <path id="Path_70" data-name="Path 70" d="M683.836,53.836h-.984v-.492a8.37,8.37,0,0,0-8.36-8.361H674V44h.492a9.355,9.355,0,0,1,9.344,9.344Z" transform="translate(-663.181 -43.508)" fill="#505050"/>
  <path id="Path_71" data-name="Path 71" d="M680.885,56.885H679.9v-.492a5.416,5.416,0,0,0-5.41-5.41H674V50h.492a6.4,6.4,0,0,1,6.393,6.393Z" transform="translate(-663.181 -46.557)" fill="#505050"/>
  <path id="Path_72" data-name="Path 72" d="M677.934,59.934h-.984v-.492a2.462,2.462,0,0,0-2.459-2.459H674V56h.492a3.447,3.447,0,0,1,3.443,3.443Z" transform="translate(-663.181 -49.607)" fill="#505050"/>
</svg>
