<svg height="44.718" viewBox="0 0 46.271 44.718" width="46.271" xmlns="http://www.w3.org/2000/svg">
    <ellipse cx="12.445" cy="6.705" fill="#fff" rx="5.36" ry="5.374" />
    <path
        d="m3430.807 945.61a5.816 5.816 0 0 1 -3.159-10.7 5.75 5.75 0 0 1 4.359-.8 5.817 5.817 0 0 1 1.935 10.565 5.752 5.752 0 0 1 -3.135.935zm-.021-10.752a4.929 4.929 0 0 0 -4.8 3.906 4.942 4.942 0 0 0 3.785 5.859 4.923 4.923 0 0 0 5.843-3.795 4.934 4.934 0 0 0 -4.824-5.97z"
        fill="#0c6bc2" transform="translate(-3418.351 -933.091)" />
    <path
        d="m3377.32 1087.229-6.707-10.123a2.589 2.589 0 0 0 -2.15-1.159l-5.423-.013a2.587 2.587 0 0 0 -2.2 1.23l-6.4 10.376a2.6 2.6 0 0 0 .839 3.572 2.583 2.583 0 0 0 3.563-.842l3.007-6.516-.684 5.609a4.791 4.791 0 0 0 .165 1.268c-.007.042-.018.084-.022.127l-1.606 13.233a2.594 2.594 0 0 0 2.257 2.889 2.63 2.63 0 0 0 .316.019 2.592 2.592 0 0 0 2.566-2.282l1.208-9.96.854 9.871a2.591 2.591 0 0 0 2.576 2.371c.075 0 .15 0 .227-.01a2.593 2.593 0 0 0 2.355-2.809l-1.222-14.119a2.487 2.487 0 0 0 -.068-.394c0-.045.008-.089.008-.133l-.749-5.772 2.989 6.439a2.59 2.59 0 1 0 4.312-2.872z"
        fill="#fff" transform="translate(-3353.605 -1062.621)" />
    <path
        d="m3357.709 1102.771a3.1 3.1 0 0 1 -.368-.022 3.035 3.035 0 0 1 -2.64-3.377l1.605-13.233c0-.02.006-.04.009-.059a5.261 5.261 0 0 1 -.154-1.287.42.42 0 0 1 0-.05l.346-2.836-1.836 3.98a.451.451 0 0 1 -.025.047 3.021 3.021 0 0 1 -4.167.984 3.04 3.04 0 0 1 -.981-4.174l6.4-10.376a3.008 3.008 0 0 1 2.576-1.438l5.428.013a3.019 3.019 0 0 1 2.514 1.355l6.708 10.123a3.041 3.041 0 0 1 -.846 4.2 3.023 3.023 0 0 1 -4.2-.848.443.443 0 0 1 -.032-.057l-1.792-3.86.383 2.952a.4.4 0 0 1 0 .059v.094a2.912 2.912 0 0 1 .063.393l1.222 14.119a3.034 3.034 0 0 1 -2.753 3.283c-.088.008-.177.011-.265.011a3.047 3.047 0 0 1 -3.004-2.767l-.491-5.671-.7 5.775a3.029 3.029 0 0 1 -3 2.667zm-.672-17.948a4.407 4.407 0 0 0 .15 1.129.441.441 0 0 1 .008.186c0 .017-.006.034-.009.051s-.007.036-.01.055l-1.605 13.234a2.158 2.158 0 0 0 1.875 2.4 2.258 2.258 0 0 0 .263.016 2.154 2.154 0 0 0 2.131-1.9l1.208-9.96a.438.438 0 0 1 .871.015l.854 9.871a2.165 2.165 0 0 0 2.139 1.971c.063 0 .126 0 .189-.008a2.157 2.157 0 0 0 1.956-2.335l-1.222-14.119a2.173 2.173 0 0 0 -.057-.328.442.442 0 0 1 -.012-.119c0-.026 0-.051 0-.077v-.021l-.744-5.736a.438.438 0 0 1 .832-.241l2.974 6.408a2.147 2.147 0 0 0 2.963.577 2.163 2.163 0 0 0 .6-2.991l-6.707-10.123a2.146 2.146 0 0 0 -1.786-.963l-5.423-.013a2.138 2.138 0 0 0 -1.833 1.022l-6.4 10.376a2.163 2.163 0 0 0 .7 2.97 2.145 2.145 0 0 0 2.946-.678l3-6.491a.438.438 0 0 1 .833.237z"
        fill="#0c6bc2" transform="translate(-3349.05 -1058.054)" />
    <path
        d="m3440.352 942.44a5.354 5.354 0 0 0 -10.352 1.934h10.719c0-.008 0-.015 0-.023 1.716.062 2.856.1 2.851-.513-.01-.638-1.335-1.178-3.218-1.398z"
        fill="#64bdfa" transform="translate(-3422.913 -937.669)" />
    <path
        d="m3437.45 940.267c-.344 0-.735-.013-1.176-.029a.435.435 0 0 1 -.125.018h-10.719a.438.438 0 0 1 -.438-.438 5.834 5.834 0 0 1 4.585-5.684 5.792 5.792 0 0 1 6.515 3.348c1.174.16 3.333.616 3.344 1.8a.8.8 0 0 1 -.246.6 2.513 2.513 0 0 1 -1.74.385zm-1.3-.909h.016a8.191 8.191 0 0 0 2.393-.092c-.06-.208-.888-.721-2.823-.946a.438.438 0 0 1 -.358-.278 4.891 4.891 0 0 0 -5.615-3.05 4.955 4.955 0 0 0 -3.874 4.389h10.121a.434.434 0 0 1 .138-.024z"
        fill="#0c6bc2" transform="translate(-3418.346 -933.113)" />
    <path
        d="m3432.269 1238.38-1.328-9.516a.526.526 0 0 0 -.522-.47h-8.619a.526.526 0 0 0 -.524.492l-1.368 9.716a.526.526 0 0 0 .524.561h4.859a.349.349 0 0 0 .344-.295l.376-3.075a.083.083 0 0 1 .164 0l.376 3.075a.349.349 0 0 0 .344.295h4.715a.638.638 0 0 0 .659-.783z"
        fill="#64bdfa" transform="translate(-3413.703 -1201.739)" />
    <path
        d="m3427.041 1235.034h-4.715a.784.784 0 0 1 -.777-.664c0-.005 0-.01 0-.016l-.023-.186-.023.186v.016a.784.784 0 0 1 -.777.664h-4.858a.964.964 0 0 1 -.961-1.028c0-.011 0-.021 0-.032l1.366-9.7a.966.966 0 0 1 .96-.883h8.621a.962.962 0 0 1 .957.853l1.328 9.511a.126.126 0 0 1 0 .013 1.072 1.072 0 0 1 -1.1 1.269zm-4.636-.876h4.636a.266.266 0 0 0 .189-.063.335.335 0 0 0 .038-.229l-1.328-9.509v-.013a.087.087 0 0 0 -.086-.079h-8.621a.088.088 0 0 0 -.087.083v.032l-1.365 9.693a.087.087 0 0 0 .024.057.085.085 0 0 0 .063.027h4.779l.365-2.985c0-.005 0-.01 0-.015a.519.519 0 0 1 .515-.44.519.519 0 0 1 .515.44v.015z"
        fill="#0c6bc2" transform="translate(-3409.136 -1197.172)" />
    <ellipse cx="38.34" cy="8.942" fill="#fff" rx="2.684" ry="2.691" />
    <path
        d="m3754.606 996.48a3.129 3.129 0 1 1 3.123-3.129 3.129 3.129 0 0 1 -3.123 3.129zm0-5.383a2.253 2.253 0 1 0 2.246 2.253 2.252 2.252 0 0 0 -2.246-2.25z"
        fill="#0c6bc2" transform="translate(-3716.266 -984.408)" />
    <ellipse cx="28.339" cy="9.405" fill="#fff" rx="2.684" ry="2.691" />
    <path
        d="m3640.33 1001.775a3.129 3.129 0 1 1 3.123-3.129 3.129 3.129 0 0 1 -3.123 3.129zm0-5.383a2.253 2.253 0 1 0 2.246 2.253 2.252 2.252 0 0 0 -2.246-2.253z"
        fill="#0c6bc2" transform="translate(-3611.991 -989.24)" />
    <path
        d="m3670.7 1237.689h-.127a2.592 2.592 0 0 1 -2.46-2.717l.638-13.233a2.588 2.588 0 1 1 5.17.25l-.637 13.233a2.591 2.591 0 0 1 -2.584 2.467z"
        fill="#fff" transform="translate(-3640.19 -1193.409)" />
    <path
        d="m3666.134 1233.559c-.049 0-.1 0-.146 0a3.034 3.034 0 0 1 -2.879-3.176l.637-13.233a3.026 3.026 0 1 1 6.046.293l-.637 13.233a3.025 3.025 0 0 1 -3.021 2.883zm.646-18.423a2.165 2.165 0 0 0 -2.159 2.052l-.637 13.233a2.156 2.156 0 0 0 2.044 2.259h.106a2.15 2.15 0 0 0 2.146-2.053l.638-13.233a2.157 2.157 0 0 0 -2.044-2.259z"
        fill="#0c6bc2" transform="translate(-3635.622 -1188.841)" />
    <path
        d="m3678.793 1098.915h-.036a4.813 4.813 0 0 1 -4.771-4.855l.06-8.2a4.812 4.812 0 0 1 4.806-4.784h.036a4.813 4.813 0 0 1 4.771 4.854l-.06 8.2a4.813 4.813 0 0 1 -4.806 4.785z"
        fill="#fff" transform="translate(-3645.55 -1067.317)" />
    <path
        d="m3674.226 1094.785h-.036a5.258 5.258 0 0 1 -5.209-5.3l.06-8.2a5.264 5.264 0 0 1 5.244-5.218h.036a5.258 5.258 0 0 1 5.209 5.3l-.06 8.2a5.264 5.264 0 0 1 -5.244 5.218zm.092-17.834h-.033a4.386 4.386 0 0 0 -4.368 4.349l-.06 8.2a4.38 4.38 0 0 0 4.336 4.413h.033a4.386 4.386 0 0 0 4.368-4.349l.06-8.2a4.38 4.38 0 0 0 -4.337-4.413z"
        fill="#0c6bc2" transform="translate(-3640.982 -1062.749)" />
    <ellipse cx="33.34" cy="6.715" fill="#fff" rx="5.369" ry="5.383" />
    <path
        d="m3669.481 945.632a5.842 5.842 0 0 1 -1.226-.131 5.826 5.826 0 0 1 -1.938-10.581 5.758 5.758 0 0 1 4.366-.8 5.825 5.825 0 0 1 1.938 10.581 5.758 5.758 0 0 1 -3.14.931zm-1.042-.987a4.931 4.931 0 0 0 5.853-3.8 4.95 4.95 0 0 0 -3.792-5.869 4.931 4.931 0 0 0 -5.853 3.8 4.95 4.95 0 0 0 3.792 5.869z"
        fill="#0c6bc2" transform="translate(-3636.13 -933.094)" />
    <path
        d="m3607.5 1091.072a2.581 2.581 0 0 1 -2.091-1.063l-6.47-8.871-3.042-.006-6.312 8.839a2.59 2.59 0 1 1 -4.209-3.021l7.088-9.926a2.586 2.586 0 0 1 2.1-1.084h.005l5.687.012a2.586 2.586 0 0 1 2.084 1.063l7.243 9.932a2.6 2.6 0 0 1 -.562 3.626 2.572 2.572 0 0 1 -1.521.499z"
        fill="#fff" transform="translate(-3564.252 -1062.625)" />
    <path
        d="m3602.945 1086.942a3.036 3.036 0 0 1 -2.445-1.243l-6.339-8.692-2.594-.005-6.18 8.655a3.022 3.022 0 0 1 -4.223.7 3.04 3.04 0 0 1 -.7-4.23l7.088-9.926a3.03 3.03 0 0 1 2.461-1.268l5.693.012a3.034 3.034 0 0 1 2.437 1.243l7.244 9.931a3.041 3.041 0 0 1 -.657 4.238 3 3 0 0 1 -1.785.585zm-11.6-10.817 3.042.006a.438.438 0 0 1 .353.18l6.47 8.871a2.157 2.157 0 0 0 1.738.883 2.13 2.13 0 0 0 1.267-.416 2.164 2.164 0 0 0 .467-3.015l-7.244-9.932a2.155 2.155 0 0 0 -1.731-.883l-5.687-.012a2.155 2.155 0 0 0 -1.753.9l-7.088 9.927a2.163 2.163 0 0 0 .5 3.01 2.147 2.147 0 0 0 3-.5l6.312-8.839a.438.438 0 0 1 .35-.179z"
        fill="#0c6bc2" transform="translate(-3559.697 -1058.057)" />
    <path
        d="m3728.98 1228.447a2.591 2.591 0 0 1 -2.581-2.427l-.911-14.119a2.588 2.588 0 1 1 5.166-.335l.912 14.119a2.593 2.593 0 0 1 -2.416 2.757c-.057.003-.113.005-.17.005z"
        fill="#fff" transform="translate(-3692.541 -1184.167)" />
    <path
        d="m3724.413 1224.319a3.035 3.035 0 0 1 -3.018-2.837l-.911-14.119a3.026 3.026 0 1 1 6.04-.392l.911 14.119a3.034 3.034 0 0 1 -2.824 3.222c-.066.004-.132.007-.198.007zm-.909-19.309c-.046 0-.092 0-.139 0a2.157 2.157 0 0 0 -2.006 2.292l.911 14.119a2.151 2.151 0 1 0 4.292-.279l-.912-14.119a2.157 2.157 0 0 0 -2.15-2.013z"
        fill="#0c6bc2" transform="translate(-3687.974 -1179.601)" />
    <path
        d="m3651.123 1119.422h-13.447a1.59 1.59 0 0 1 -1.554-1.79l3.678-15.333a1.579 1.579 0 0 1 1.554-1.42h5.757a1.58 1.58 0 0 1 1.555 1.42l4.012 15.333a1.59 1.59 0 0 1 -1.555 1.79z"
        fill="#caf4ff" transform="translate(-3610.99 -1085.383)" />
    <path
        d="m3646.558 1115.293h-13.448a1.989 1.989 0 0 1 -1.48-.667 2.069 2.069 0 0 1 -.509-1.61.429.429 0 0 1 .009-.053l3.672-15.308a2.016 2.016 0 0 1 1.986-1.78h5.757a2.016 2.016 0 0 1 1.986 1.775l4 15.3a.473.473 0 0 1 .011.062 2.068 2.068 0 0 1 -.509 1.61 1.988 1.988 0 0 1 -1.475.671zm-14.569-2.154a1.192 1.192 0 0 0 .295.9 1.1 1.1 0 0 0 .827.374h13.448a1.1 1.1 0 0 0 .827-.374 1.19 1.19 0 0 0 .295-.9l-4-15.3a.406.406 0 0 1 -.011-.062 1.142 1.142 0 0 0 -1.119-1.031h-5.757a1.142 1.142 0 0 0 -1.119 1.031.391.391 0 0 1 -.009.053z"
        fill="#0c6bc2" transform="translate(-3606.425 -1080.816)" />
    <path
        d="m3646.649 968.83-2.606.7a.458.458 0 0 0 -.206.765l1.908 1.912a.458.458 0 0 0 .766-.205l.7-2.612a.458.458 0 0 0 -.562-.56z"
        fill="#caf4ff" transform="translate(-3617.918 -964.875)" />
    <path
        d="m3641.492 968.211a.885.885 0 0 1 -.63-.264l-1.908-1.913a.9.9 0 0 1 .4-1.5l2.606-.7a.9.9 0 0 1 1.1 1.1l-.7 2.612a.886.886 0 0 1 -.634.634.913.913 0 0 1 -.234.031zm.7-3.528-2.606.7a.016.016 0 0 0 -.014.014.017.017 0 0 0 0 .019l1.908 1.913a.02.02 0 0 0 .033-.009l.7-2.612a.02.02 0 0 0 -.024-.024z"
        fill="#0c6bc2" transform="translate(-3613.345 -960.304)" />
    <path
        d="m3684.2 932.32 2.606-.7a.458.458 0 0 0 .206-.766l-1.908-1.912a.458.458 0 0 0 -.767.205l-.7 2.612a.458.458 0 0 0 .563.561z"
        fill="#caf4ff" transform="translate(-3654.348 -928.369)" />
    <path
        d="m3679.511 928.2a.9.9 0 0 1 -.861-1.128l.7-2.612a.9.9 0 0 1 1.5-.4l1.907 1.912a.9.9 0 0 1 -.4 1.5l-2.606.7a.914.914 0 0 1 -.24.028zm.7-3.529h-.007a.016.016 0 0 0 -.014.014l-.7 2.613a.02.02 0 0 0 .024.024l2.606-.7a.016.016 0 0 0 .014-.014.017.017 0 0 0 -.005-.019l-1.908-1.913a.016.016 0 0 0 -.005-.004z"
        fill="#0c6bc2" transform="translate(-3649.778 -923.796)" />
    <ellipse cx="29.294" cy="3.954" fill="#caf4ff" rx="1.413" ry="1.417" />
    <path
        d="m3664.5 951.49a1.837 1.837 0 0 1 -1.309-.544 1.86 1.86 0 0 1 0-2.622 1.848 1.848 0 0 1 2.618 0 1.86 1.86 0 0 1 0 2.622 1.838 1.838 0 0 1 -1.309.544zm-.689-1.162a.973.973 0 0 0 1.378 0 .982.982 0 0 0 0-1.385.973.973 0 0 0 -1.378 0 .982.982 0 0 0 0 1.385z"
        fill="#0c6bc2" transform="translate(-3635.207 -945.682)" />
</svg>