<svg height="85.847" viewBox="0 0 56.339 85.847" width="56.339" xmlns="http://www.w3.org/2000/svg">
    <circle cx="27.555" cy="73.687" fill="#caf4ff" r="11.25" />
    <path
        d="m2942.358 1571.456a12.16 12.16 0 1 1 12.161-12.16 12.174 12.174 0 0 1 -12.161 12.16zm0-22.5a10.339 10.339 0 1 0 10.342 10.344 10.351 10.351 0 0 0 -10.342-10.343z"
        fill="#0c6bc2" transform="translate(-2914.804 -1485.609)" />
    <path
        d="m2967.778 1587.551a2.162 2.162 0 0 0 -1.318-.975c-1.112-.282-2.892-.5-3.889-.786a1.239 1.239 0 0 1 -.9-1.191v-.945a.417.417 0 0 1 .159-.322 4.81 4.81 0 0 0 1.341-1.981 2.468 2.468 0 0 0 .136-.489.557.557 0 0 0 .559-.446 17.532 17.532 0 0 0 .376-2.043c0-.6-.221-.749-.486-.592a3.636 3.636 0 0 0 .135-.928 4.252 4.252 0 0 0 -4.488-4.458 4.308 4.308 0 0 0 -4.488 4.458 3.365 3.365 0 0 0 .135.928c-.265-.156-.486-.012-.486.592a17.713 17.713 0 0 0 .375 2.043.558.558 0 0 0 .56.446q.013.092.031.183a4.01 4.01 0 0 0 1.292 2.286.422.422 0 0 1 .166.328v.939a1.235 1.235 0 0 1 -.888 1.189c-1 .288-2.524.587-3.639.871a2.165 2.165 0 0 0 -1.2.8 9.872 9.872 0 0 0 7.844 3.738 12.85 12.85 0 0 0 8.673-3.645z"
        fill="#fff" transform="translate(-2932.037 -1506.273)" />
    <path
        d="m2955.013 1588.015a10.727 10.727 0 0 1 -8.592-4.129.91.91 0 0 1 .018-1.064 3.086 3.086 0 0 1 1.707-1.139c.476-.121 1.028-.245 1.561-.366.734-.165 1.494-.336 2.05-.5a.326.326 0 0 0 .23-.314v-.708a4.912 4.912 0 0 1 -1.364-2.335 1.392 1.392 0 0 1 -.673-1 11.8 11.8 0 0 0 -.245-1.2 3.531 3.531 0 0 1 -.142-.987 1.716 1.716 0 0 1 .366-1.181c-.009-.1-.014-.216-.015-.334a5.23 5.23 0 0 1 1.49-3.815 5.725 5.725 0 0 1 7.882.025 5.137 5.137 0 0 1 1.426 3.8q0 .16-.017.317a1.713 1.713 0 0 1 .369 1.184 3.53 3.53 0 0 1 -.142.987 11.792 11.792 0 0 0 -.245 1.2 1.394 1.394 0 0 1 -.707 1.017c-.011.031-.023.063-.035.095a5.864 5.864 0 0 1 -1.442 2.214v.714a.33.33 0 0 0 .237.316c.485.139 1.227.271 1.944.4.671.119 1.364.241 1.917.382a3.053 3.053 0 0 1 1.872 1.385.91.91 0 0 1 -.115 1.095 13.685 13.685 0 0 1 -9.335 3.941zm-6.547-4.528a9.037 9.037 0 0 0 6.547 2.707 11.876 11.876 0 0 0 7.335-2.757 1.305 1.305 0 0 0 -.207-.072c-.488-.124-1.147-.24-1.786-.353-.764-.135-1.554-.275-2.132-.441a2.159 2.159 0 0 1 -1.553-2.066v-.945a1.326 1.326 0 0 1 .491-1.025 3.918 3.918 0 0 0 1.067-1.6 1.523 1.523 0 0 0 .087-.3.911.911 0 0 1 .606-.73c.092-.534.173-.85.233-1.09a3.111 3.111 0 0 0 .074-.332.9.9 0 0 1 -.121-.079.911.911 0 0 1 -.319-.97 2.774 2.774 0 0 0 .1-.7 3.358 3.358 0 0 0 -.906-2.491 3.68 3.68 0 0 0 -2.671-1.037 3.64 3.64 0 0 0 -2.617 1.022 3.448 3.448 0 0 0 -.96 2.52 2.454 2.454 0 0 0 .1.684.91.91 0 0 1 -.439 1.049 3.025 3.025 0 0 0 .074.332c.061.24.141.556.234 1.09a.91.91 0 0 1 .606.731c.007.046.015.093.024.139a3.112 3.112 0 0 0 .969 1.751 1.328 1.328 0 0 1 .506 1.038v.939a2.155 2.155 0 0 1 -1.546 2.064c-.609.176-1.4.353-2.156.525-.521.118-1.061.239-1.512.354a1.221 1.221 0 0 0 -.128.043z"
        fill="#0c6bc2" transform="translate(-2927.942 -1502.179)" />
    <path d="m10.311 19.164-.014-7.05" fill="#fff" />
    <path
        d="m2898.094 1279.369a.911.911 0 0 1 -.91-.909l-.014-7.05a.911.911 0 0 1 .909-.912.91.91 0 0 1 .91.909l.014 7.05a.911.911 0 0 1 -.909.912z"
        fill="#0c6bc2" transform="translate(-2887.784 -1259.295)" />
    <circle cx="10.514" cy="10.178" fill="#64bdfa" r="2.631" />
    <path
        d="m2887.447 1252.479a3.542 3.542 0 1 1 3.542-3.542 3.546 3.546 0 0 1 -3.542 3.542zm0-5.263a1.721 1.721 0 1 0 1.721 1.721 1.722 1.722 0 0 0 -1.721-1.721z"
        fill="#0c6bc2" transform="translate(-2876.932 -1238.759)" />
    <path d="m22.061 6.003v12.69" fill="#fff" />
    <path
        d="m2962.748 1251.422a.911.911 0 0 1 -.911-.911v-12.689a.911.911 0 1 1 1.821 0v12.689a.91.91 0 0 1 -.91.911z"
        fill="#0c6bc2" transform="translate(-2940.687 -1231.819)" />
    <circle cx="22.245" cy="3.541" fill="#64bdfa" r="2.631" />
    <path
        d="m2951.935 1216a3.542 3.542 0 1 1 3.542-3.542 3.546 3.546 0 0 1 -3.542 3.542zm0-5.263a1.721 1.721 0 1 0 1.721 1.721 1.723 1.723 0 0 0 -1.721-1.723z"
        fill="#0c6bc2" transform="translate(-2929.689 -1208.914)" />
    <path d="m33.34 9.764v9.4" fill="#fff" />
    <path
        d="m3024.753 1268.8a.911.911 0 0 1 -.911-.911v-9.4a.911.911 0 0 1 1.822 0v9.4a.911.911 0 0 1 -.911.911z"
        fill="#0c6bc2" transform="translate(-2991.414 -1248.727)" />
    <circle cx="33.212" cy="7.032" fill="#64bdfa" r="2.631" />
    <path
        d="m3012.226 1235.182a3.542 3.542 0 1 1 3.542-3.542 3.546 3.546 0 0 1 -3.542 3.542zm0-5.263a1.721 1.721 0 1 0 1.72 1.721 1.723 1.723 0 0 0 -1.72-1.721z"
        fill="#0c6bc2" transform="translate(-2979.013 -1224.608)" />
    <path d="m44.619 16.343-.008 2.35" fill="#fff" />
    <path
        d="m3086.715 1297.921a.91.91 0 0 1 -.907-.914l.008-2.35a.91.91 0 0 1 .91-.907.91.91 0 0 1 .907.914l-.008 2.35a.91.91 0 0 1 -.91.907z"
        fill="#0c6bc2" transform="translate(-3042.104 -1278.318)" />
    <circle cx="44.709" cy="14.132" fill="#64bdfa" r="2.631" />
    <path
        d="m3075.417 1274.215a3.542 3.542 0 1 1 3.542-3.542 3.546 3.546 0 0 1 -3.542 3.542zm0-5.263a1.721 1.721 0 1 0 1.721 1.721 1.723 1.723 0 0 0 -1.721-1.721z"
        fill="#0c6bc2" transform="translate(-3030.708 -1256.541)" />
    <path
        d="m2869.3 1351.58 5.38 13.657a.381.381 0 0 0 .354.24h5.171a.38.38 0 0 0 .347-.226l6.058-13.672 18.485-17.121v-4.7h-54.519v4.7z"
        fill="#fff" transform="translate(-2849.671 -1307.775)" />
    <path
        d="m2876.114 1362.293h-5.171a1.283 1.283 0 0 1 -1.2-.818l-5.3-13.461-18.567-16.979a.911.911 0 0 1 -.3-.672v-4.7a.911.911 0 0 1 .911-.911h54.513a.911.911 0 0 1 .911.911v4.7a.91.91 0 0 1 -.292.668l-18.347 16.993-5.982 13.5a1.291 1.291 0 0 1 -1.176.769zm-4.81-1.821h4.465l5.918-13.356a.911.911 0 0 1 .214-.3l18.193-16.851v-3.392h-52.7v3.388l18.427 16.85a.913.913 0 0 1 .233.338z"
        fill="#0c6bc2" transform="translate(-2845.576 -1303.68)" />
    <path d="m21.59 26.683 33.369-.004" fill="#fff" />
    <path d="m2960.164 1352.392a.911.911 0 0 1 0-1.821h33.369a.911.911 0 1 1 0 1.821z"
        fill="#0c6bc2" transform="translate(-2938.574 -1324.799)" />
    <path d="m.911 26.683 11.28-.001" fill="#fff" />
    <path d="m2846.487 1352.4a.911.911 0 1 1 0-1.821h11.28a.911.911 0 1 1 0 1.821z" fill="#0c6bc2"
        transform="translate(-2845.576 -1324.811)" />
    <path d="m33.34 44.073h3.29" fill="#fff" />
    <path d="m3028.043 1448h-3.29a.911.911 0 1 1 0-1.821h3.29a.911.911 0 1 1 0 1.821z"
        fill="#0c6bc2" transform="translate(-2991.414 -1403.02)" />
    <path d="m19.71 44.073h8.93" fill="#fff" />
    <path d="m2958.759 1448h-8.93a.911.911 0 1 1 0-1.821h8.93a.911.911 0 0 1 0 1.821z"
        fill="#0c6bc2" transform="translate(-2930.12 -1403.02)" />
</svg>