<svg xmlns="http://www.w3.org/2000/svg" width="18.535" height="17.158" viewBox="0 0 18.535 17.158">
  <path id="Path_472" data-name="Path 472" d="M2.256,9.723a8.142,8.142,0,0,0,1.04,3.9,15.4,15.4,0,0,0,2.949,3.76,29.647,29.647,0,0,0,4.487,3.491,3.121,3.121,0,0,0,.41.225.94.94,0,0,0,.381.1.908.908,0,0,0,.376-.1,3.284,3.284,0,0,0,.405-.225A29.218,29.218,0,0,0,16.8,17.384a15.56,15.56,0,0,0,2.949-3.76,8.112,8.112,0,0,0,1.045-3.9,6.257,6.257,0,0,0-.405-2.29,5.473,5.473,0,0,0-1.128-1.8,5.052,5.052,0,0,0-1.689-1.177,5.266,5.266,0,0,0-2.1-.415,4.7,4.7,0,0,0-2.314.562A4.614,4.614,0,0,0,11.523,6.08,4.675,4.675,0,0,0,7.568,4.039a5.266,5.266,0,0,0-2.1.415A5.052,5.052,0,0,0,3.779,5.631a5.408,5.408,0,0,0-1.123,1.8A6.325,6.325,0,0,0,2.256,9.723Zm1.709,0a4.373,4.373,0,0,1,.479-2.095,3.574,3.574,0,0,1,1.3-1.4,3.521,3.521,0,0,1,1.87-.5,3.364,3.364,0,0,1,1.47.3,3.578,3.578,0,0,1,1.05.747,7.228,7.228,0,0,1,.732.889,1.536,1.536,0,0,0,.332.391.533.533,0,0,0,.322.107.492.492,0,0,0,.313-.107,1.855,1.855,0,0,0,.332-.391,8.244,8.244,0,0,1,.757-.884,3.844,3.844,0,0,1,1.04-.747,3.223,3.223,0,0,1,1.455-.3,3.5,3.5,0,0,1,3.184,1.9,4.373,4.373,0,0,1,.479,2.095,5.948,5.948,0,0,1-.6,2.534,11.784,11.784,0,0,1-1.636,2.529,20.156,20.156,0,0,1-2.363,2.388A29.3,29.3,0,0,1,11.7,19.293a.5.5,0,0,1-.176.088.5.5,0,0,1-.176-.088A28.174,28.174,0,0,1,8.56,17.174,20.356,20.356,0,0,1,6.2,14.786a11.784,11.784,0,0,1-1.636-2.529A5.948,5.948,0,0,1,3.965,9.723Z" transform="translate(-2.256 -4.039)" fill="#707070"/>
</svg>
