<svg height="26" viewBox="0 0 26 26" width="26" xmlns="http://www.w3.org/2000/svg">
    <g fill="#fff" transform="translate(-102 -37)">
        <path
            d="m124.176 37h-18.352a3.828 3.828 0 0 0 -3.824 3.824v18.352a3.828 3.828 0 0 0 3.824 3.824h18.353a3.828 3.828 0 0 0 3.823-3.824v-18.352a3.828 3.828 0 0 0 -3.824-3.824zm-18.353 1.529h18.353a2.3 2.3 0 0 1 2.294 2.294v13.662l-3.823-3.185-4.567 3.8-8.487-7.716-6.063 6.737v-13.3a2.3 2.3 0 0 1 2.294-2.292zm18.353 22.941h-18.352a2.3 2.3 0 0 1 -2.294-2.294v-2.765l6.172-6.858 8.336 7.578 4.61-3.842 3.824 3.186v2.7a2.3 2.3 0 0 1 -2.296 2.296z" />
        <path
            d="m124.824 49.647a3.824 3.824 0 1 0 -3.824-3.823 3.828 3.828 0 0 0 3.824 3.823zm0-6.118a2.294 2.294 0 1 1 -2.294 2.294 2.3 2.3 0 0 1 2.294-2.294z"
            transform="translate(-4.471 -1.176)" />
    </g>
</svg>