<svg height="33.992" viewBox="0 0 33.992 33.992" width="33.992" xmlns="http://www.w3.org/2000/svg"><g transform="translate(51.559 -868.705)"><circle cx="-34.563" cy="885.701" fill="#5e5e5e" r="16.996"/><g fill="#fff"><path d="m-31.845 893.923h-5.7a4.968 4.968 0 0 1 -4.962-4.962v-6.14a4.967 4.967 0 0 1 4.962-4.961h5.7a4.967 4.967 0 0 1 4.962 4.961v6.14a4.968 4.968 0 0 1 -4.962 4.962zm-5.7-14.863a3.765 3.765 0 0 0 -3.761 3.761v6.14a3.765 3.765 0 0 0 3.761 3.761h5.7a3.765 3.765 0 0 0 3.761-3.761v-6.14a3.765 3.765 0 0 0 -3.761-3.761z"/><path d="m-34.667 890.115a4.255 4.255 0 0 1 -4.25-4.25 4.255 4.255 0 0 1 4.25-4.25 4.254 4.254 0 0 1 4.25 4.25 4.255 4.255 0 0 1 -4.25 4.25zm0-7.3a3.053 3.053 0 0 0 -3.049 3.05 3.053 3.053 0 0 0 3.049 3.049 3.053 3.053 0 0 0 3.05-3.049 3.053 3.053 0 0 0 -3.05-3.05z"/><circle cx="-30.301" cy="881.476" r="1.014"/></g></g></svg>