<svg height="35.444" viewBox="0 0 41.894 35.444" width="41.894" xmlns="http://www.w3.org/2000/svg">
    <path d="m3670.287 528.877 7.539-13.1h26l7.54 13.1" fill="#64bdfa"
        transform="translate(-3669.879 -515.365)" />
    <path
        d="m3665.689 524.687a.408.408 0 0 1 -.353-.611l7.539-13.1a.408.408 0 0 1 .354-.2h26a.407.407 0 0 1 .353.2l7.54 13.1a.407.407 0 1 1 -.706.406l-7.422-12.9h-25.529l-7.421 12.9a.407.407 0 0 1 -.355.205z"
        fill="#0c6bc2" transform="translate(-3665.281 -510.767)" />
    <path d="m3731.845 591.568-9.284-7.548-9.284 7.548h-8.443v16.845h35.453v-16.845z" fill="#fff"
        transform="translate(-3701.614 -578.054)" />
    <path
        d="m3735.689 604.222h-35.453a.407.407 0 0 1 -.407-.407v-16.845a.407.407 0 0 1 .407-.408h8.3l9.171-7.457a.407.407 0 0 1 .514 0l9.172 7.457h8.3a.407.407 0 0 1 .407.408v16.845a.407.407 0 0 1 -.411.407zm-35.045-.815h34.638v-16.03h-8.035a.407.407 0 0 1 -.257-.091l-9.027-7.339-9.027 7.339a.407.407 0 0 1 -.257.091h-8.035z"
        fill="#0c6bc2" transform="translate(-3697.016 -573.457)" />
    <circle cx="3.393" cy="3.393" fill="#caf4ff" r="3.393"
        transform="matrix(.92387953 -.38268343 .38268343 .92387953 16.514 12.223)" />
    <path
        d="m3879.69 644.364a3.8 3.8 0 1 1 3.8-3.8 3.8 3.8 0 0 1 -3.8 3.8zm0-6.785a2.985 2.985 0 1 0 2.985 2.985 2.989 2.989 0 0 0 -2.985-2.985z"
        fill="#0c6bc2" transform="translate(-3858.743 -626.505)" />
    <path
        d="m3.524 0a3.524 3.524 0 0 1 3.524 3.524v5.347a0 0 0 0 1 0 0h-7.048a0 0 0 0 1 0 0v-5.347a3.524 3.524 0 0 1 3.524-3.524z"
        fill="#caf4ff" transform="translate(17.422 21.487)" />
    <path
        d="m3881.731 779.361h-7.048a.408.408 0 0 1 -.408-.408v-5.347a3.932 3.932 0 0 1 7.863 0v5.347a.408.408 0 0 1 -.407.408zm-6.641-.815h6.233v-4.939a3.117 3.117 0 0 0 -6.233 0z"
        fill="#0c6bc2" transform="translate(-3857.261 -748.596)" />
    <path d="m5.512 23.963h3.537v3.919h-3.537z" fill="#fff" />
    <path
        d="m3731.932 804.817h-3.537a.408.408 0 0 1 -.408-.407v-3.919a.408.408 0 0 1 .408-.408h3.537a.408.408 0 0 1 .408.408v3.919a.408.408 0 0 1 -.408.407zm-3.132-.817h2.722v-3.1h-2.722z"
        fill="#0c6bc2" transform="translate(-3722.882 -776.528)" />
    <path d="m11.282 23.963h3.537v3.919h-3.537z" fill="#fff" />
    <path
        d="m3802.784 804.817h-3.538a.408.408 0 0 1 -.408-.407v-3.919a.408.408 0 0 1 .408-.408h3.538a.407.407 0 0 1 .407.408v3.919a.407.407 0 0 1 -.407.407zm-3.13-.815h2.723v-3.1h-2.723z"
        fill="#0c6bc2" transform="translate(-3787.965 -776.528)" />
    <path d="m5.512 16.607h3.537v3.919h-3.537z" fill="#fff" />
    <path
        d="m3731.932 714.462h-3.537a.408.408 0 0 1 -.408-.407v-3.919a.408.408 0 0 1 .408-.407h3.537a.408.408 0 0 1 .408.407v3.919a.408.408 0 0 1 -.408.407zm-3.13-.815h2.722v-3.1h-2.724z"
        fill="#0c6bc2" transform="translate(-3722.882 -693.529)" />
    <path d="m11.282 16.607h3.537v3.919h-3.537z" fill="#fff" />
    <path
        d="m3802.784 714.462h-3.538a.408.408 0 0 1 -.408-.407v-3.919a.408.408 0 0 1 .408-.407h3.538a.407.407 0 0 1 .407.407v3.919a.407.407 0 0 1 -.407.407zm-3.13-.815h2.723v-3.1h-2.723z"
        fill="#0c6bc2" transform="translate(-3787.965 -693.529)" />
    <path d="m26.857 23.963h3.537v3.919h-3.537z" fill="#fff" />
    <path
        d="m3994.11 804.817h-3.537a.407.407 0 0 1 -.407-.407v-3.919a.407.407 0 0 1 .407-.408h3.537a.407.407 0 0 1 .408.408v3.919a.407.407 0 0 1 -.408.407zm-3.13-.817h2.722v-3.1h-2.722z"
        fill="#0c6bc2" transform="translate(-3963.715 -776.528)" />
    <path d="m1.855 30.357h38.184v2.34h-38.184z" fill="#fff" />
    <path
        d="m3721.647 881.787h-38.184a.408.408 0 0 1 -.408-.408v-2.34a.408.408 0 0 1 .408-.407h38.184a.407.407 0 0 1 .408.407v2.34a.408.408 0 0 1 -.408.408zm-37.777-.815h37.369v-1.525h-37.369z"
        fill="#0c6bc2" transform="translate(-3681.609 -848.682)" />
    <path d="m.407 32.697h41.078v2.34h-41.078z" fill="#caf4ff" />
    <path
        d="m3706.768 910.522h-41.079a.407.407 0 0 1 -.407-.408v-2.339a.408.408 0 0 1 .407-.408h41.079a.407.407 0 0 1 .407.408v2.339a.407.407 0 0 1 -.407.408zm-40.671-.815h40.263v-1.524h-40.26z"
        fill="#0c6bc2" transform="translate(-3665.282 -875.078)" />
    <path d="m32.626 23.963h3.537v3.919h-3.537z" fill="#fff" />
    <path
        d="m4064.962 804.817h-3.537a.407.407 0 0 1 -.407-.407v-3.919a.407.407 0 0 1 .407-.408h3.537a.408.408 0 0 1 .408.408v3.919a.408.408 0 0 1 -.408.407zm-3.13-.815h2.723v-3.1h-2.723z"
        fill="#0c6bc2" transform="translate(-4028.799 -776.528)" />
    <path d="m26.857 16.607h3.537v3.919h-3.537z" fill="#fff" />
    <path
        d="m3994.11 714.462h-3.537a.407.407 0 0 1 -.407-.407v-3.919a.407.407 0 0 1 .407-.407h3.537a.407.407 0 0 1 .408.407v3.919a.407.407 0 0 1 -.408.407zm-3.129-.815h2.722v-3.1h-2.722z"
        fill="#0c6bc2" transform="translate(-3963.715 -693.529)" />
    <path d="m32.626 16.607h3.537v3.919h-3.537z" fill="#fff" />
    <path
        d="m4064.962 714.462h-3.537a.407.407 0 0 1 -.407-.407v-3.919a.407.407 0 0 1 .407-.407h3.537a.408.408 0 0 1 .408.407v3.919a.408.408 0 0 1 -.408.407zm-3.13-.815h2.723v-3.1h-2.723z"
        fill="#0c6bc2" transform="translate(-4028.799 -693.529)" />
    <path d="m20.946 12.326v1.99" fill="#fff" />
    <path
        d="m3917.967 659.956a.407.407 0 0 1 -.407-.408v-1.99a.407.407 0 1 1 .815 0v1.99a.408.408 0 0 1 -.408.408z"
        fill="#0c6bc2" transform="translate(-3897.021 -645.233)" />
    <path d="m20.947 14.316 1.297-.623" fill="#fff" />
    <path
        d="m3917.966 675.378a.408.408 0 0 1 -.177-.775l1.3-.623a.407.407 0 1 1 .353.735l-1.3.623a.4.4 0 0 1 -.176.04z"
        fill="#0c6bc2" transform="translate(-3897.019 -660.654)" />
    <path d="m41.486 13.512h-2.813" fill="#fff" />
    <path d="m4138.511 672.543h-2.811a.407.407 0 0 1 0-.815h2.813a.407.407 0 0 1 0 .815z"
        fill="#0c6bc2" transform="translate(-4097.024 -658.623)" />
    <path
        d="m3758.286 550.15a.408.408 0 0 1 -.261-.72l13-10.848a.408.408 0 0 1 .522 0l13 10.847a.408.408 0 1 1 -.522.626l-12.739-10.629-12.739 10.63a.407.407 0 0 1 -.261.094z"
        fill="#0c6bc2" transform="translate(-3750.339 -536.23)" />
    <path d="m3.22 13.512h-2.813" fill="#fff" />
    <path d="m3668.5 672.543h-2.813a.407.407 0 1 1 0-.815h2.813a.407.407 0 1 1 0 .815z"
        fill="#0c6bc2" transform="translate(-3665.282 -658.623)" />
</svg>