<svg height="47.017" viewBox="0 0 40.133 47.017" width="40.133" xmlns="http://www.w3.org/2000/svg">
    <path
        d="m6358.13 804.371h-1.968c-2.213 0-3.968-1.959-5.147-4.411a18.413 18.413 0 0 1 -1.673-7.845l-.009-2.86c0-5.111 2.171-6.955 4.727-7.656a14.693 14.693 0 0 1 6.126 0c2.479.648 4.65 2.166 4.734 7.563l.023 3.094a19.617 19.617 0 0 1 -.886 6.136c-1.017 3.155-2.913 6.014-5.927 5.979z"
        fill="#fff" transform="translate(-6342.301 -762.295)" />
    <path
        d="m6353.022 799.6h-2.022c-2.12 0-4.082-1.651-5.523-4.647a18.741 18.741 0 0 1 -1.714-8.024l-.008-2.86c0-4.493 1.644-7.129 5.032-8.059a15.011 15.011 0 0 1 6.343 0 6.031 6.031 0 0 1 3.491 2.152 9.675 9.675 0 0 1 1.554 5.808l.023 3.1a19.893 19.893 0 0 1 -.906 6.267c-1.307 4.036-3.531 6.263-6.27 6.263zm-1.139-23.1a11.559 11.559 0 0 0 -2.877.31c-1.9.521-4.424 1.84-4.42 7.254l.007 2.859a17.921 17.921 0 0 0 1.632 7.665c1.747 3.633 3.74 4.175 4.772 4.175h2.023c3.167 0 4.79-3.56 5.476-5.69a19.059 19.059 0 0 0 .866-6l-.024-3.094a8.9 8.9 0 0 0 -1.384-5.314 5.179 5.179 0 0 0 -3.039-1.85 13.068 13.068 0 0 0 -3.031-.315z"
        fill="#0c6bc2" transform="translate(-6337.138 -757.104)" />
    <path
        d="m6413.739 1054.839a3.405 3.405 0 0 1 -3.386-2.84v-3.475c0-.813 1.516-1.473 3.386-1.473s3.384.659 3.384 1.473v3.476a3.414 3.414 0 0 1 -3.384 2.839z"
        fill="#64bdfa" transform="translate(-6398.769 -1008.239)" />
    <path
        d="m6408.575 1050.091a3.8 3.8 0 0 1 -3.8-3.214c0-.014 0-.028 0-.042v-3.475c0-1.077 1.634-1.889 3.8-1.889s3.8.812 3.8 1.889v3.475.019a3.806 3.806 0 0 1 -3.8 3.237zm-2.969-3.278a2.992 2.992 0 0 0 2.969 2.445c1.291 0 2.9-1.084 2.968-2.433v-3.465c0-.431-1.156-1.056-2.968-1.056s-2.969.625-2.969 1.056z"
        fill="#0c6bc2" transform="translate(-6393.604 -1003.074)" />
    <path d="m6263.819 971.6a1.526 1.526 0 0 1 -.125-2.37" fill="#fff"
        transform="translate(-6262.585 -936.219)" />
    <path
        d="m6258.638 966.846a.415.415 0 0 1 -.3-.128 1.926 1.926 0 0 1 -.143-2.928.416.416 0 1 1 .635.538c-.572.676-.544 1.133.107 1.813a.416.416 0 0 1 -.3.7z"
        fill="#0c6bc2" transform="translate(-6257.403 -931.054)" />
    <path d="m6293.432 971.265a1.54 1.54 0 0 0 .169-2.374" fill="#fff"
        transform="translate(-6290.573 -935.91)" />
    <path
        d="m6288.267 966.517a.416.416 0 0 1 -.289-.716 1.143 1.143 0 0 0 .127-1.822.417.417 0 0 1 .663-.5 1.946 1.946 0 0 1 -.212 2.926.415.415 0 0 1 -.289.112z"
        fill="#0c6bc2" transform="translate(-6285.408 -930.746)" />
    <path
        d="m6272.008 836.558c.18-6.013 2.178-9.055 4.635-9.254l-.189 1.841c-.946.338-2.523 1.708-2.789 7.381"
        fill="#fff" transform="translate(-6270.747 -804.889)" />
    <path
        d="m6266.844 831.81h-.013a.417.417 0 0 1 -.4-.429 15.922 15.922 0 0 1 1.513-6.993 4.486 4.486 0 0 1 3.5-2.664.416.416 0 0 1 .448.458l-.188 1.841a.418.418 0 0 1 -.275.35c-.83.3-2.259 1.6-2.512 7.008a.416.416 0 1 1 -.832-.039c.139-2.974.745-6.655 2.815-7.65l.107-1.05c-2.183.594-3.6 3.87-3.749 8.764a.416.416 0 0 1 -.414.404z"
        fill="#0c6bc2" transform="translate(-6265.583 -799.724)" />
    <path
        d="m6263.42 952.377-2.064-.015a.67.67 0 0 1 -.664-.684v-.014a.668.668 0 0 1 .673-.654l2.065.015a.669.669 0 0 1 .664.69v.014a.669.669 0 0 1 -.674.648z"
        fill="#fff" transform="translate(-6260.275 -919.364)" />
    <path
        d="m6258.261 947.629h-.008l-2.065-.015a1.084 1.084 0 0 1 -1.077-1.11v-.013a1.091 1.091 0 0 1 1.093-1.061l2.064.015a1.085 1.085 0 0 1 1.077 1.119v.014a1.079 1.079 0 0 1 -1.084 1.051zm0-.833a.251.251 0 0 0 .252-.244v-.014a.253.253 0 0 0 -.251-.26l-2.064-.015a.253.253 0 0 0 -.252.247v.013a.253.253 0 0 0 .25.259z"
        fill="#0c6bc2" transform="translate(-6255.111 -914.2)" />
    <path d="m6624.118 971.64a1.526 1.526 0 0 0 .251-2.36" fill="#fff"
        transform="translate(-6596.582 -936.271)" />
    <path
        d="m6618.953 966.891a.416.416 0 0 1 -.285-.721c.688-.644.739-1.1.2-1.8a.416.416 0 1 1 .663-.5 1.927 1.927 0 0 1 -.3 2.916.413.413 0 0 1 -.278.105z"
        fill="#0c6bc2" transform="translate(-6591.417 -931.105)" />
    <path d="m6595.142 969.959a1.541 1.541 0 0 1 -.044-2.38" fill="#fff"
        transform="translate(-6569.228 -934.696)" />
    <path
        d="m6589.982 965.21a.415.415 0 0 1 -.3-.133 1.945 1.945 0 0 1 -.057-2.933.417.417 0 1 1 .635.539 1.143 1.143 0 0 0 .03 1.826.417.417 0 0 1 -.3.7z"
        fill="#0c6bc2" transform="translate(-6564.067 -929.532)" />
    <path
        d="m6575.1 833.637c.14-6.014-1.694-9.158-4.137-9.487l.091 1.848c.927.388 2.429 1.84 2.392 7.519"
        fill="#fff" transform="translate(-6547.394 -801.971)" />
    <path
        d="m6569.936 828.889h-.009a.416.416 0 0 1 -.407-.426c.114-4.894-1.13-8.241-3.277-8.95l.051 1.054c2.015 1.1 2.424 4.812 2.4 7.788a.416.416 0 0 1 -.417.414.416.416 0 0 1 -.414-.419c.035-5.413-1.324-6.792-2.136-7.132a.415.415 0 0 1 -.255-.364l-.091-1.848a.416.416 0 0 1 .471-.433 4.484 4.484 0 0 1 3.358 2.847 15.927 15.927 0 0 1 1.14 7.063.416.416 0 0 1 -.414.406z"
        fill="#0c6bc2" transform="translate(-6542.229 -796.805)" />
    <path
        d="m6592.321 951.177 2.063.095a.669.669 0 0 0 .7-.648v-.013a.669.669 0 0 0 -.638-.689l-2.063-.095a.669.669 0 0 0 -.7.654v.013a.669.669 0 0 0 .638.683z"
        fill="#fff" transform="translate(-6566.568 -918.269)" />
    <path
        d="m6589.25 946.523h-.051l-2.062-.095a1.079 1.079 0 0 1 -1.036-1.108v-.013a1.087 1.087 0 0 1 1.135-1.061l2.063.095a1.09 1.09 0 0 1 1.035 1.117v.014a1.085 1.085 0 0 1 -1.083 1.051zm-2.075-.928 2.063.095a.249.249 0 0 0 .183-.067.252.252 0 0 0 .081-.177v-.014a.254.254 0 0 0 -.241-.259l-2.062-.095a.25.25 0 0 0 -.184.068.247.247 0 0 0 -.08.179v.013a.251.251 0 0 0 .241.258z"
        fill="#0c6bc2" transform="translate(-6561.402 -913.103)" />
    <path
        d="m6332.673 809.387h2.866v-5.587h-2.092a1.814 1.814 0 0 0 -1.852 1.773v2.483a1.227 1.227 0 0 0 1.078 1.331z"
        fill="#64bdfa" transform="translate(-6325.887 -783.135)" />
    <path
        d="m6330.373 804.639h-2.865a1.64 1.64 0 0 1 -1.495-1.751v-2.488a2.233 2.233 0 0 1 2.269-2.19h2.091a.416.416 0 0 1 .417.417v5.591a.417.417 0 0 1 -.417.421zm-2.091-5.591a1.4 1.4 0 0 0 -1.436 1.357v2.483c0 .5.3.918.662.918h2.449v-4.758z"
        fill="#0c6bc2" transform="translate(-6320.722 -777.97)" />
    <path
        d="m6525.4 809.387h-2.866v-5.587h2.091a1.814 1.814 0 0 1 1.852 1.773v2.483a1.227 1.227 0 0 1 -1.077 1.331z"
        fill="#64bdfa" transform="translate(-6502.577 -783.135)" />
    <path
        d="m6520.234 804.639h-2.866a.416.416 0 0 1 -.416-.417v-5.591a.416.416 0 0 1 .416-.417h2.092a2.233 2.233 0 0 1 2.269 2.19v2.483a1.64 1.64 0 0 1 -1.495 1.752zm-2.449-.833h2.449c.358 0 .661-.421.661-.918v-2.488a1.4 1.4 0 0 0 -1.436-1.357h-1.675z"
        fill="#0c6bc2" transform="translate(-6497.413 -777.97)" />
    <path
        d="m6396.341 864.289a2.778 2.778 0 0 1 -2.646 2.894h-4.9a2.778 2.778 0 0 1 -2.646-2.894 2.778 2.778 0 0 1 2.646-2.894h4.9a2.778 2.778 0 0 1 2.646 2.894z"
        fill="#fff" transform="translate(-6376.369 -836.436)" />
    <g fill="#0c6bc2">
        <path
            d="m6388.529 862.435h-4.9a3.321 3.321 0 0 1 0-6.621h4.9a3.321 3.321 0 0 1 0 6.621zm-4.9-5.788a2.491 2.491 0 0 0 0 4.955h4.9a2.491 2.491 0 0 0 0-4.955z"
            transform="translate(-6371.204 -831.271)" />
        <path
            d="m6406.274 895.435a.437.437 0 0 1 -.082-.008.42.42 0 0 1 -.078-.024.406.406 0 0 1 -.071-.038.476.476 0 0 1 -.063-.052.452.452 0 0 1 -.052-.063.386.386 0 0 1 -.038-.072.412.412 0 0 1 -.024-.078.461.461 0 0 1 -.008-.081.452.452 0 0 1 .008-.081.442.442 0 0 1 .024-.078.406.406 0 0 1 .038-.072.363.363 0 0 1 .052-.063.374.374 0 0 1 .063-.052.407.407 0 0 1 .071-.038.43.43 0 0 1 .078-.024.416.416 0 0 1 .5.408.384.384 0 0 1 -.008.081.43.43 0 0 1 -.024.078.386.386 0 0 1 -.038.072.459.459 0 0 1 -.053.063.42.42 0 0 1 -.295.122z"
            transform="translate(-6394.608 -867.165)" />
        <path
            d="m6427.775 895.435a.365.365 0 0 1 -.082-.008.408.408 0 0 1 -.079-.024.423.423 0 0 1 -.135-.089.417.417 0 0 1 -.051-.063.317.317 0 0 1 -.039-.072.412.412 0 0 1 -.024-.078.461.461 0 0 1 -.008-.081.419.419 0 0 1 .122-.295.414.414 0 0 1 .063-.052.425.425 0 0 1 .071-.038.416.416 0 0 1 .568.466.411.411 0 0 1 -.024.078.453.453 0 0 1 -.038.072.459.459 0 0 1 -.053.063.416.416 0 0 1 -.291.121z"
            transform="translate(-6414.504 -867.165)" />
        <path
            d="m6449.285 895.43a.436.436 0 0 1 -.082-.008.4.4 0 0 1 -.078-.024.439.439 0 0 1 -.072-.038.41.41 0 0 1 -.063-.052.4.4 0 0 1 -.052-.063.466.466 0 0 1 -.038-.072.44.44 0 0 1 -.032-.159.418.418 0 0 1 .123-.295.413.413 0 0 1 .063-.052.434.434 0 0 1 .072-.038.4.4 0 0 1 .078-.024.4.4 0 0 1 .162 0 .4.4 0 0 1 .079.024.449.449 0 0 1 .072.038.443.443 0 0 1 .063.052.417.417 0 0 1 .051.063.412.412 0 0 1 .039.072.481.481 0 0 1 .023.078.452.452 0 0 1 .008.081.46.46 0 0 1 -.008.081.454.454 0 0 1 -.023.078.4.4 0 0 1 -.039.072.422.422 0 0 1 -.051.063.438.438 0 0 1 -.063.052.454.454 0 0 1 -.072.038.4.4 0 0 1 -.079.024.434.434 0 0 1 -.081.009z"
            transform="translate(-6434.409 -867.161)" />
        <path
            d="m6470.794 895.43a.426.426 0 0 1 -.081-.008.437.437 0 0 1 -.15-.062.458.458 0 0 1 -.062-.052.35.35 0 0 1 -.052-.063.36.36 0 0 1 -.038-.072.434.434 0 0 1 -.024-.078.427.427 0 0 1 0-.163.44.44 0 0 1 .024-.078.353.353 0 0 1 .038-.072.347.347 0 0 1 .052-.063.463.463 0 0 1 .063-.052.416.416 0 0 1 .072-.038.42.42 0 0 1 .078-.024.4.4 0 0 1 .163 0 .411.411 0 0 1 .077.024.454.454 0 0 1 .072.038.409.409 0 0 1 .063.052.459.459 0 0 1 .053.063.487.487 0 0 1 .038.072.37.37 0 0 1 .023.078.427.427 0 0 1 0 .163.365.365 0 0 1 -.023.078.5.5 0 0 1 -.038.072.465.465 0 0 1 -.053.063.406.406 0 0 1 -.062.052.459.459 0 0 1 -.072.038.411.411 0 0 1 -.077.024.445.445 0 0 1 -.084.008z"
            transform="translate(-6454.314 -867.161)" />
        <path
            d="m6492.294 895.43a.417.417 0 0 1 -.293-.122.429.429 0 0 1 -.052-.063.367.367 0 0 1 -.038-.072.353.353 0 0 1 -.024-.078.46.46 0 0 1 -.008-.081.418.418 0 0 1 .123-.295.409.409 0 0 1 .063-.052.439.439 0 0 1 .073-.038.422.422 0 0 1 .077-.024.4.4 0 0 1 .163 0 .414.414 0 0 1 .079.024.407.407 0 0 1 .071.038.421.421 0 0 1 .064.052.417.417 0 0 1 .051.063.412.412 0 0 1 .039.072.482.482 0 0 1 .024.078.412.412 0 0 1 .008.081.418.418 0 0 1 -.008.081.455.455 0 0 1 -.024.078.4.4 0 0 1 -.039.072.422.422 0 0 1 -.051.063.418.418 0 0 1 -.064.052.419.419 0 0 1 -.15.062.368.368 0 0 1 -.084.009z"
            transform="translate(-6474.21 -867.161)" />
    </g>
    <path
        d="m6429.219 718.745c-1.031 0-1.867-.592-1.867-1.322v-4.041c0-.73.836-1.322 1.867-1.322s1.869.592 1.869 1.322v4.041c0 .73-.836 1.322-1.869 1.322z"
        fill="#fff" transform="translate(-6414.499 -698.244)" />
    <path
        d="m6424.055 714c-1.281 0-2.284-.764-2.284-1.739v-4.041c0-.975 1-1.739 2.284-1.739s2.285.764 2.285 1.739v4.041c-.001.973-1.005 1.739-2.285 1.739zm0-6.685c-.787 0-1.452.415-1.452.906v4.041c0 .491.665.906 1.452.906s1.452-.415 1.452-.906v-4.041c0-.494-.665-.909-1.452-.909z"
        fill="#0c6bc2" transform="translate(-6409.334 -693.08)" />
    <path d="m10.219 2.289v5.628" fill="#fff" />
    <path
        d="m6386.9 558.465a.416.416 0 0 1 -.416-.417v-5.628a.417.417 0 1 1 .833 0v5.628a.417.417 0 0 1 -.417.417z"
        fill="#0c6bc2" transform="translate(-6376.683 -550.131)" />
    <ellipse cx="10.219" cy="7.707" fill="#fff" rx="1.499" ry="1.269" />
    <path
        d="m6368.307 610.98a1.7 1.7 0 1 1 1.916-1.685 1.814 1.814 0 0 1 -1.916 1.685zm0-2.537a.877.877 0 1 0 1.083.852.99.99 0 0 0 -1.083-.852z"
        fill="#0c6bc2" transform="translate(-6358.087 -601.588)" />
    <circle cx="10.22" cy="2.289" fill="#fff" r=".878" />
    <path
        d="m6376.016 542.829a1.294 1.294 0 1 1 1.294-1.294 1.3 1.3 0 0 1 -1.294 1.294zm0-1.756a.461.461 0 1 0 .461.461.462.462 0 0 0 -.461-.46z"
        fill="#0c6bc2" transform="translate(-6365.796 -539.246)" />
    <path d="m19.452 2.289v5.628" fill="#fff" />
    <path
        d="m6510.638 558.465a.416.416 0 0 1 -.416-.417v-5.628a.416.416 0 1 1 .833 0v5.628a.417.417 0 0 1 -.417.417z"
        fill="#0c6bc2" transform="translate(-6491.186 -550.131)" />
    <ellipse cx="19.452" cy="7.707" fill="#fff" rx="1.499" ry="1.269" />
    <path
        d="m6492.042 610.98a1.7 1.7 0 1 1 1.917-1.685 1.814 1.814 0 0 1 -1.917 1.685zm0-2.537a.877.877 0 1 0 1.083.852.99.99 0 0 0 -1.083-.852z"
        fill="#0c6bc2" transform="translate(-6472.589 -601.588)" />
    <circle cx="19.453" cy="2.289" fill="#fff" r=".878" />
    <path
        d="m6499.753 542.829a1.294 1.294 0 1 1 1.294-1.294 1.3 1.3 0 0 1 -1.294 1.294zm0-1.756a.461.461 0 1 0 .461.461.462.462 0 0 0 -.461-.46z"
        fill="#0c6bc2" transform="translate(-6480.3 -539.246)" />
    <path
        d="m6333.1 629.958h-11c-2.588 0-4.687 2.375-4.687 5.306s2.1 5.306 4.687 5.306h11c2.588 0 4.687-2.375 4.687-5.306s-2.099-5.306-4.687-5.306z"
        fill="#caf4ff" transform="translate(-6312.763 -622.268)" />
    <path
        d="m6328.451 636.3h-11c-2.791 0-5.062-2.548-5.062-5.68s2.271-5.68 5.062-5.68h11c2.791 0 5.062 2.548 5.062 5.68s-2.271 5.68-5.062 5.68zm-11-10.611c-2.377 0-4.312 2.212-4.312 4.931s1.935 4.931 4.312 4.931h11c2.377 0 4.312-2.212 4.312-4.931s-1.935-4.931-4.312-4.931z"
        fill="#0c6bc2" transform="translate(-6308.114 -617.62)" />
    <path
        d="m6357.062 656.283h-11.772c-1.457 0-2.4 1.5-2.4 3.341s.835 3.341 2.4 3.341h11.772c1.784 0 2.4-1.5 2.4-3.341s-.616-3.341-2.4-3.341z"
        fill="#fff" transform="translate(-6336.338 -646.629)" />
    <path
        d="m6351.9 658.217h-11.772c-1.685 0-2.816-1.51-2.816-3.758 0-2.177 1.185-3.758 2.816-3.758h11.772c1.052 0 2.817.488 2.817 3.758s-1.768 3.758-2.817 3.758zm-11.772-6.682c-1.3 0-1.983 1.471-1.983 2.925 0 1.349.52 2.925 1.983 2.925h11.772c1.317 0 1.984-.984 1.984-2.925s-.667-2.925-1.984-2.925z"
        fill="#0c6bc2" transform="translate(-6331.174 -641.464)" />
    <circle cx="1.029" cy="1.029" fill="#fff" r="1.029"
        transform="matrix(.70710678 -.70710678 .70710678 .70710678 8.815 12.543)" />
    <path
        d="m6374.816 678.526a1.446 1.446 0 1 1 1.445-1.446 1.447 1.447 0 0 1 -1.445 1.446zm0-2.058a.613.613 0 1 0 .613.613.613.613 0 0 0 -.613-.613z"
        fill="#0c6bc2" transform="translate(-6364.546 -664.537)" />
    <circle cx="1.029" cy="1.029" fill="#fff" r="1.029"
        transform="matrix(.92387953 -.38268343 .38268343 .92387953 18.176 11.987)" />
    <path
        d="m6498.782 678.526a1.446 1.446 0 1 1 1.444-1.446 1.447 1.447 0 0 1 -1.444 1.446zm0-2.058a.613.613 0 1 0 .612.613.613.613 0 0 0 -.612-.613z"
        fill="#0c6bc2" transform="translate(-6479.261 -664.537)" />
    <path d="m6435.5 714.255a1.448 1.448 0 0 0 1.55-1.317h-3.1a1.448 1.448 0 0 0 1.55 1.317z"
        fill="#fff" transform="translate(-6420.6 -699.056)" />
    <path
        d="m6430.331 709.506a1.863 1.863 0 0 1 -1.967-1.734.416.416 0 0 1 .416-.417h3.1a.417.417 0 0 1 .417.417 1.864 1.864 0 0 1 -1.966 1.734zm-1.005-1.317a1.286 1.286 0 0 0 2.011 0z"
        fill="#0c6bc2" transform="translate(-6415.436 -693.891)" />
    <path
        d="m6609.037 532.494h-9.273a2.448 2.448 0 0 0 -2.448 2.448v4.271c-.136 1.8.758 2.719 1.75 2.828a.229.229 0 0 1 .2.229v2.406a.353.353 0 0 0 .584.267l2.894-2.506a1.583 1.583 0 0 1 1.036-.386h5.252a2.448 2.448 0 0 0 2.448-2.448v-4.66a2.448 2.448 0 0 0 -2.443-2.449z"
        fill="#64bdfa" transform="translate(-6571.768 -532.078)" />
    <path
        d="m6594.462 540.281a.774.774 0 0 1 -.322-.071.761.761 0 0 1 -.45-.7v-2.246c-1.1-.207-2.095-1.26-1.953-3.232v-4.255a2.868 2.868 0 0 1 2.865-2.864h9.273a2.867 2.867 0 0 1 2.864 2.864v4.66a2.867 2.867 0 0 1 -2.864 2.864h-5.252a1.163 1.163 0 0 0 -.762.284l-2.895 2.506a.763.763 0 0 1 -.504.19zm.137-12.536a2.034 2.034 0 0 0 -2.032 2.032v4.27.031c-.1 1.344.441 2.28 1.38 2.383a.644.644 0 0 1 .573.643v2.267l2.789-2.415a2 2 0 0 1 1.308-.488h5.252a2.034 2.034 0 0 0 2.031-2.032v-4.66a2.034 2.034 0 0 0 -2.031-2.032z"
        fill="#0c6bc2" transform="translate(-6566.603 -526.913)" />
    <path
        d="m6654.884 571.837a.417.417 0 0 1 -.3-.123l-2.213-2.231a.416.416 0 0 1 .591-.587l1.887 1.9 2.879-3.536a.417.417 0 0 1 .646.526l-3.172 3.9a.415.415 0 0 1 -.3.153z"
        fill="#0c6bc2" transform="translate(-6622.619 -564.11)" />
</svg>