<svg height="44.34" viewBox="0 0 40.446 44.34" width="40.446" xmlns="http://www.w3.org/2000/svg">
    <path
        d="m3378.66-579.607h39.44l-3.183-10.257a4.663 4.663 0 0 0 -3.385-3.4c-2.405-.611-4.468-1.079-6.625-1.7a2.679 2.679 0 0 1 -1.936-2.575v-2.477l.33-.369a6.735 6.735 0 0 0 1.64-3.5 1 1 0 0 0 1.007-.789c.393-2.437.677-2.542.677-3.613s-.4-1.324-.875-1.047a6.59 6.59 0 0 0 .244-1.641c.163-5.758-3.635-9.532-8.086-9.532s-8.249 3.775-8.086 9.532a6.582 6.582 0 0 0 .243 1.641c-.478-.277-.875-.022-.875 1.047s.284 1.176.677 3.613a1 1 0 0 0 1.007.789 6.732 6.732 0 0 0 1.64 3.5l.33.369v2.477a2.679 2.679 0 0 1 -1.936 2.575c-2.157.622-3.664 1.267-6.069 1.878a4.662 4.662 0 0 0 -3.385 3.4l-2.726 9.984"
        fill="#fff" transform="translate(-3378.16 623.446)" />
    <path
        d="m3546.123-644.729a2.06 2.06 0 0 1 -.161-.793c0-1.69 2.12-3.06 4.735-3.06s4.734 1.37 4.734 3.06a1.417 1.417 0 0 1 -.192.863"
        fill="#fff" transform="translate(-3530.943 649.084)" />
    <path
        d="m3549.969-649.428a.5.5 0 0 1 -.245-.065.5.5 0 0 1 -.19-.682.944.944 0 0 0 .127-.618c0-1.388-1.939-2.56-4.234-2.56s-4.234 1.172-4.234 2.56a1.569 1.569 0 0 0 .123.6.5.5 0 0 1 -.271.654.5.5 0 0 1 -.654-.271 2.569 2.569 0 0 1 -.2-.985c0-2 2.3-3.561 5.235-3.561s5.235 1.564 5.235 3.561a1.9 1.9 0 0 1 -.256 1.109.5.5 0 0 1 -.436.258z"
        fill="#0c6bc2" transform="translate(-3525.674 654.353)" />
    <path
        d="m3414.922-326.674a4.662 4.662 0 0 0 -3.385-3.4c-2.405-.611-4.468-1.079-6.625-1.7a2.663 2.663 0 0 1 -.874-.44 1.039 1.039 0 0 1 -.139.275c-.556.775-1.14 1.528-1.7 2.3a1.57 1.57 0 0 1 -.016 1.5 6.825 6.825 0 0 1 -.8 1.047c-.11.122-.217.245-.327.367-.044.072-.094.142-.137.215a1.5 1.5 0 0 1 -.929.692c0 .014-.01.028-.014.043-.043.15-.076.3-.109.452a.681.681 0 0 1 -.021.072l.011-.029c.083-.215.007 0 0 .085a1.528 1.528 0 0 1 -1.317 1.492 1.509 1.509 0 0 1 -1.667-1.088 5.076 5.076 0 0 0 -.135-.557c-.007-.023-.059-.161-.08-.22l-.012-.026a6.677 6.677 0 0 0 -.458-.75l-.128-.175-.021-.027-.291-.364q-.41-.515-.8-1.045l.03.041c-.016-.022-.056-.074-.076-.1l-.135-.168c-.111-.138-.223-.274-.335-.411-.224-.276-.449-.553-.653-.844a3.429 3.429 0 0 1 -.555-1.261 1.553 1.553 0 0 1 -1.078-1.224 1.479 1.479 0 0 1 -.237-.38 2.664 2.664 0 0 1 -.992.534c-2.157.622-3.664 1.267-6.069 1.878a4.662 4.662 0 0 0 -3.385 3.4l-2.726 9.984-.073.1h39.436z"
        fill="#caf4ff" transform="translate(-3378.16 360.256)" />
    <path
        d="m3412.836-584.374h-39.444a.5.5 0 0 1 -.5-.5.5.5 0 0 1 .116-.32l2.7-9.885a5.155 5.155 0 0 1 3.747-3.761c1.379-.35 2.483-.72 3.551-1.078.781-.262 1.589-.533 2.5-.8a2.189 2.189 0 0 0 1.574-2.094v-2.288l-.2-.227a7.212 7.212 0 0 1 -1.7-3.391 1.393 1.393 0 0 1 -1.07-1.151 21.555 21.555 0 0 0 -.462-2.219 5.049 5.049 0 0 1 -.221-1.474c0-.788.2-1.3.6-1.534a.873.873 0 0 1 .138-.064 7.6 7.6 0 0 1 -.105-1.077 10.24 10.24 0 0 1 2.689-7.541 8.166 8.166 0 0 1 5.9-2.507 8.165 8.165 0 0 1 5.9 2.507 10.239 10.239 0 0 1 2.689 7.541 7.6 7.6 0 0 1 -.106 1.077.853.853 0 0 1 .138.064c.4.23.6.746.6 1.534a5.04 5.04 0 0 1 -.221 1.474 21.555 21.555 0 0 0 -.462 2.219 1.392 1.392 0 0 1 -1.07 1.151 7.211 7.211 0 0 1 -1.7 3.391l-.2.227v2.285a2.189 2.189 0 0 0 1.574 2.094c1.475.425 2.917.78 4.443 1.156.7.172 1.415.349 2.167.54a5.154 5.154 0 0 1 3.745 3.753l3.179 10.243a.5.5 0 0 1 -.075.445.5.5 0 0 1 -.414.21zm-38.742-1h38.063l-2.981-9.608-.008-.029a4.155 4.155 0 0 0 -3.022-3.036c-.748-.19-1.466-.367-2.16-.538-1.536-.378-2.987-.736-4.48-1.167a3.194 3.194 0 0 1 -2.3-3.056v-2.476a.5.5 0 0 1 .127-.334l.33-.369a6.215 6.215 0 0 0 1.518-3.238.5.5 0 0 1 .5-.427c.1 0 .454-.033.509-.368a22.44 22.44 0 0 1 .481-2.31 4.1 4.1 0 0 0 .189-1.223 1.6 1.6 0 0 0 -.09-.632l-.035.018a.5.5 0 0 1 -.559-.039.5.5 0 0 1 -.172-.534 6.12 6.12 0 0 0 .224-1.516 9.252 9.252 0 0 0 -2.406-6.814 7.173 7.173 0 0 0 -5.179-2.2 7.173 7.173 0 0 0 -5.179 2.2 9.251 9.251 0 0 0 -2.406 6.814 6.1 6.1 0 0 0 .224 1.516.5.5 0 0 1 -.172.534.5.5 0 0 1 -.559.039l-.035-.018a1.6 1.6 0 0 0 -.09.632 4.1 4.1 0 0 0 .189 1.223 22.488 22.488 0 0 1 .482 2.31c.054.336.407.367.514.368a.5.5 0 0 1 .49.427 6.214 6.214 0 0 0 1.518 3.238l.33.37a.5.5 0 0 1 .127.334v2.476a3.194 3.194 0 0 1 -2.3 3.056c-.893.258-1.691.525-2.462.783-1.085.364-2.207.74-3.622 1.1a4.155 4.155 0 0 0 -3.023 3.036v.012z"
        fill="#0c6bc2" transform="translate(-3372.891 628.714)" />
    <path d="m3542.166-384.283 3.488 1.9a4.749 4.749 0 0 0 3.7-.076l2.943-1.822" fill="#fff"
        transform="translate(-3527.477 407.719)" />
    <path
        d="m3542.142-386.82a5.249 5.249 0 0 1 -1.943-.371.478.478 0 0 1 -.054-.025l-3.488-1.9a.5.5 0 0 1 -.2-.679.5.5 0 0 1 .679-.2l3.461 1.883a4.273 4.273 0 0 0 3.25-.065l2.914-1.8a.5.5 0 0 1 .689.162.5.5 0 0 1 -.162.689l-2.943 1.822a.492.492 0 0 1 -.059.031 5.258 5.258 0 0 1 -2.144.453z"
        fill="#0c6bc2" transform="translate(-3522.208 412.989)" />
    <path d="m3542.284-547.1a10.512 10.512 0 0 0 10.583 3.146l.858 1.049h1.621" fill="#fff"
        transform="translate(-3527.585 556.406)" />
    <path
        d="m3550.079-547.672h-1.621a.5.5 0 0 1 -.387-.184l-.659-.8a10.9 10.9 0 0 1 -7.849-1.052 10.586 10.586 0 0 1 -2.937-2.341.5.5 0 0 1 .076-.7.5.5 0 0 1 .7.076 9.792 9.792 0 0 0 2.677 2.113 9.831 9.831 0 0 0 7.392.863.5.5 0 0 1 .512.168l.708.865h1.384a.5.5 0 0 1 .5.5.5.5 0 0 1 -.496.492z"
        fill="#0c6bc2" transform="translate(-3522.317 561.675)" />
    <path d="m3513.2-526.881-3.076 3.394-1.907-1.526" fill="#fff"
        transform="translate(-3496.478 537.943)" />
    <path
        d="m3504.859-528.254a.5.5 0 0 1 -.312-.11l-1.907-1.526a.5.5 0 0 1 -.078-.7.5.5 0 0 1 .7-.078l1.539 1.231 2.76-3.046a.5.5 0 0 1 .707-.035.5.5 0 0 1 .035.707l-3.076 3.394a.5.5 0 0 1 -.368.163z"
        fill="#0c6bc2" transform="translate(-3491.209 543.211)" />
    <path d="m3606.269-321.65 5.631-9.423.954 3.7z" fill="#65bffc"
        transform="translate(-3586.017 359.127)" />
    <path
        d="m3601-326.42a.5.5 0 0 1 -.322-.117.5.5 0 0 1 -.108-.641l5.631-9.423a.5.5 0 0 1 .5-.239.5.5 0 0 1 .414.371l.954 3.7a.5.5 0 0 1 -.157.5l-6.585 5.718a.5.5 0 0 1 -.327.131zm5.445-8.637-3.41 5.706 3.987-3.462z"
        fill="#0c6bc2" transform="translate(-3580.748 364.397)" />
    <path d="m3531.249-321.553-6.692-9.414-.437 3.7z" fill="#65bffc"
        transform="translate(-3510.998 359.029)" />
    <path
        d="m3525.98-326.323a.5.5 0 0 1 -.313-.11l-7.128-5.718a.5.5 0 0 1 -.184-.449l.437-3.7a.5.5 0 0 1 .373-.426.5.5 0 0 1 .532.195l6.692 9.414a.5.5 0 0 1 -.064.654.5.5 0 0 1 -.345.14zm-6.6-6.436 4.108 3.3-3.857-5.425z"
        fill="#0c6bc2" transform="translate(-3505.729 364.299)" />
    <path d="m27.762 28.735 3.253 6.933" fill="#fff" />
    <path
        d="m3690.8-321.048a.5.5 0 0 1 -.453-.288l-3.253-6.933a.5.5 0 0 1 .24-.666.5.5 0 0 1 .666.241l3.253 6.934a.5.5 0 0 1 -.241.666.5.5 0 0 1 -.212.046z"
        fill="#0c6bc2" transform="translate(-3659.789 357.217)" />
    <path d="m11.951 28.699-1.609 4.07" fill="#fff" />
    <g fill="#0c6bc2">
        <path
            d="m3486.8-324.327a.5.5 0 0 1 -.184-.035.5.5 0 0 1 -.281-.65l1.609-4.07a.5.5 0 0 1 .65-.282.5.5 0 0 1 .281.65l-1.609 4.07a.5.5 0 0 1 -.466.317z"
            transform="translate(-3476.456 357.596)" />
        <path
            d="m3423.908-273.629a.5.5 0 0 1 -.154-.025.5.5 0 0 1 -.322-.63 19.143 19.143 0 0 0 1.041-6.144c-.042-1.521-.41-2.54-.984-2.726s-1.47.424-2.4 1.631a19.151 19.151 0 0 0 -2.759 5.588.5.5 0 0 1 -.631.322.5.5 0 0 1 -.322-.63c1.413-4.362 4.141-8.6 6.416-7.863 1.04.337 1.619 1.6 1.677 3.651a20.169 20.169 0 0 1 -1.09 6.48.5.5 0 0 1 -.472.346z"
            transform="translate(-3413.499 316.311)" />
        <path
            d="m3419.163-211.541a4.172 4.172 0 0 1 -1.489-.323.5.5 0 0 1 -.282-.649.5.5 0 0 1 .649-.282 2.453 2.453 0 0 0 1.378.224 2.438 2.438 0 0 0 -1.192-.835.5.5 0 0 1 -.282-.649.5.5 0 0 1 .649-.282c1.342.529 2.077 1.412 1.787 2.147a1.14 1.14 0 0 1 -1.175.649z"
            transform="translate(-3413.499 252.552)" />
        <path
            d="m3469.929-191.541a.5.5 0 0 1 -.125-.016 4.1 4.1 0 0 1 -1.456-.669c-.655-.506-.647-.993-.584-1.238.22-.858 1.546-1 2.743-.689a.5.5 0 0 1 .361.609.5.5 0 0 1 -.609.361 2.507 2.507 0 0 0 -1.491-.021 2.447 2.447 0 0 0 1.286.678.5.5 0 0 1 .361.609.5.5 0 0 1 -.486.376z"
            transform="translate(-3459.506 234.223)" />
        <path d="m1.9 0a1.9 1.9 0 1 1 -1.9 1.9 1.9 1.9 0 0 1 1.9-1.9z"
            transform="matrix(.22974399 -.9732511 .9732511 .22974399 29.527 38.585)" />
        <path
            d="m3714.231-248.86a2.4 2.4 0 0 1 -2.4-2.4 2.4 2.4 0 0 1 2.4-2.4 2.4 2.4 0 0 1 2.4 2.4 2.4 2.4 0 0 1 -2.4 2.4zm0-3.8a1.4 1.4 0 0 0 -1.4 1.4 1.4 1.4 0 0 0 1.4 1.4 1.4 1.4 0 0 0 1.4-1.4 1.4 1.4 0 0 0 -1.4-1.402z"
            transform="translate(-3682.417 288.433)" />
    </g>
</svg>