<svg xmlns="http://www.w3.org/2000/svg" width="34.448" height="34.448" viewBox="0 0 34.448 34.448">
  <g id="Group_703" data-name="Group 703" transform="translate(-63.273 -1335.994)">
    <ellipse id="Ellipse_39" data-name="Ellipse 39" cx="17.224" cy="17.224" rx="17.224" ry="17.224" transform="translate(63.273 1335.994)" fill="#0c6bc2"/>
    <g id="Group_449" data-name="Group 449" transform="translate(72.441 1345.272)">
      <g id="Group_446" data-name="Group 446">
        <path id="Path_382" data-name="Path 382" d="M-31.7,894.138h-5.781a5.034,5.034,0,0,1-5.028-5.028v-6.222a5.033,5.033,0,0,1,5.028-5.027H-31.7a5.033,5.033,0,0,1,5.028,5.027v6.222A5.034,5.034,0,0,1-31.7,894.138Zm-5.781-15.062a3.815,3.815,0,0,0-3.811,3.811v6.222a3.816,3.816,0,0,0,3.811,3.811H-31.7a3.816,3.816,0,0,0,3.811-3.811v-6.222a3.815,3.815,0,0,0-3.811-3.811Z" transform="translate(42.512 -877.86)" fill="#fff"/>
      </g>
      <g id="Group_447" data-name="Group 447" transform="translate(3.643 3.805)">
        <path id="Path_383" data-name="Path 383" d="M-34.61,890.229a4.312,4.312,0,0,1-4.307-4.307,4.312,4.312,0,0,1,4.307-4.307,4.311,4.311,0,0,1,4.307,4.307A4.312,4.312,0,0,1-34.61,890.229Zm0-7.4a3.094,3.094,0,0,0-3.09,3.091,3.094,3.094,0,0,0,3.09,3.09,3.094,3.094,0,0,0,3.091-3.09A3.094,3.094,0,0,0-34.61,882.831Z" transform="translate(38.917 -881.615)" fill="#fff"/>
      </g>
      <g id="Group_448" data-name="Group 448" transform="translate(11.347 2.637)">
        <ellipse id="Ellipse_41" data-name="Ellipse 41" cx="1.028" cy="1.028" rx="1.028" ry="1.028" fill="#fff"/>
      </g>
    </g>
  </g>
</svg>
