<svg xmlns="http://www.w3.org/2000/svg" width="61.765" height="68.489" viewBox="0 0 61.765 68.489">
  <g id="Group_480" data-name="Group 480" transform="translate(-460.387 -428.159)">
    <path id="Path_391" data-name="Path 391" d="M521.136,450.394a3.753,3.753,0,0,1-1.821-1.54,15.156,15.156,0,0,0-12.871-9.29c-3.281-.239-5.817-2.737-7.431-5.6a8.43,8.43,0,0,0-.776-1.146,1.223,1.223,0,0,1,.092-1.466,2.022,2.022,0,1,0-3.4-2.174,1.244,1.244,0,0,1-1.294.723,8.431,8.431,0,0,0-6.043.831,7.137,7.137,0,0,1-6.674.467,14.134,14.134,0,1,0,1.979,23.984,5.1,5.1,0,0,1,4.679-.937,4.855,4.855,0,0,1,2.951,3.668,15.093,15.093,0,0,0,3.277,6.593,7.671,7.671,0,0,1,2.061,4.879v1.955a1.3,1.3,0,0,0,.849,1.254,8.148,8.148,0,0,0,5.25,0,1.206,1.206,0,0,0,.654-.548c.611-1.064,1.4-2.223,2.631-2.217h.161c1.229-.006,2.016,1.158,2.634,2.22a1.219,1.219,0,0,0,.661.549,8.147,8.147,0,0,0,5.25,0,1.3,1.3,0,0,0,.839-1.25v-1.953a7.7,7.7,0,0,1,2.068-4.889,15.083,15.083,0,0,0,3.609-9.3,2.175,2.175,0,0,1,.951-1.495,2.02,2.02,0,0,0-.282-3.31Zm-33.4-14.032a1.29,1.29,0,1,1,1.291-1.291A1.291,1.291,0,0,1,487.734,436.363Z" transform="translate(0)" fill="#fff"/>
    <path id="Path_470" data-name="Path 470" d="M13.272-21.645h-.021a.636.636,0,0,0-.553.329,2.284,2.284,0,0,1-1.947,1.277c-3.492,0,1.353-6.66-2.145-6.66a6.7,6.7,0,0,0-4.8,2.562A73.084,73.084,0,0,0,5.482-32.1c0-2.076-.858-3.231-2.323-3.231A2.742,2.742,0,0,0,.616-34.178s.628.628.628,2.787c0,2.984-2.621,9.37-2.621,12.79,0,1.68.842,3.53,2.752,3.53a2.811,2.811,0,0,0,2.107-.719A2.145,2.145,0,0,1,2.6-17.5a24.2,24.2,0,0,1,.633-4.056c.605-.7,1.328-1.346,1.922-1.346,1.422,0,.594,2.528.594,4.063,0,2.606.733,3.821,2.644,3.821,2.732,0,4.707-3.953,5.464-5.752a.629.629,0,0,0-.581-.872Zm8.092,0a.653.653,0,0,0-.546.293,2.589,2.589,0,0,1-1.93,1.313c-.839,0-1.371-.727-1.371-1.863a6.873,6.873,0,0,1,1.216-3.986s-.206-.874-2.135-.874c-2.579,0-4.153,3.634-4.153,7.548,0,2.682,1.425,4.177,3.842,4.177,2.9,0,4.9-3.876,5.681-5.691A.657.657,0,0,0,21.363-21.645Zm-.772-10.239c0-4.144-4.547-2.52-4.547,1.462C16.044-26.511,20.591-28.136,20.591-31.883Zm4.362,7.2,0,0a2.224,2.224,0,0,0-2.217-2.082,2.742,2.742,0,0,0-2.543,1.155s.628.628.628,2.787c0,2.984-2.621,9.371-2.621,12.79,0,1.68.842,3.53,2.752,3.53a2.811,2.811,0,0,0,2.107-.719,2.145,2.145,0,0,1-.886-1.712A50.838,50.838,0,0,1,23.648-16.7c1.854,3.8,8.129.667,8.129-5.4C31.777-27.642,27.488-27.749,24.954-24.682Zm.3,3.059c0-2.781,3.174-3.915,3.174-1.022C28.426-20.029,25.252-18.9,25.252-21.623ZM37.8-24.682l0,0a2.224,2.224,0,0,0-2.217-2.082,2.742,2.742,0,0,0-2.543,1.155s.628.628.628,2.787c0,2.984-2.621,9.371-2.621,12.79,0,1.68.842,3.53,2.752,3.53a2.811,2.811,0,0,0,2.107-.719,2.145,2.145,0,0,1-.886-1.712A50.838,50.838,0,0,1,36.5-16.7c1.854,3.8,8.129.667,8.129-5.4C44.625-27.642,40.336-27.749,37.8-24.682Zm.3,3.059c0-2.781,3.174-3.915,3.174-1.022C41.274-20.029,38.1-18.9,38.1-21.623Zm7.317,2.3c0,7.428,8.638,4.343,8.638-2.777C54.055-29.969,45.417-26.881,45.417-19.319Zm3.7-2.3c0-2.781,3.174-3.915,3.174-1.022C52.292-20.029,49.118-18.9,49.118-21.623Z" transform="translate(465.631 503.148)" fill="#fff"/>
  </g>
</svg>
