<svg xmlns="http://www.w3.org/2000/svg" width="506.31" height="506.307" viewBox="0 0 506.31 506.307">
  <g id="Group_774" data-name="Group 774" transform="translate(0)">
    <path id="Path_596" data-name="Path 596" d="M1792.4,345.887c139.816,0,253.157,113.341,253.157,253.153S1932.213,852.194,1792.4,852.194,1539.244,738.853,1539.244,599.04,1652.585,345.887,1792.4,345.887Z" transform="translate(-1539.244 -345.887)" fill="#f0f0f0" fill-rule="evenodd"/>
    <rect id="Rectangle_272" data-name="Rectangle 272" transform="translate(316.722 262.463)" fill="#ffcca9"/>
    <path id="Path_597" data-name="Path 597" d="M1658.064,448.085c.243.047.471.1.717.142-.247-.044-.474-.095-.717-.142Z" transform="translate(-1282.674 -125.209)" fill="#36393a" fill-rule="evenodd"/>
    <path id="Path_598" data-name="Path 598" d="M1586.535,446.472c.262-.092.527-.18.783-.272-.256.092-.521.18-.783.272Z" transform="translate(-1437.128 -129.279)" fill="#36393a" fill-rule="evenodd"/>
    <path id="Path_599" data-name="Path 599" d="M1766.691,496.422c-10.208-4.707-31.508-11.342-33.729-27.183a160.284,160.284,0,0,1-1.359-19.758c-.063-8.625.18-17.458.977-26.7-11.547,21.509-30.62,35.252-58.337,34.674-19.414-.408-36.509-16.545-47.608-37.956a321.255,321.255,0,0,1,2.56,32.753c.012.48-.1,3.933-.231,7.6-.54,15.812-17.992,27.173-33.479,32.535,39.685,69.148,128.379,70.646,171.207,4.035Z" transform="translate(-1417.804 -186.941)" fill="#ffcca9" fill-rule="evenodd"/>
    <path id="Path_600" data-name="Path 600" d="M1663.241,552.688c27.72.578,46.792-13.165,58.34-34.677a106.869,106.869,0,0,0,9.3-24.785c-.117-4.72,1.457-12.233,2.117-22.343a95.866,95.866,0,0,1,3.194-20.257l.01-.114c-.215.287-.433.575-.676.872-1.2-19.48-7.823-53.4-10.619-61.73-6.277-5.2-14.018-15.854-80.067-13.885-7.677-2.212-28.712,13.746-28.971,14.157-2.335,3.709-5.529,11.092-7.472,22.039-6.448,36.339-3.194,26.128-5.333,39.447a29.247,29.247,0,0,1-2.423-2.534c.082.853.158,1.7.25,2.553a101.14,101.14,0,0,1,2.569,18.713c.3,5.485.875,10.2,1.317,14.129a121.471,121.471,0,0,0,10.855,30.459c11.1,21.411,28.2,37.549,47.608,37.956Z" transform="translate(-1406.666 -281.88)" fill="#ffcca9" fill-rule="evenodd"/>
    <path id="Path_601" data-name="Path 601" d="M1609.475,479.628l.721.78a29.247,29.247,0,0,0,2.423,2.534c2.139-13.32-1.115-3.109,5.333-39.447,1.943-10.947,5.137-18.33,7.472-22.039,4.4-6.957,107.227,12.435,107.55,12.7,2.8,8.334,8.283,32.121,12.106,48.758.243-.3.461-.584.676-.872l.038-.051c2.173-7.216,5.371-11.718,9.693-11.434a5.47,5.47,0,0,1,1.245.246c1.384-14.719.9-30.623.189-46.84.433-46.815-51.882-65.186-89.444-62.839-65.973,4.12-78.225,49.232-68.14,109.512,6.013,0,8.6,4.344,10.138,8.991Z" transform="translate(-1416.22 -313.41)" fill="#252e4b" fill-rule="evenodd"/>
    <path id="Path_602" data-name="Path 602" d="M1641.185,381.945a1.33,1.33,0,0,1-.161.212.306.306,0,0,0,.161-.212Z" transform="translate(-1319.468 -268.026)" fill="#fff" fill-rule="evenodd"/>
    <path id="Path_603" data-name="Path 603" d="M1639.272,384c.25.114.48.215.733.332-.042-.095-.307-.208-.733-.332Z" transform="translate(-1323.251 -263.587)" fill="#fff" fill-rule="evenodd"/>
    <path id="Path_604" data-name="Path 604" d="M1602.54,391.67a1.54,1.54,0,0,1-.269-.032.322.322,0,0,0,.269.032Z" transform="translate(-1403.149 -247.096)" fill="#fff" fill-rule="evenodd"/>
    <g id="Group_773" data-name="Group 773" transform="translate(176.776 156.264)">
      <path id="Path_605" data-name="Path 605" d="M1617.626,441.477c-.436-3.93-1.014-8.644-1.314-14.129a101.159,101.159,0,0,0-2.565-18.713c-.3-1.175-.623-2.281-.97-3.333-2.091-6.29-5.077-10.163-9.07-9.945a5.609,5.609,0,0,0-2.8.967c-5.64,3.719-7.791,17.645-3.282,30.791,5.2,15.149,8.353,28.841,15.989,28.421C1618.918,455.245,1618.631,450.418,1617.626,441.477Z" transform="translate(-1595.198 -395.348)" fill="#ffcca9" fill-rule="evenodd"/>
    </g>
    <path id="Path_606" data-name="Path 606" d="M1658.166,395.883a5.439,5.439,0,0,0-1.245-.246c-4.322-.284-7.52,4.218-9.693,11.431-.019.057-.032.117-.047.167a95.866,95.866,0,0,0-3.194,20.257c-.66,10.11-2.233,17.623-2.117,22.343.085,3.671,1.188,5.658,4.521,5.873,7.633.5,10.931-13.162,16.283-28.254C1667.72,413.215,1664.908,397.978,1658.166,395.883Z" transform="translate(-1317.654 -238.489)" fill="#ffcca9" fill-rule="evenodd"/>
    <path id="Path_607" data-name="Path 607" d="M1716.429,479.4c-50.022,6.559-101.964-30.592-111.032-59.806l.025.057.006.013.01.013.009.016,0,.013.009.013.006.019.009.013.007.013.009.016.006.016.009.013.006.016.006.016.009.013,0,.016.012.016,0,.013.009.016.009.013.009.013,0,.016.009.016.007.013c.094.177.192.357.284.531l.009.016,0,.016.009.016.006.013.035.06.006.016.006.016.013.013.006.013.016.028.006.019.016.025.006.016.01.013.009.016,0,.013.009.016.01.016.006.013.01.016.006.013.006.016.01.016.006.013.009.013.006.016.01.013.006.016.007.013.009.016.01.016.006.013c.079.142.155.287.234.43l.006.016.025.041.009.013.041.079.01.016.006.013.007.016.013.016,0,.013.057.1.007.013.009.013.006.013.009.016.007.016.009.016.006.013.007.013.009.016.006.016.009.009.006.016.009.016.007.013.009.013.006.016.009.013.212.382.006.013.006.016.009.013.009.013.006.016.007.013.009.013.006.016.038.06.006.016.01.013.006.019.007.013.013.013.006.013.01.016.006.016.006.016.009.013.009.016.016.028.006.013.009.019.006.009.009.013.01.016.006.013.009.016.006.013.01.019.009.013.013.025.01.016.274.487.01.013.009.016.006.013.01.016.028.044.006.016.006.013.013.016.016.025,0,.016.1.167.007.013.015.028.01.013.01.019.006.013.006.009.013.016.007.016.006.016.006.013.01.013.009.016.006.016.013.009,0,.016.224.376.01.016.006.013.009.013.061.1.009.016,0,.013.01.009.006.019.01.009.01.016.006.013.009.013.007.013.006.016.01.013.006.013.01.016.009.016.007.009.009.013.006.016.009.013.007.013.009.013.009.016.006.013.006.013.009.013c.1.164.2.328.3.493l.006.016.009.013.006.016.051.076.006.016.01.013.006.013.01.013.006.016.01.013.009.016.006.013.009.013.01.013.006.016.009.013.006.013.01.016.006.013.01.013.009.016.006.013.01.013.006.013.01.016.01.013.006.016.01.013.009.013.006.013.009.013.01.016c.088.145.177.291.266.433l.009.016.006.013.009.013.01.016.035.057.009.013.009.016.007.009.009.016.006.016.016.022.01.016.085.133.007.016.016.025.009.013.006.013.009.016.01.013.009.013,0,.013.013.016.01.013.006.013.25.4.01.016.006.013.013.016.006.009.082.126,0,.013.012.013.007.009.009.016.006.013.006.013.013.01.013.028.009.009.01.013,0,.013.01.016.006.009.019.025.007.013.009.01.006.016.01.013.006.013.009.013.006.009.01.016.006.009.01.013.009.013.006.016.006.009.01.013c.076.12.155.24.23.36l.006.013.013.009.006.013.007.016.009.01.089.139.006.013.01.009.006.013.009.013.009.013.007.013.009.013.006.01.009.016.006.01.009.009.006.016.01.01.006.016.01.01.006.013.01.013.006.01.007.013.009.013.006.016.009.01.01.013.009.013,0,.009.012.013,0,.013.009.013.01.01.006.016.01.01.221.338.006.01.009.016.01.01.006.009.009.016.095.139.006.016.009.01.01.016.006.01.006.013.009.013.006.013.009.013.007.013.009.01.009.013.006.013.01.013.006.013.009.01.009.016.007.009.009.013.006.01.009.016.01.013.006.01.01.013.006.013.009.013.009.009.007.013.009.016.006.01.006.013.23.341.01.01.006.013.009.013.009.013.007.013.009.01.063.1.009.01.007.016.009.009.009.013.01.013.006.013.013.013.006.013.01.016.009.01.007.013.016.025.012.013.007.013.009.013.009.016.01.009.006.013.009.013.006.013.013.013.006.013.01.01.009.016.007.01.009.013.01.016.006.013.013.013.006.009.24.354.009.009.01.016.009.013.009.013.007.01.054.073.006.013.01.013.013.013.006.016.009.01.006.016.009.013.013.009.007.013.009.016.007.013.009.013.013.009.006.013.009.013.006.013.013.016.006.01.009.013.01.016.006.009.013.016.006.009.01.013.009.016.007.009.009.016.31.436.013.013.009.009.066.095.006.013.009.013.006.013.009.013.01.01.009.016.01.01.006.013.025.035.013.013.006.013.01.013.063.085.009.013.006.013.01.009.006.016.009.009.013.016.006.009.01.01.009.013.006.013.009.016.01.009.009.013.218.3.012.01.007.016.009.01.006.013.009.013.076.1.009.01.006.009.01.013.009.013.006.009.01.013.013.016.111.148.009.016.006.009.013.013,0,.013.019.022.009.01.01.013.006.013.009.013.013.009.006.016.009.009.006.01.009.016.228.3.01.016.009.01.01.013.1.133.013.013,0,.01.009.01.009.013.006.013.01.009.01.013.006.01.013.009.006.013.006.009.006.013.013.013.006.01.009.013.016.019.009.013.01.01.006.013.01.013.006.01.009.009.006.016.01.006.009.009.006.013.009.01.01.016.006.01.013.009.013.025.009.006.009.013c.069.092.136.183.208.275l.01.013.009.013.006.01.01.009.123.161.009.013.009.01.007.013.009.009.006.01.009.009.01.013.009.013.006.009.012.01.007.016.009.006.006.013.009.013.007.01.009.013.009.01.009.01.01.009.006.016.009.01.01.009.006.01.01.013.006.01.009.01.007.016c.1.126.2.253.3.379l.007.009.012.013.063.079.006.013.009.013.006.01.009.013.013.01.01.013.016.025.012.01.117.152.01.009.01.013.009.013.006.013.01.009.01.013.009.01.009.013.009.013.01.009.01.013.009.013.01.013.009.01c.076.1.151.193.23.287l.006.013.013.006.009.016.1.12.01.013.009.01.006.01.007.013.013.009.006.013.01.006.009.013.007.01.012.013.006.013.009.01.01.009.009.013.01.009.006.013.016.019.013.01.006.013.009.009.01.013.006.009.009.013.009.006.01.013.009.01.006.013.006.01.01.013.012.009.006.01.009.013.01.013.016.022.009.01.009.013.2.24.01.013.01.009.006.013.12.142.228.269.01.013.009.009.006.01.009.013.01.01.009.013.009.009.006.013.01.006.218.262.013.01.009.009.006.01.009.013.1.12.009.01.01.009.006.013.01.006.006.013.013.006.009.016.006.01.009.01.013.009.111.133.009.009.01.013.009.01.009.01.01.013.006.01.01.013.009.006.007.01.009.013.01.01.009.01.006.013.215.243.009.01.01.013.009.009.009.01.152.174.006.009.009.01.01.013.006.006.009.01.009.01.01.006.006.013.016.019.01.01.009.01.006.009.009.013.01.006.006.009.01.01.016.019.006.01.01.009.006.01.009.01.013.009.006.01.006.01.013.009.006.009.006.01.009.009.01.013.009.009.006.006c.079.092.161.183.243.275l.006.009.01.006.158.174.006.006.009.01.007.013.009.006.007.006.009.013.01.009.009.01.006.01.013.009.006.009.009.006.006.013.009.009.006.006.009.009.016.022.01.006.009.013.006.01.01.006.009.009.006.01.013.009.007.006.009.013.006.009.009.009.01.01.006.01.01.009.006.006.01.013.009.006.006.01c.076.082.145.161.224.243l.006.006.009.009.155.171.012.009,0,.01.009.006.013.013.006.006.01.013.006,0,.01.013.009.009.006.009.009.01.007.006.006.009.013.006.006.013.006.006.013.009.006.01.009.009.007.01.009.01.006.009.009.01.01.006.006.009.01.006.006.013.009.006.009.009.01.006.01.016.006.006.006.01.013.009.006.006c.07.076.139.152.211.224l.007.01.009.006.006.01.009.009.187.2.009.006.007.009.009.01.006.006.01.013.006.006.01.01.009.009.006.01.01.006.009.01.006.009.009.006.006.013.009.006.006.01.01.01.013.009.006.006.006.01.012.009.007.009.009.006.009.009.006.006.006.01.009.009.01.01.006.01.01.009.006.006.01.013.009.006.01.01.006.006.01.01c.063.066.126.136.193.2l.009.009.006.006.01.01.01.009.006.013.132.13.01.01.009.01.01.013.006.006.013.01.01.009.006.01.01.013.038.035.006.006.022.019.006.009.029.032.009.006.035.038.009.009.022.019.007.01.009.006.009.013.009.006.007.01.009.01.01.009.009.013.019.016.009.01.212.212.006.01.013.006.007.013.139.133.006.009.009.01.01.006.009.009.247.246.01.01.009.01.009.009.009,0,.007.013.009.006.009.01.01.01.009.009.01.01.006.01.01.006.152.148.006.01.01.006.009.013.206.2.009.006.006.006.009.009.007.006.009.006.009.013.006.006.01.006.006.01.01.009.009.006.01.01.006.006.01.009.006.006.01.006.009.009.006.006.006.01.013.009.009.006.009.01.007.01.009,0,.006.01.009.006.007.009.006.01.009.006.01.01.01.006.006.009.25.237.01.009.009.006.168.161.009.006.009.01.009.006.01.01.009.006.006.006.009.013.007,0,.013.013.069.063.006.006.013.01.006.009.01.009.079.073.006.009.009.006.009.01.007.006.009.009.009.01.009,0,.01.01.006.009.01.006.009.01.009.006.006.01.152.136.006.01.013.006.006.01.01.01.187.167.006.006.01.01.01.01.009.009.006,0,.009.013.01.006.009.006.01.006.009.01.006.006.009.01.006.006.009.01.01.006.009.009.01.006.01.01.006.01.01,0,.009.013.01.006.006.006.01.01.009.006.01.01.006.006.01.01.009.01.01.006.006.006.01.013.01.006.009.006.006.01.013.006c.076.069.155.142.233.212l.01.01.167.145.009.006.009.01.007.006.009.006.01.009v0l.016.013.009.009.218.19.006.006.013.006.022.022.009.006.013.01.006.009.009.006.01.01.006.009.155.13.006.006.013.009.009.006.009.009.212.18.006.006.009.009.006.006.01.006.009.01.006.006.009.006.016.013.01.01.006.006.01.006.016.013.009.006.006.01.029.022.006.006.013.006.028.028.007.009.009,0,.028.022.01.006.006.01.01.006.006.006.01.01.006,0,.01.01.009.006.006.006.009.006.01.01,0,.006.155.126.006.006.009.006.01.006.006.006.253.212.009.006.01.006.006.006.01.006.006.006.006.006.01.006.006.01.047.035.01.01.016.013.009.01.006,0,.054.044.01.01.032.022.006.006.01.01.006,0,.009.009.009.006.006.006.006.006.009.006.007.006.019.013.006.006.007.006.009.006.133.111.01.006.01,0,0,.006,0,0,.177.136,0,.006.006.006,0,0h.007l0,0,0,0,0,0,.006.006,0,0,0,0h0l.006.006h0l.006.006v0l0,0,.006,0,.006.006.009.006.006.006.013.006,0,.006.01,0,.006.006.01.01.009.006.006,0,.009.006.006.01.009.006.032.025.006.006.016.013.01,0,.01.009,0,0,.009.006.01.01.006.006.01.006.016.013.009.006.007.006.006.006.01.006.006.006.009.006.009.006.007,0,.009.01.006.006.009.006.01.006.158.126.006.006.009.006.01.006h0l0,0,0,0,0,.006h0l.006,0,0,0,0,0,.009.006,0,0,.124.095,0,0,.013.01,0,0,.01,0,0,.006,0,0,.009.006h0l0,.006h0l0,0,.006,0,0,.006h0l.006,0,0,0,0,0,.006,0,.007.01h.009l.01.009.006.006.01.006.006.006.009.006.006.01.006,0,.013.006.006.006.009.01.01,0,0,.006.01.006.012.006,0,.006.009.006.016.013.006.006.019.013.006.006.013.01.009,0,.007.006.006.006.01.006.006.006.013.006,0,.006.01.006.006.006.009,0,.009.01.01.006.006.006.009.006.006.006.01.006.006.006.01,0,.158.12.007.006.009.006.221.164.009.006.006.01.009,0,.01.006.006.006.013.006.006.006.007.01.009.006.01,0,.006.01.01,0,.1.073.009.006.066.051.007.006.009.01.013,0,.01.006,0,.009.013.006.006.006.009,0,.006.009.01,0,.009.006.009.009.009,0,.007.006.132.095.006.006.006.009.013,0,0,0v.006h.007l0,0,.006.006.006,0,.117.082,0,0,.006,0,0,0,.006,0,0,0,0,0,.006.006,0,0,.006,0h.006l0,0,0,.006,0,0h.007l0,0h0v0l.007,0,0,0,0,0,.006,0,.01,0,.006.006v0l.016.013.01,0,.009.006.009.009.01.006.031.022.013.01.007,0,.069.054.009,0,.05.038.007.006.013.006.009,0,.006.01.009.006.01,0,.006.006.013.01.006.006.01.006.006.006.01.006.006.006.013,0,.01.009.17.12.228.155.006,0,.01.01.006.006.01,0,.009.009.01.006.009,0c.095.069.2.139.294.208l.013.006.006,0,.006.006.013.006.009,0,0,.009.013,0,.006.006.01.006.088.06.006.006.009.006.013.006.006,0,0,0,0,0,.006,0,.016.009,0,0,.1.073.006,0,.007,0,.015.01h0l0,.006h0l.006,0v0l.006,0h0l.006,0,0,0,0,0,0,0h.006l0,.006.006,0h0l0,0,.006,0,0,0,0,0,0,0,.006,0h0l.006,0,.01.006.006.006.009,0,.009.006.007.006.009,0,.006.006.009.006.006.006.01.006.009,0,.009.01.007.006.019.006.009.009.032.022.007.006.063.038.007,0,.009.006.035.025.006,0,.013.01,0,0,.013.006.006.006.01,0,.006.006.009.006.009.006.007,0,.009.006.01.006.006.006.12.076.01.006.009.006.007,0,0,0,0,0,.006,0,0,0,0,0,.006,0h0l.1.06,0,.006.006,0,.016.009,0,0h0l.006,0v0l.006,0,0,0h0l0,.006h0l.006,0,0,0h0l0,0,.006,0h0l.006.006h0l0,0h.007v0l.006,0,0,0,0,0,.007,0,0,0h0l.01.006.006.006.009.006.009,0,.007.006.009.006.322.2.006.006.009.006.006,0,.01.006.006.006.013.006.01,0,.073.047.009.006.006.006.013.006.006,0,.006,0,0,0c.06.038.117.073.183.107v0l.006,0,0,0,.006,0,0,0,0,0,.006,0h.006l0,0,0,0,0,0,.006,0,0,.006h0l.006,0,.006,0h0l.007.006h0l0,0,.006,0,0,0,.009.006.01,0,.006.006.006.006.01,0,.006,0,.01.006.01.006.006,0,.009,0,.006.006.006.006.013,0,.23.145.006,0,.013,0,.006.006.006.006.013.006,0,0,.01,0,.009.006.088.054.009,0,.006.006.01.006.006,0h0l0,0,.247.145.006,0h0l.007.006.006,0v0l.006,0,.006,0h.006l0,0,0,0,.006,0,.006,0,.01,0,.006,0,.007.006.009.006.006.006.006,0,.006,0,.01,0,.006.006.006,0,.009.006.016.006.009.006.013.01.009,0,.007.006.006,0,.016.01.01,0,.012.006.01.006,0,0,.01.006.069.041.01,0,.012.01.01,0,.006.006.01,0,.006,0,.006.006.006,0,.009.006.009,0,.007.006h.006l.092.054.006.006.009,0,.006,0,.006.006h.006l.206.117.006,0,0,0,.009.006.01,0,.006.006v0h.006l.006,0,.006,0,.007,0,0,0,.006,0,.006,0,.006,0,0,0,.007,0,.006,0,0,0,.006,0h.006l.006.006h0l.006.006.009,0,.006,0,.006,0,.01.006.006,0,.007,0,.009.006.006,0,.006,0,.01,0,0,.006.009,0,.006.006.009,0,.007,0,.009,0,.006.006.006,0,.009,0,.013.009.01,0,0,0,.01,0,0,.006.009.006.044.025.009,0,0,.006h.009l.009.006.013.006.009,0,.007,0,.006.006.009,0,.006.006.006,0,.009,0,0,0,.009.006.006,0,.01,0,.006,0,.007.006.006,0,.006,0,.054.032h.009l.006.006.006,0,.009,0,0,0,0,0,.212.114.006,0,.013,0,0,0,.013.006.006.006h.01l0,.006.006,0,0,0h.009l0,.006.007,0,0,0h.006l.006.006h.006l0,0,.007,0,0,0,.009,0,.006.006h.009l.007.006.009,0,.006.006h.006l.01.006.006,0,.01.006.006,0,.009,0,.006,0,.01.006,0,0,.009.006.01,0,0,0,.01.006.006,0,.01,0,.006.006.013,0h0l.01.006.006.006.006,0,.01,0,.006,0,.009.006.006,0,.01,0,.006,0,.01,0,.006.006.009,0,0,.006h.01l.009.006,0,.006.01,0,.006,0,.01,0,.006.006.009,0c.041.022.079.044.123.063l.007.006.006,0h.01l0,.006h0l.006,0,.007,0v0h.006l.007,0,0,0,.167.085.006,0h0l.006,0,.006,0,0,0h.006l0,.006h0l.006,0h0l.006,0h0l0,0,.006,0,.006,0,.007,0v0h.009l.006,0,.025.016.01,0,.006.006.009,0,.035.019.009,0,.253.13.009,0,.006,0,.009.006.006.006.009,0,.01,0,.009,0,.01.006.006,0,.1.054h.01l0,0,.007,0,.006,0h0l.006.006h.01l.17.085h0l.019.01.006,0h0l.006,0,0,0,0,0h.006l0,0h0l.006,0,0,0h.006l.007,0,0,0,.006,0,.007,0,.009,0,.006,0,.009.006.007,0,.347.167.009,0,.01.006.01,0,.006.006.01,0,.006.006.009,0h.009l.061.032.006,0,.01,0,.009,0,.006,0,.2.095.006,0h.006l.006,0,.006,0h0l0,0,.006,0,0,0,0,0h.006l.006,0h0l.006,0,.006,0,0,0,0,0h.006l0,0,.007,0,.006,0,.01,0h.006l.006.006.01,0,.01,0,.006.006h.01l.009,0,.01.006,0,0,.013,0,.006,0,.006.006.009,0,.01.006.006,0h.006l.01.006.173.082h.007l.009.006.016.006.01,0,.013.006.006,0,.006,0,.01,0,.006.006h.006l.009.006h.006l.085.038.006,0,.013.006v0h.009l0,0h.006l0,.006h.01l.23.1h.006l.007,0h0l.006,0,.006,0,.006,0,.006,0,0,0h.006l.007,0h0l.006,0,.006,0,0,0,.006,0,.006,0,.006,0h.006l.01,0,.006,0,.007.006h.009l.006,0,.009,0,.016.006.006.006.01,0,0,0,.01,0,.022.01.01,0,0,0,.173.073.007,0,.006.006.01,0,.006,0h.006l.009,0,.01.006,0,0,.009,0,.007,0,.009,0,.007,0h.006l.063.028,0,0h.01l.006,0,.006,0,.006,0,.006,0c.083.035.165.066.247.1l.007,0h.006l.022.009h0l.009.006.013,0,.006,0,.006,0,.006.006h.007l.006,0,.006,0,.01,0h.006l0,0,.006,0,.009,0,.006,0h.006l.01.006h.006l0,0,.009,0,.006,0,0,0,.01,0h0l.01,0,.006,0,0,0,.01,0,.006,0h.006l.006.006h.009l.006,0,.006,0,.006,0,.006,0,.006,0,.006,0,.006,0,.007,0h.006l.01,0,.006,0,.006,0,.013.006,0,0h.01l.009,0,.019.01,0,0h.006l.022.01.006,0,.006,0,.006,0,.006,0h.007l.006,0,.006,0,.01,0,.006,0h.007l.006.006.006,0,.06.022,0,0h.01l.009,0,0,0,.009,0,.007,0,.3.114h0l.022.01.007,0h.009l.013.006.006,0,.007,0,.006,0,0,0,.009,0h.006l.006.006h.009l.007,0h.006l.006,0,.007,0,.006,0,.006,0,.006,0,.006,0,.006,0h.006l.006,0,.009,0,0,0h.006l.035.013,0,0,.009,0h0l.186.073h0l.007,0h.006l.006.006.006,0h.006l.01,0,.006,0,.026.01.006,0,.006,0,.006,0h.013c.123.047.243.089.363.133l.009,0,.007,0,.006,0,.006,0,.013,0,.01,0h.009l0,0,.01,0,.006,0,0,0h.009l.006,0h0l.009,0,.007,0,0,0h.009l.006,0,.006,0,0,0h.007l.009,0h.006l.009.006.01,0,0,0h.006l.006,0,.006,0,.025.01.006,0h.009l.028.013h.01l.028.013.006,0,.025.009h.006l.006,0,.013,0,.007.006h.012l0,0h.009l.007.006h.006l.006,0,.032.013h.006l.006,0,.006,0,0,0h.009l.007,0,.006,0,.009,0,.323.1h.006l0,.006.016,0,.006,0,.01,0,0,0,.009,0h.016l.006,0,.006,0,.01,0,0,0,.006,0h.009l0,0h.006l.01,0h0l.01,0,.006,0,0,0,.007,0,.009,0h.013l.006,0,.007,0,0,0h.01l.006,0,.205.07h.013l.006.006h.009l0,0,.007,0h.009l.006,0,0,0h0l.006,0h.013l.007.006.006,0c.13.038.253.079.382.117l.01,0,.006,0h.006l.009,0h.006l.006,0,.009,0h.006l.006.006h.006l.006,0h.013l.006,0,.006,0h.006l.006,0,.009,0,0,0h.006l.007,0h.013l.006.006h.006l.006,0h.006l.006,0,.006,0,.006,0h.009l0,0h.006l.007,0h.006l.025.009.006,0,.013,0,.006,0,.085.022,0,0,.006,0h.01l.006,0,0,0H1643l.009,0h.013l.006.006.038.013h.006l0,0h.007l.274.079.006,0h.006l.022.006h.007l0,0h.01l.006,0,0,0h.006l.006,0,.006,0h.013l.006.006h.022l0,0,.013,0,0,0,.01,0h.006l.006,0,.007,0,.006,0h.016l.006,0h.009l.006,0,.01,0,.006,0,.01,0h.006l.016,0,0,0,.237.066h0l.006,0h.01l.006,0,.007,0,.009,0h0l.032.006.009,0,0,0h.009l0,0h.006l.206.054h0l.016.006h.006l.006,0h.006l.01.006h.022l.006,0h.007l.006,0,0,0h.013l0,0,.006,0h.006l0,0h.016l.009,0h0l.013,0,.009,0,.006,0,.009,0h0l.016,0,.01,0h.009l.006,0,.009,0,.322.085h.006l.01,0h.006l.01,0h.01l.006,0,.006,0h.01l.006,0,.01,0h.009l0,0c.123.032.243.057.367.085l.009,0h.013l.006.006h.022l.009,0h.006l.009.006h.01l.006,0h.006l.009,0h.007l.006,0,.007,0,.009,0h.019l.007,0h.006l.006,0h.006l0,0h.009l0,0,.006,0h.013l0,0,.01,0h.022l.009,0,0,0,.183.041h0l.006,0h.006l.006,0,.006,0h.013l0,0h.009l.445.092.006,0h.006l.01,0,.006,0h.006l.01,0h.016l.006.006h.019l.007,0h.013l.009,0,0,0h.007l.006,0h0l.016,0h.019l.006,0,.187.038.009,0h.006l.006,0h0l.009,0h.009l.009,0h.007l0,0h.019c.171.035.347.066.521.1l.006,0h.01l.009,0,.01,0h.013l.006,0,.013,0h.025l0,0h.009l0,0h.013l.006,0h.006l.006,0h.016l.007,0h.016l0,0,.126.022h.013v0h.013l0,0h.016c.139.028.284.047.42.07l.006,0h.029l0,0h.019l.006,0h.006l.009,0h.016l.01,0,.006,0h.029l.006,0h.006l.009,0h.019l0,0h.006l.01,0h.016l.2.035h.019l0,.006h.035l0,0c.29.044.581.079.872.117h.028l.01,0c.193.022.385.041.578.063h.009l.009,0h.026l.006,0h.007l.006,0h.029l0,0h.013l.006,0h.028l0,0,.111.01h.006l0,0h.016l.013,0c.3.025.594.054.888.076h.009c.3.019.6.035.9.051h.006c.3.016.6.025.9.032,27.717.578,46.79-13.165,58.337-34.674-.8,9.244-1.04,18.078-.977,26.7a160.284,160.284,0,0,0,1.359,19.758,20.126,20.126,0,0,0,4.875,10.385Z" transform="translate(-1396.396 -186.721)" fill="#f4a592" fill-rule="evenodd"/>
    <path id="Path_608" data-name="Path 608" d="M1970,532.8c-3.734-17.7-10.4-32.667-27.54-44.133-30.055-20.109-88.749-34.765-110.7-47.763-23.654,72.184-123.337,56.827-135.532-1.156-25.843,9.459-94.954,25.7-121.2,49.535-6.783,6.164-13,24.491-14.685,31.786l-4.568,29.271A253.186,253.186,0,0,0,1970,532.8Z" transform="translate(-1503.561 -143.217)" fill="#92e0ff" fill-rule="evenodd"/>
  </g>
</svg>
