<svg height="27.708" viewBox="0 0 27.708 27.708" width="27.708" xmlns="http://www.w3.org/2000/svg">
    <g fill="#92e0ff">
        <path
            d="m174.7 462.159-1.516-.262a9.212 9.212 0 0 1 5.216-6.797l.647 1.4a7.677 7.677 0 0 0 -4.347 5.659z"
            transform="translate(-168.425 -438.091)" />
        <path
            d="m193.544 462.158a7.6 7.6 0 0 0 -2.133-4.112 7.759 7.759 0 0 0 -2.211-1.546l.65-1.395a9.249 9.249 0 0 1 2.652 1.854 9.134 9.134 0 0 1 2.562 4.94z"
            transform="translate(-172.113 -438.091)" />
        <path
            d="m180.854 460.708a13.854 13.854 0 1 1 13.854-13.854 13.87 13.87 0 0 1 -13.854 13.854zm0-26.169a12.315 12.315 0 1 0 12.315 12.315 12.329 12.329 0 0 0 -12.315-12.315z"
            transform="translate(-167 -433)" />
        <path
            d="m183.157 454.854c-3.4 0-6.157-3.107-6.157-6.927s2.762-6.927 6.157-6.927 6.157 3.107 6.157 6.927-2.762 6.927-6.157 6.927zm0-12.315c-2.547 0-4.618 2.417-4.618 5.388s2.071 5.388 4.618 5.388 4.618-2.418 4.618-5.388-2.075-5.388-4.618-5.388z"
            transform="translate(-169.303 -434.843)" />
    </g>
</svg>