<svg xmlns="http://www.w3.org/2000/svg" width="26.752" height="26.752" viewBox="0 0 26.752 26.752">
    <path id="Path_469" data-name="Path 469"
        d="M15.027,29.59A12.839,12.839,0,0,0,20.2,28.538a13.706,13.706,0,0,0,7.156-7.156A12.862,12.862,0,0,0,28.4,16.214a12.862,12.862,0,0,0-1.046-5.167,13.713,13.713,0,0,0-7.17-7.163,12.911,12.911,0,0,0-5.174-1.046A12.844,12.844,0,0,0,9.866,3.884,13.713,13.713,0,0,0,2.7,11.047,12.862,12.862,0,0,0,1.65,16.214,12.79,12.79,0,0,0,2.7,21.382a13.751,13.751,0,0,0,7.163,7.156A12.8,12.8,0,0,0,15.027,29.59Zm0-2.463a10.677,10.677,0,0,1-4.239-.846,10.886,10.886,0,0,1-5.807-5.814,11.155,11.155,0,0,1,0-8.491,10.929,10.929,0,0,1,5.8-5.828A10.628,10.628,0,0,1,15.013,5.3a10.7,10.7,0,0,1,4.259.846,11,11,0,0,1,5.821,5.828,10.677,10.677,0,0,1,.846,4.239,10.473,10.473,0,0,1-.839,4.252,11.1,11.1,0,0,1-2.339,3.475,10.86,10.86,0,0,1-3.468,2.339A10.747,10.747,0,0,1,15.027,27.127ZM9.178,22.765h11.67a.736.736,0,0,0,.619-.248.978.978,0,0,0,.193-.619,3.4,3.4,0,0,0-.4-1.376,6.451,6.451,0,0,0-1.218-1.686,6.8,6.8,0,0,0-5.03-2.016,6.9,6.9,0,0,0-2.945.585A7.007,7.007,0,0,0,9.99,18.836a6.384,6.384,0,0,0-1.225,1.686,3.4,3.4,0,0,0-.4,1.376.935.935,0,0,0,.206.619A.743.743,0,0,0,9.178,22.765Zm5.835-6.977a3,3,0,0,0,1.686-.461,3.45,3.45,0,0,0,1.2-1.3,3.837,3.837,0,0,0,.447-1.858,3.607,3.607,0,0,0-.447-1.782A3.55,3.55,0,0,0,16.7,9.1a3.155,3.155,0,0,0-3.351,0,3.529,3.529,0,0,0-1.2,1.287,3.607,3.607,0,0,0-.447,1.782,3.612,3.612,0,0,0,.97,2.573A3.149,3.149,0,0,0,15.013,15.788Z"
        transform="translate(-1.65 -2.838)" fill="#fff" />
</svg>
