<svg xmlns="http://www.w3.org/2000/svg" width="16.572" height="21.016" viewBox="0 0 16.572 21.016">
  <path id="Path_473" data-name="Path 473" d="M5.332,22.105H15.947a3.042,3.042,0,0,0,2.231-.742,2.969,2.969,0,0,0,.747-2.2V10.025a2.986,2.986,0,0,0-.747-2.2,3.029,3.029,0,0,0-2.231-.747H13.418v1.68h2.461a1.408,1.408,0,0,1,1.016.347,1.378,1.378,0,0,1,.361,1.04v8.906a1.364,1.364,0,0,1-.361,1.03,1.408,1.408,0,0,1-1.016.347H5.4a1.39,1.39,0,0,1-1.011-.347,1.375,1.375,0,0,1-.356-1.03V10.143A1.389,1.389,0,0,1,4.39,9.1,1.39,1.39,0,0,1,5.4,8.756H7.871V7.076H5.332a3.045,3.045,0,0,0-2.227.742,2.971,2.971,0,0,0-.752,2.207v9.141a2.957,2.957,0,0,0,.752,2.2A3.045,3.045,0,0,0,5.332,22.105Zm5.313-7.3a.809.809,0,0,0,.8-.791V4.625l-.059-1.367.6.664L13.32,5.338a.678.678,0,0,0,.547.244.73.73,0,0,0,.508-.2.643.643,0,0,0,.215-.5.7.7,0,0,0-.234-.518L11.25,1.363a1.063,1.063,0,0,0-.308-.215.786.786,0,0,0-.6,0,1.063,1.063,0,0,0-.308.215L6.934,4.371a.7.7,0,0,0-.234.518.65.65,0,0,0,.21.5.725.725,0,0,0,.513.2.7.7,0,0,0,.547-.244L9.307,3.922l.605-.674L9.844,4.625V14.01a.809.809,0,0,0,.8.791Z" transform="translate(-2.354 -1.09)" fill="#707070"/>
</svg>
