<svg height="89.289" viewBox="0 0 366.856 89.289" width="366.856" xmlns="http://www.w3.org/2000/svg"
    xmlns:xlink="http://www.w3.org/1999/xlink">
    <linearGradient id="a" gradientUnits="objectBoundingBox" x1=".5" x2=".5" y2="1">
        <stop offset="0" stop-color="#1d1d1b" />
        <stop offset="1" />
    </linearGradient>
    <g fill="url(#a)" opacity=".158">
        <path
            d="m376.087 393.328h28.076a1.989 1.989 0 0 0 1.549-.72 1.685 1.685 0 0 0 .331-1.45 9.486 9.486 0 0 0 -9.308-7.437h-1.556c-.653 0-1.2-.8-1.2-1.757v-.976c6.854-1.309 10.832-5.688 11.1-6.867a.476.476 0 0 0 -.163-.528c-1.448-1.04-2.4-3.514-3.41-6.134-1.909-4.957-4.285-11.127-11.378-11.127-7.141 0-9.537 6.212-11.461 11.2-.994 2.578-1.933 5.014-3.333 6.062a.486.486 0 0 0 -.153.551c.312 1.239 4.43 5.731 11.308 6.917v.9c0 .969-.587 1.757-1.31 1.757h-1.661a9.487 9.487 0 0 0 -9.309 7.438 1.686 1.686 0 0 0 .331 1.45 1.989 1.989 0 0 0 1.547.721zm8.086-21.013a.56.56 0 0 0 -.558-.515c-.044 0-.205.025-.24.025-.445 0-1.014-.636-1.151-1.584-.136-.932.219-1.787.775-1.868a1.073 1.073 0 0 0 .843-.605c.283-.706 1.381-2.383 5.464-2.708l.176-.014c1.8-.142 3.663-.289 4.992-1.492a.342.342 0 0 1 .236-.1c.618 0 1.771 1.694 1.8 4.461a.47.47 0 0 0 .472.47 1.952 1.952 0 0 1 .273-.011c.556.081.91.936.775 1.868-.138.949-.7 1.586-1.145 1.586-.035 0-.208-.029-.256-.029a.534.534 0 0 0 -.536.459c-.944 4.625-3.34 7.732-5.964 7.732s-5.005-3.09-5.956-7.675zm-8.154 1.628c1.4-1.235 2.287-3.526 3.3-6.155 1.944-5.04 4.146-10.753 10.806-10.753 6.611 0 8.8 5.672 10.723 10.676 1.029 2.671 1.926 5 3.377 6.234a.22.22 0 0 1 .054.266c-.661 1.1-4.148 4.842-10.3 6.061v-1.572a13.753 13.753 0 0 0 2.777-6.174 1.227 1.227 0 0 0 .13.007c.868 0 1.659-.94 1.84-2.187.2-1.354-.4-2.525-1.369-2.665a1.088 1.088 0 0 0 -.149-.011c-.093-2.952-1.344-4.917-2.5-4.917a1.045 1.045 0 0 0 -.708.284c-1.151 1.042-2.814 1.173-4.575 1.312l-.176.014c-4.475.355-5.729 2.319-6.061 3.147a.418.418 0 0 1 -.292.171c-.965.14-1.566 1.311-1.369 2.665.181 1.246.975 2.185 1.847 2.185a1.138 1.138 0 0 0 .123-.007 13.377 13.377 0 0 0 2.988 6.406v1.425c-6.343-1.13-9.881-5.01-10.523-6.139a.231.231 0 0 1 .057-.274zm9.158 10.481a2.273 2.273 0 0 0 2.013-2.46v-2.385a4.665 4.665 0 0 0 2.936 1.113 4.76 4.76 0 0 0 3.147-1.287v2.559a2.24 2.24 0 0 0 1.907 2.46h1.556c.134 0 .268 0 .4.01l-6.86 5.479a.34.34 0 0 1 -.383 0l-6.815-5.477c.146-.007.292-.012.439-.012zm-10.284 6.889a8.777 8.777 0 0 1 7.191-6.774l7.368 5.921a1.042 1.042 0 0 0 1.262 0l7.416-5.923a8.907 8.907 0 0 1 7.227 6.774 1 1 0 0 1 -.194.856 1.281 1.281 0 0 1 -1 .456h-28.076a1.281 1.281 0 0 1 -1-.456 1 1 0 0 1 -.194-.854z"
            transform="translate(-324.662 -353.756)" />
        <path
            d="m647.762 381.138h28.076a1.989 1.989 0 0 0 1.549-.72 1.685 1.685 0 0 0 .331-1.449 9.511 9.511 0 0 0 -7.277-7.22v-.033a.89.89 0 0 0 -.526-.826l-2.553-1.057a.636.636 0 0 0 -.879.457l-.224 1.008a2.012 2.012 0 0 1 -.611-1.525v-2.037a13.761 13.761 0 0 0 2.777-6.174 1.223 1.223 0 0 0 .13.007c.868 0 1.659-.94 1.84-2.187a3.049 3.049 0 0 0 -.219-1.721 2.036 2.036 0 0 0 -.249-.4 8.516 8.516 0 0 0 .174-1.694 8.384 8.384 0 0 0 -4.483-7.428 3.94 3.94 0 0 0 .748-2.288 4.584 4.584 0 0 0 -9.133 0 3.928 3.928 0 0 0 .748 2.288 8.4 8.4 0 0 0 -4.311 9.123 2.037 2.037 0 0 0 -.249.4 3.049 3.049 0 0 0 -.219 1.721c.181 1.246.975 2.185 1.847 2.185a1.2 1.2 0 0 0 .123-.006 13.378 13.378 0 0 0 2.988 6.405v1.807a1.849 1.849 0 0 1 -.81 1.621l-.236-1.105a.636.636 0 0 0 -.878-.457l-2.554 1.057a.889.889 0 0 0 -.525.826v.032a9.509 9.509 0 0 0 -7.277 7.22 1.685 1.685 0 0 0 .331 1.45 1.988 1.988 0 0 0 1.551.72zm11.531-.7c-.292-1.342-1.127-5.238-1.674-7.793l3.547 2.4a1.18 1.18 0 0 0 1.267 0l3.533-2.419-1.737 7.814zm11.115-7.973a8.807 8.807 0 0 1 6.624 6.661 1 1 0 0 1 -.194.856 1.281 1.281 0 0 1 -1 .456h-8.738l2.318-3.258a.95.95 0 0 0 .05-.97l-.623-1.09a.1.1 0 0 1 .089-.156l.685-.014a.728.728 0 0 0 .711-.694zm-3.09-1.887 2.329.964a.2.2 0 0 1 .092.145l-.116 2.538a.032.032 0 0 1 -.023.023l-1.1.022a.539.539 0 0 0 -.475.838l.829 1.452a.257.257 0 0 1 -.012.212l-2.608 3.666h-1.285l2.169-9.755a.143.143 0 0 1 .2-.108zm-9.382-24.724a3.885 3.885 0 0 1 7.728 0 3.252 3.252 0 0 1 -.69 1.983 8.224 8.224 0 0 0 -6.346 0 3.242 3.242 0 0 1 -.692-1.986zm3.864 2.046a7.642 7.642 0 0 1 7.6 7.667 7.788 7.788 0 0 1 -.1 1.225 1.307 1.307 0 0 0 -.272-.074 1.1 1.1 0 0 0 -.153-.011c-.181-2.829-2.993-5.338-4.1-5.338a.616.616 0 0 0 -.464.184.65.65 0 0 0 -.165.5c.049.981-.944 1.167-3.063 1.333l-.164.013c-4.475.356-5.729 2.319-6.061 3.147a.419.419 0 0 1 -.292.171 1.314 1.314 0 0 0 -.274.074 7.827 7.827 0 0 1 -.1-1.225 7.642 7.642 0 0 1 7.608-7.666zm-6.75 12.965c-.445 0-1.014-.636-1.151-1.584a2.34 2.34 0 0 1 .159-1.319.9.9 0 0 1 .615-.549 1.073 1.073 0 0 0 .843-.606c.283-.706 1.381-2.383 5.464-2.707l.164-.013c1.78-.14 3.617-.284 3.709-1.832.006-.1.08-.159.17-.121a6.273 6.273 0 0 1 3.159 4.819.47.47 0 0 0 .472.47.559.559 0 0 0 .06 0 .826.826 0 0 1 .213-.008.9.9 0 0 1 .615.549 2.336 2.336 0 0 1 .159 1.319c-.138.949-.7 1.586-1.145 1.586-.035 0-.208-.029-.256-.029a.534.534 0 0 0 -.536.459c-.944 4.625-3.341 7.732-5.964 7.732s-5-3.084-5.952-7.674a.56.56 0 0 0 -.559-.515c-.044-.002-.205.023-.239.023zm3.815 8.909v-1.155a4.664 4.664 0 0 0 2.935 1.113 4.76 4.76 0 0 0 3.147-1.287v1.329a2.678 2.678 0 0 0 .891 2.084l-3.8 2.6a.486.486 0 0 1 -.476 0l-3.737-2.531a2.57 2.57 0 0 0 1.039-2.153zm-2.583.8a.141.141 0 0 1 .2.1c.283 1.323 1.651 7.716 2.093 9.755h-1.158l-2.658-3.668a.257.257 0 0 1 -.011-.211l.83-1.452a.539.539 0 0 0 -.475-.838l-1.1-.022a.032.032 0 0 1 -.024-.023l-.115-2.538a.2.2 0 0 1 .092-.145zm-3.089 1.887.081 1.791a.729.729 0 0 0 .712.694l.685.014a.1.1 0 0 1 .088.156l-.623 1.091a.952.952 0 0 0 .052.971l2.36 3.257h-8.785a1.28 1.28 0 0 1 -1-.456 1 1 0 0 1 -.194-.856 8.806 8.806 0 0 1 6.623-6.661z"
            transform="translate(-548.599 -341.669)" />
        <path d="m734.24 538.341a.516.516 0 1 0 .516.516.516.516 0 0 0 -.516-.516z"
            transform="translate(-621.042 -503.782)" />
        <path d="m734.24 550.505a.516.516 0 1 0 .516.516.516.516 0 0 0 -.516-.516z"
            transform="translate(-621.042 -513.809)" />
        <path
            d="m913.643 393.328h28.076a1.989 1.989 0 0 0 1.549-.72 1.686 1.686 0 0 0 .331-1.45 9.5 9.5 0 0 0 -7.956-7.341.683.683 0 0 0 -.148-.109l-3.276-1.8a.728.728 0 0 0 -.35-.089.748.748 0 0 0 -.339.081v-.9c6.91-1.287 10.921-5.7 11.193-6.884a.476.476 0 0 0 -.163-.528c-1.448-1.04-2.4-3.514-3.409-6.134-1.909-4.957-4.285-11.127-11.379-11.127-7.141 0-9.536 6.212-11.461 11.2-.994 2.578-1.933 5.014-3.333 6.062a.486.486 0 0 0 -.152.551c.31 1.233 4.393 5.692 11.217 6.9v.887a.736.736 0 0 0 -.4-.116.723.723 0 0 0 -.348.089l-3.421 1.887a9.514 9.514 0 0 0 -8.113 7.362 1.685 1.685 0 0 0 .331 1.449 1.989 1.989 0 0 0 1.551.73zm14.128-13.339c-2.609 0-5-3.084-5.952-7.674a.56.56 0 0 0 -.559-.515c-.044 0-.205.025-.24.025-.445 0-1.013-.636-1.151-1.584-.136-.932.219-1.787.775-1.868a1.073 1.073 0 0 0 .843-.605c.283-.706 1.381-2.383 5.464-2.708l.176-.014c1.8-.142 3.663-.289 4.992-1.492a.342.342 0 0 1 .236-.1c.618 0 1.771 1.694 1.8 4.461a.47.47 0 0 0 .472.47 1.961 1.961 0 0 1 .274-.011c.555.081.91.936.775 1.868-.138.949-.7 1.586-1.145 1.586-.035 0-.208-.029-.256-.029a.534.534 0 0 0 -.536.459c-.948 4.623-3.345 7.731-5.968 7.731zm-3.026-.485a4.456 4.456 0 0 0 6.082-.023v2.483a3.153 3.153 0 0 0 .079.7l-3.105 4.644a.107.107 0 0 1 -.193 0l-2.966-4.569a2.975 2.975 0 0 0 .1-.774zm-11.08-5.561c1.4-1.235 2.287-3.526 3.3-6.155 1.944-5.04 4.146-10.753 10.806-10.753 6.611 0 8.8 5.672 10.723 10.677 1.029 2.671 1.926 5 3.377 6.233a.22.22 0 0 1 .054.266c-.664 1.109-4.182 4.878-10.394 6.078v-1.489a13.589 13.589 0 0 0 2.868-6.276 1.226 1.226 0 0 0 .13.007c.868 0 1.659-.94 1.841-2.187.2-1.354-.4-2.525-1.369-2.665a1.089 1.089 0 0 0 -.149-.011c-.094-2.952-1.345-4.917-2.5-4.917a1.045 1.045 0 0 0 -.708.284c-1.151 1.042-2.814 1.173-4.575 1.312l-.176.014c-4.475.355-5.729 2.319-6.061 3.147a.419.419 0 0 1 -.292.171c-.965.14-1.566 1.311-1.369 2.665.182 1.246.975 2.185 1.847 2.185a1.136 1.136 0 0 0 .123-.007 13.534 13.534 0 0 0 2.9 6.307v1.508c-6.287-1.15-9.793-5-10.433-6.124a.231.231 0 0 1 .057-.271zm10.084 8.71 3.464 5.336a.563.563 0 0 0 .973.007s3.5-5.234 3.573-5.343.149-.112.271-.046l2.677 1.471c.085.047.083.118 0 .16l-1.542.731a.563.563 0 0 0 -.134.964l.367.321a.135.135 0 0 1 -.009.22l-5.613 4.132a.162.162 0 0 1 -.148 0l-5.543-4.111a.138.138 0 0 1 -.011-.222l.2-.18a.576.576 0 0 0 -.126-.97l-1.5-.775c-.086-.044-.087-.118 0-.165l2.873-1.582a.182.182 0 0 1 .228.052zm-4.1 1.887a.623.623 0 0 0 .24.21l1.639.844a.113.113 0 0 1 .026.2l-.141.127a.627.627 0 0 0 .048.988l5.747 4.262a.855.855 0 0 0 .983 0l5.824-4.287a.621.621 0 0 0 .042-.987l-.293-.256a.107.107 0 0 1 .026-.191l1.68-.8a.663.663 0 0 0 .181-.125 8.8 8.8 0 0 1 7.265 6.784 1 1 0 0 1 -.194.856 1.281 1.281 0 0 1 -1 .456h-28.079a1.282 1.282 0 0 1 -1-.456 1 1 0 0 1 -.194-.856 8.812 8.812 0 0 1 7.197-6.769z"
            transform="translate(-767.759 -353.756)" />
        <path
            d="m979.754 421.813a2.841 2.841 0 0 0 -2.182-.687c-.121 0-.249 0-.384.01a3.88 3.88 0 0 0 -2.437.723h-1.891a3.878 3.878 0 0 0 -2.436-.723q-.2-.01-.384-.01a2.842 2.842 0 0 0 -2.182.687 1.173 1.173 0 0 0 -.313.834 2.862 2.862 0 0 0 5.724-.009.6.6 0 0 0 0-.076h1.082a.581.581 0 0 0 0 .072 2.862 2.862 0 0 0 5.724.013 1.174 1.174 0 0 0 -.321-.834zm-9.346 2.98a2.162 2.162 0 0 1 -2.159-2.159v-.011-.021a.491.491 0 0 1 .152-.338 2.36 2.36 0 0 1 1.642-.435q.166 0 .35.009c1.709.083 2.149.606 2.177.806a2.162 2.162 0 0 1 -2.162 2.149zm6.8 0a2.163 2.163 0 0 1 -2.159-2.149c.027-.2.467-.723 2.177-.806q.184-.009.35-.009a2.359 2.359 0 0 1 1.642.435.5.5 0 0 1 .153.328v.041a2.162 2.162 0 0 1 -2.171 2.16z"
            transform="translate(-813.774 -407.164)" />
        <path
            d="m105.419 398.262h28.081a1.988 1.988 0 0 0 1.549-.72 1.685 1.685 0 0 0 .331-1.45 9.511 9.511 0 0 0 -7.277-7.22v-.033a.89.89 0 0 0 -.526-.826l-2.554-1.057a.636.636 0 0 0 -.878.457l-.224 1.009a2.013 2.013 0 0 1 -.611-1.525v-3.215a11.019 11.019 0 0 0 3.556-5.141l.026.007a.98.98 0 0 0 .79-.131 2.906 2.906 0 0 0 1.1-1.891c.262-1.3-.13-2.4-.911-2.586a19.677 19.677 0 0 0 .392-3.551 7.267 7.267 0 0 0 -1.649-5.119 2.624 2.624 0 0 0 -1.864-.842c-.037 0-.076 0-.12.006a.652.652 0 0 1 -.577-.2 7.9 7.9 0 0 0 -4.946-1.794c-4.3 0-7.939 3.686-8.281 8.392a23.485 23.485 0 0 0 .186 3.113c-.763.2-1.143 1.291-.884 2.578s1.057 2.163 1.855 2.031l.045-.006a10.808 10.808 0 0 0 3.792 5.3v3.052a1.849 1.849 0 0 1 -.81 1.621l-.236-1.105a.636.636 0 0 0 -.878-.457l-2.554 1.057a.89.89 0 0 0 -.526.826v.032a9.509 9.509 0 0 0 -7.277 7.22 1.685 1.685 0 0 0 .331 1.45 1.988 1.988 0 0 0 1.549.718zm11.531-.7c-.292-1.342-1.127-5.238-1.674-7.793l3.548 2.4a1.179 1.179 0 0 0 1.267 0l3.533-2.419-1.737 7.814zm11.115-7.973a8.808 8.808 0 0 1 6.624 6.661 1 1 0 0 1 -.194.856 1.281 1.281 0 0 1 -1 .456h-8.742l2.318-3.258a.951.951 0 0 0 .05-.97l-.623-1.09a.1.1 0 0 1 .089-.156l.685-.014a.729.729 0 0 0 .711-.694zm-3.089-1.887 2.329.964a.2.2 0 0 1 .092.145l-.116 2.538a.031.031 0 0 1 -.023.023l-1.1.022a.539.539 0 0 0 -.475.838l.829 1.451a.256.256 0 0 1 -.012.213l-2.608 3.666h-1.285l2.169-9.755a.143.143 0 0 1 .2-.107zm-5.869-24.553a7.207 7.207 0 0 1 4.508 1.641 1.42 1.42 0 0 0 .909.356c.059 0 .207-.012.226-.012a1.94 1.94 0 0 1 1.366.635 6.682 6.682 0 0 1 1.444 4.62 19.207 19.207 0 0 1 -.381 3.425c-.019.1-.059.1-.09.005a7.362 7.362 0 0 0 -1.7-2.635 7.152 7.152 0 0 1 -1.465-2.127.729.729 0 0 0 -.671-.527.813.813 0 0 0 -.593.293c-1.642 1.738-4.663 2.817-7.885 2.817-.722 0-2.277.3-2.929 2.706-.025.094-.056.092-.07 0a23.33 23.33 0 0 1 -.245-3.455c.311-4.344 3.641-7.744 7.576-7.744zm-6.456 15.061c-.047-.134-.218-.436-.783-.344-.345.058-.868-.562-1.052-1.476a1.846 1.846 0 0 1 .294-1.723c.07.45.157.908.264 1.354.039.163.131.546.471.546.39 0 .428-.469.441-.623.188-2.288 1.093-3.6 2.485-3.6 3.46 0 6.6-1.135 8.4-3.037a.068.068 0 0 1 .1.019 7.822 7.822 0 0 0 1.591 2.327 6.2 6.2 0 0 1 1.785 3.223c.077.384.245.579.5.579s.409-.18.5-.536c.024-.092.048-.19.073-.291.286.08.568.788.372 1.76a2.248 2.248 0 0 1 -.781 1.43.3.3 0 0 1 -.232.055c-.595-.168-.793.189-.85.351-1.336 3.771-3.936 6.114-6.786 6.114s-5.458-2.349-6.792-6.13zm3.871 8.69v-2.613a6.046 6.046 0 0 0 6.082-.135v2.748a2.678 2.678 0 0 0 .891 2.084l-3.8 2.6a.485.485 0 0 1 -.476 0l-3.738-2.531a2.57 2.57 0 0 0 1.041-2.153zm-2.583.8a.141.141 0 0 1 .2.1c.283 1.322 1.651 7.716 2.093 9.755h-1.158l-2.658-3.668a.257.257 0 0 1 -.011-.211l.83-1.451a.539.539 0 0 0 -.475-.838l-1.1-.022a.031.031 0 0 1 -.024-.023l-.116-2.537a.2.2 0 0 1 .092-.145zm-3.089 1.887.082 1.791a.729.729 0 0 0 .711.694l.685.014a.1.1 0 0 1 .089.156l-.623 1.09a.951.951 0 0 0 .051.971l2.36 3.257h-8.785a1.281 1.281 0 0 1 -1-.456 1 1 0 0 1 -.194-.856 8.807 8.807 0 0 1 6.623-6.662z"
            transform="translate(-101.556 -358.794)" />
        <path d="m191.9 538.341a.516.516 0 1 0 .516.516.516.516 0 0 0 -.516-.516z"
            transform="translate(-174 -503.783)" />
        <path d="m191.9 550.505a.516.516 0 1 0 .516.516.516.516 0 0 0 -.516-.516z"
            transform="translate(-174 -513.809)" />
        <path
            d="m164.8 432.625v-1.186h1.577v1.186a.947.947 0 0 0 .946.946h3.443a.947.947 0 0 0 .946-.946v-1.648a.947.947 0 0 0 -.946-.946h-3.443a.946.946 0 0 0 -.911.705h-1.647a.945.945 0 0 0 -.911-.705h-3.443a.947.947 0 0 0 -.946.946v1.648a.947.947 0 0 0 .946.946h3.443a.947.947 0 0 0 .946-.946zm2.28-1.648a.244.244 0 0 1 .243-.243h3.443a.244.244 0 0 1 .243.243v1.648a.244.244 0 0 1 -.243.243h-3.443a.244.244 0 0 1 -.243-.243zm-6.912 1.648v-1.648a.244.244 0 0 1 .243-.243h3.443a.244.244 0 0 1 .243.243v1.648a.244.244 0 0 1 -.243.243h-3.443a.244.244 0 0 1 -.24-.243z"
            transform="translate(-147.693 -414.505)" />
        <path
            d="m388.654 659.15a.869.869 0 0 0 -.178-.262l-2.137-2.132a.88.88 0 0 0 -1.243 0l-.09.09v-1.412a12.512 12.512 0 0 0 3.872-6.848 1.19 1.19 0 0 0 .7-.183 3.6 3.6 0 0 0 1.354-2.326 3.4 3.4 0 0 0 -.39-2.683 8 8 0 0 0 .588-3.044 6.531 6.531 0 0 0 -4.653-6.62 3.856 3.856 0 0 0 -1.1-.143c-.121 0-.217 0-.521-.24a8.138 8.138 0 0 0 -5.016-1.745c-2.993 0-5.306 1.108-6.688 3.205a11.45 11.45 0 0 0 -1.2 8.27c-.7.435-1.012 1.636-.738 3 .293 1.455 1.158 2.5 2.035 2.5h.015a12.519 12.519 0 0 0 3.876 6.862v1.407l-.086-.086a.879.879 0 0 0 -1.242 0l-2.142 2.14a.872.872 0 0 0 -.173.252 14.52 14.52 0 0 0 -10.207 8.648 1.536 1.536 0 0 0 .1 1.46 1.654 1.654 0 0 0 1.416.687h32.534a1.654 1.654 0 0 0 1.416-.687 1.536 1.536 0 0 0 .1-1.46 14.5 14.5 0 0 0 -10.202-8.65zm-3.061-1.9a.177.177 0 0 1 .249 0l2.137 2.132a.176.176 0 0 1 0 .248l-3.9 3.9a.175.175 0 0 1 -.248 0l-2.263-2.263zm-5.021 7.692a.7.7 0 0 0 .994 0l.016-.016.948 4.312h-2.911l.946-4.3zm.373-.621-1.211-1.211 1.343-1.343 1.335 1.335-1.219 1.219a.175.175 0 0 1 -.248.005zm-1.1-32.02a7.432 7.432 0 0 1 4.581 1.594 1.4 1.4 0 0 0 1.058.39 2.136 2.136 0 0 1 .789.113 5.791 5.791 0 0 1 4.155 5.948 6.98 6.98 0 0 1 -1.121 3.88c-.054.08-.107.066-.119-.03-.356-3.05-2.174-5.3-4.338-5.3a2.479 2.479 0 0 0 -1.549.642 6.242 6.242 0 0 1 -3.837 1.289c-.321.021-.625.032-.906.032a4.362 4.362 0 0 1 -2.49-.535 1.354 1.354 0 0 0 -.695-.238c-1.225 0-1.957 2.057-2.282 4.255-.014.1-.05.1-.08.007-.89-2.766-.935-6.629.732-9.157 1.263-1.913 3.316-2.885 6.101-2.885zm-5.923 15.973a.481.481 0 0 0 -.19-.341.517.517 0 0 0 -.41-.072c-.468.09-1.164-.68-1.415-1.926a2.856 2.856 0 0 1 .228-2.078 11.716 11.716 0 0 0 .558 1.649c.048.112.193.451.51.451.155 0 .422-.079.473-.606.3-3.147 1.173-4.562 1.7-4.562a.8.8 0 0 1 .348.146 5.036 5.036 0 0 0 2.837.626c.3 0 .616-.011.953-.034a6.929 6.929 0 0 0 4.205-1.423 1.831 1.831 0 0 1 1.134-.507c1.885 0 3.464 2.171 3.675 5.05.036.488.322.662.557.662a.676.676 0 0 0 .531-.307 6.678 6.678 0 0 0 .558-.843 3.336 3.336 0 0 1 .073 1.776 2.9 2.9 0 0 1 -1.027 1.862.439.439 0 0 1 -.352.073.482.482 0 0 0 -.384.041.577.577 0 0 0 -.255.386c-1.082 4.753-3.955 7.946-7.149 7.946s-6.08-3.198-7.159-7.964zm3.925 7.67a5.713 5.713 0 0 0 6.458 0v1.6l-3.227 3.227-3.231-3.231zm-3.676 3.446 2.142-2.14a.176.176 0 0 1 .249 0l4.02 4.02-2.263 2.263a.176.176 0 0 1 -.249 0l-3.9-3.894a.175.175 0 0 1 0-.248zm-10.194 9.472a.836.836 0 0 1 -.035-.8 13.819 13.819 0 0 1 9.551-8.192.877.877 0 0 0 .182.267l3.9 3.895a.879.879 0 0 0 1.242 0l.423-.423.739.739-1.076 4.892h-14.096a.968.968 0 0 1 -.832-.374zm34.2 0a.968.968 0 0 1 -.832.376h-14.095l-1.078-4.9.737-.737.43.43a.878.878 0 0 0 1.242 0l3.9-3.9a.87.87 0 0 0 .176-.259 13.8 13.8 0 0 1 9.555 8.194.836.836 0 0 1 -.038.8z"
            transform="translate(-315.588 -580.657)" />
        <path
            d="m707.969 702.349a.576.576 0 0 0 0 .072 2.862 2.862 0 0 0 5.725.013 1.175 1.175 0 0 0 -.313-.833 2.841 2.841 0 0 0 -2.182-.687q-.182 0-.384.01a3.88 3.88 0 0 0 -2.436.723h-1.891a3.878 3.878 0 0 0 -2.436-.723q-.2-.01-.384-.01a2.842 2.842 0 0 0 -2.182.687 1.174 1.174 0 0 0 -.313.834 2.862 2.862 0 0 0 5.725-.009.6.6 0 0 0 0-.076zm2.875-.724q.184-.009.35-.009a2.36 2.36 0 0 1 1.642.435.5.5 0 0 1 .153.328v.041a2.159 2.159 0 0 1 -4.319.01c.03-.199.464-.722 2.174-.805zm-6.814 2.955a2.162 2.162 0 0 1 -2.159-2.159v-.041a.5.5 0 0 1 .138-.312c.15-.168.564-.451 1.657-.451q.166 0 .349.009c1.71.083 2.149.606 2.177.806a2.162 2.162 0 0 1 -2.162 2.148z"
            transform="translate(-594.204 -637.788)" />
        <path
            d="m636.474 669.949h32.534a1.654 1.654 0 0 0 1.416-.688 1.536 1.536 0 0 0 .1-1.46 14.5 14.5 0 0 0 -10.2-8.647.875.875 0 0 0 -.179-.262l-2.137-2.132a.88.88 0 0 0 -1.243 0l-.09.09v-1.41a12.511 12.511 0 0 0 3.872-6.848 1.19 1.19 0 0 0 .7-.183 3.6 3.6 0 0 0 1.355-2.326 3.364 3.364 0 0 0 -.413-2.712 8.012 8.012 0 0 0 .576-3.014 6.531 6.531 0 0 0 -4.653-6.62 3.845 3.845 0 0 0 -1.1-.143c-.121 0-.217 0-.522-.24a8.137 8.137 0 0 0 -5.016-1.746c-2.993 0-5.306 1.108-6.688 3.205a11.458 11.458 0 0 0 -1.2 8.289 2.918 2.918 0 0 0 -.706 2.98c.293 1.455 1.158 2.5 2.035 2.5h.015a12.518 12.518 0 0 0 3.875 6.862v1.407l-.086-.086a.879.879 0 0 0 -1.242 0l-2.142 2.14a.875.875 0 0 0 -.174.252 14.52 14.52 0 0 0 -10.209 8.648 1.536 1.536 0 0 0 .1 1.46 1.654 1.654 0 0 0 1.422.684zm16.137-5.62-1.211-1.211 1.343-1.343 1.335 1.335-1.219 1.219a.176.176 0 0 1 -.248.001zm-.373.621a.7.7 0 0 0 .994 0l.016-.016.948 4.312h-2.911l.946-4.3zm17.637 3.118a.836.836 0 0 1 -.035.8.969.969 0 0 1 -.832.376h-14.091l-1.078-4.9.737-.737.43.43a.878.878 0 0 0 1.243 0l3.9-3.9a.872.872 0 0 0 .177-.259 13.8 13.8 0 0 1 9.55 8.191zm-12.616-10.81a.177.177 0 0 1 .25 0l2.137 2.132a.175.175 0 0 1 0 .248l-3.9 3.9a.175.175 0 0 1 -.248 0l-2.263-2.263zm-5.784-24.948a7.432 7.432 0 0 1 4.581 1.595 1.4 1.4 0 0 0 1.058.39 2.158 2.158 0 0 1 .789.114 5.791 5.791 0 0 1 4.155 5.948 6.982 6.982 0 0 1 -1.121 3.88c-.054.081-.107.066-.119-.03-.356-3.05-2.174-5.3-4.338-5.3a2.48 2.48 0 0 0 -1.549.642 6.243 6.243 0 0 1 -3.837 1.289c-.321.021-.626.032-.906.032a4.364 4.364 0 0 1 -2.49-.535 1.353 1.353 0 0 0 -.695-.238c-1.225 0-1.957 2.057-2.282 4.255-.014.1-.05.1-.08.007-.891-2.766-.935-6.629.732-9.157 1.265-1.919 3.318-2.891 6.103-2.891zm-5.888 15.972a.481.481 0 0 0 -.19-.341.518.518 0 0 0 -.41-.072c-.463.089-1.164-.679-1.415-1.926a2.935 2.935 0 0 1 .2-2.042 11.718 11.718 0 0 0 .549 1.614c.048.111.193.451.51.451.155 0 .422-.079.473-.606.3-3.147 1.174-4.562 1.7-4.562a.8.8 0 0 1 .348.146 5.035 5.035 0 0 0 2.837.626c.3 0 .616-.011.953-.034a6.93 6.93 0 0 0 4.205-1.423 1.829 1.829 0 0 1 1.134-.507c1.884 0 3.464 2.171 3.675 5.05.036.488.322.662.557.662a.676.676 0 0 0 .531-.307 6.634 6.634 0 0 0 .578-.879 3.283 3.283 0 0 1 .088 1.811 2.9 2.9 0 0 1 -1.027 1.862.439.439 0 0 1 -.352.073.482.482 0 0 0 -.384.04.579.579 0 0 0 -.255.386c-1.082 4.753-3.955 7.946-7.149 7.946s-6.076-3.201-7.155-7.967zm3.924 7.67a5.713 5.713 0 0 0 6.458 0v1.6l-3.227 3.227-3.231-3.231zm-3.676 3.446 2.142-2.14a.175.175 0 0 1 .248 0l4.02 4.02-2.263 2.263a.176.176 0 0 1 -.249 0l-3.9-3.894a.175.175 0 0 1 0-.248zm-10.229 8.67a13.818 13.818 0 0 1 9.551-8.192.876.876 0 0 0 .182.267l3.9 3.895a.879.879 0 0 0 1.243 0l.423-.422.739.739-1.076 4.892h-14.094a.969.969 0 0 1 -.832-.376.837.837 0 0 1 -.035-.802z"
            transform="translate(-539.517 -580.661)" />
        <path
            d="m94.115 669.945h32.534a1.654 1.654 0 0 0 1.416-.687 1.536 1.536 0 0 0 .1-1.46 14.5 14.5 0 0 0 -10.531-8.719l-.159-.028-.378-.512a1.846 1.846 0 0 0 -1.058-.649l-.561-.094a.868.868 0 0 0 -.338.01l-.56-.579a.885.885 0 0 0 -.267-.187v-1.6a12.512 12.512 0 0 0 3.872-6.848 1.189 1.189 0 0 0 .7-.183 3.6 3.6 0 0 0 1.354-2.326 3.288 3.288 0 0 0 -.458-2.766 8.019 8.019 0 0 0 .555-2.961 6.531 6.531 0 0 0 -4.653-6.62 3.856 3.856 0 0 0 -1.1-.143c-.121 0-.217 0-.521-.24a8.139 8.139 0 0 0 -5.016-1.745c-2.993 0-5.306 1.108-6.688 3.205a11.474 11.474 0 0 0 -1.189 8.329 3 3 0 0 0 -.648 2.941c.293 1.455 1.158 2.5 2.035 2.5h.015a12.517 12.517 0 0 0 3.875 6.862v1.6a.876.876 0 0 0 -.269.188l-.558.578a.865.865 0 0 0 -.339-.01l-.561.094a1.848 1.848 0 0 0 -1.058.649l-.42.57a14.13 14.13 0 0 0 -10.659 8.69 1.55 1.55 0 0 0 .113 1.464 1.661 1.661 0 0 0 1.42.677zm12.662-12.279h.07a.169.169 0 0 1 .086.045l2.6 2.534c.015.014.032.025.048.038l-1.351 1.351a.878.878 0 0 0 0 1.243l1 1-1.033 5.366h-.425l-1.491-10.714a.87.87 0 0 0 -.1-.293l.5-.52a.168.168 0 0 1 .096-.05zm7.014.036a.216.216 0 0 1 .285.013l.5.52a.875.875 0 0 0 -.1.293l-1.491 10.714h-.441l-1.358-5.375.99-.99a.878.878 0 0 0 0-1.242l-1.352-1.352c-.006-.006-.013-.01-.019-.016zm-3.585 3.027a.176.176 0 0 1 .124.051l1.352 1.352a.176.176 0 0 1 0 .248l-1.352 1.352a.176.176 0 0 1 -.248 0l-1.352-1.352a.175.175 0 0 1 0-.248l1.352-1.352a.175.175 0 0 1 .125-.052zm-.361 3.679a.853.853 0 0 0 .752-.016l1.226 4.851h-2.909zm17.636 4.459a.968.968 0 0 1 -.832.376h-8.723l.927-1.807a.927.927 0 0 0 -.336-1.206l-1.517-.938a.1.1 0 0 1 0-.178l2.693-1.507a.8.8 0 0 0 .258-1.2l-1.846-2.5a13.8 13.8 0 0 1 9.407 8.156.836.836 0 0 1 -.03.803zm-12.118-10.378.561.094a1.15 1.15 0 0 1 .608.373l2.857 3.873a.1.1 0 0 1 -.036.166l-2.907 1.627a.631.631 0 0 0 -.025 1.14l1.727 1.067a.229.229 0 0 1 .08.287l-1.092 2.128h-3.436l1.477-10.617a.159.159 0 0 1 .187-.137zm-6.313-26.182a7.432 7.432 0 0 1 4.581 1.594 1.4 1.4 0 0 0 1.058.39 2.136 2.136 0 0 1 .789.113 5.791 5.791 0 0 1 4.155 5.948 6.98 6.98 0 0 1 -1.121 3.88c-.054.08-.108.066-.119-.03-.356-3.05-2.174-5.3-4.338-5.3a2.479 2.479 0 0 0 -1.549.642 6.242 6.242 0 0 1 -3.837 1.289c-.321.021-.625.032-.905.032a4.363 4.363 0 0 1 -2.49-.535 1.352 1.352 0 0 0 -.695-.238c-1.225 0-1.957 2.057-2.282 4.255-.014.1-.05.1-.08.007-.89-2.766-.935-6.629.732-9.157 1.264-1.919 3.317-2.891 6.101-2.891zm-5.822 15.973a.481.481 0 0 0 -.19-.341.517.517 0 0 0 -.41-.072c-.468.09-1.164-.68-1.415-1.926a3.069 3.069 0 0 1 .156-1.963 11.649 11.649 0 0 0 .529 1.535c.048.112.193.451.51.451.155 0 .422-.079.473-.606.3-3.147 1.173-4.562 1.7-4.562a.8.8 0 0 1 .348.146 5.036 5.036 0 0 0 2.837.626c.3 0 .616-.011.953-.034a6.929 6.929 0 0 0 4.205-1.423 1.83 1.83 0 0 1 1.134-.507c1.885 0 3.464 2.171 3.675 5.05.036.488.322.662.557.662a.675.675 0 0 0 .531-.307 6.668 6.668 0 0 0 .615-.947 3.2 3.2 0 0 1 .117 1.88 2.9 2.9 0 0 1 -1.027 1.862.439.439 0 0 1 -.352.073.482.482 0 0 0 -.384.041.577.577 0 0 0 -.255.386c-1.082 4.753-3.955 7.946-7.149 7.946s-6.078-3.205-7.157-7.971zm7.154 8.67a5.926 5.926 0 0 0 3.229-1v1.061a.886.886 0 0 0 -.278.16l-3 2.582a.234.234 0 0 1 -.3-.01l-2.6-2.534a.874.874 0 0 0 -.271-.179v-1.079a5.926 5.926 0 0 0 3.22.998zm-6.151 2.007a1.152 1.152 0 0 1 .608-.373l.561-.094a.158.158 0 0 1 .186.137l1.478 10.617h-3.437l-1.092-2.128a.229.229 0 0 1 .08-.287l1.727-1.067a.631.631 0 0 0 -.025-1.14l-2.907-1.627a.1.1 0 0 1 -.036-.166zm-1.628 1.023-1.794 2.432a.8.8 0 0 0 .258 1.2l2.693 1.507a.1.1 0 0 1 0 .178l-1.518.938a.927.927 0 0 0 -.335 1.205l.928 1.807h-8.72a.974.974 0 0 1 -.833-.375.85.85 0 0 1 -.042-.809 13.337 13.337 0 0 1 9.36-8.085z"
            transform="translate(-92.457 -580.657)" />
        <path
            d="m167.239 701.353v1.186a.947.947 0 0 0 .946.946h3.443a.947.947 0 0 0 .946-.946v-1.648a.947.947 0 0 0 -.946-.946h-3.443a.946.946 0 0 0 -.911.705h-1.647a.945.945 0 0 0 -.911-.705h-3.443a.947.947 0 0 0 -.946.946v1.648a.947.947 0 0 0 .946.946h3.443a.947.947 0 0 0 .946-.946v-1.186zm.7-.462a.244.244 0 0 1 .244-.243h3.443a.244.244 0 0 1 .243.243v1.648a.244.244 0 0 1 -.243.243h-3.443a.244.244 0 0 1 -.244-.243zm-2.982 1.648a.244.244 0 0 1 -.243.243h-3.443a.244.244 0 0 1 -.244-.243v-1.648a.244.244 0 0 1 .244-.243h3.443a.244.244 0 0 1 .243.243z"
            transform="translate(-148.401 -636.99)" />
        <path
            d="m901.65 667.024h31.531a2.455 2.455 0 0 0 2.072-1.017 2.072 2.072 0 0 0 .159-2 12.594 12.594 0 0 0 -10.719-7.823c-.051 0-.2-.016-1.859-.028-.583 0-1.119-.56-1.357-1.375a9.673 9.673 0 0 0 3.535-7.695c.014-.163.14-1.447.2-1.9a1.175 1.175 0 0 0 .69-.184 3.6 3.6 0 0 0 1.355-2.326 3.489 3.489 0 0 0 -.351-2.632 8.013 8.013 0 0 0 .564-2.983 6.531 6.531 0 0 0 -4.653-6.62 3.847 3.847 0 0 0 -1.1-.143c-.121 0-.217 0-.521-.24a8.138 8.138 0 0 0 -5.016-1.746c-2.993 0-5.306 1.108-6.688 3.206a11.4 11.4 0 0 0 -1.222 8.162c-.693.44-1 1.655-.73 3 .293 1.455 1.158 2.5 2.035 2.5h.007c.038.25.094.736.157 1.384.024.244.043.452.047.511a9.669 9.669 0 0 0 3.555 7.724c-.247.81-.794 1.357-1.4 1.362-1.683.015-1.854.03-1.911.034a12.607 12.607 0 0 0 -10.617 7.815 2.072 2.072 0 0 0 .159 2 2.455 2.455 0 0 0 2.078 1.014zm14.535-38a7.432 7.432 0 0 1 4.581 1.595 1.4 1.4 0 0 0 1.058.39 2.149 2.149 0 0 1 .789.114 5.79 5.79 0 0 1 4.155 5.948 6.983 6.983 0 0 1 -1.121 3.88c-.054.081-.107.066-.119-.03-.356-3.05-2.174-5.3-4.338-5.3a2.479 2.479 0 0 0 -1.549.642 6.244 6.244 0 0 1 -3.837 1.289c-.321.021-.626.032-.906.032a4.364 4.364 0 0 1 -2.49-.535 1.351 1.351 0 0 0 -.695-.238c-1.225 0-1.957 2.057-2.282 4.255-.014.1-.05.1-.08.007-.891-2.766-.935-6.629.732-9.157 1.264-1.916 3.317-2.892 6.102-2.892zm-5.742 17.476c-.085-.867-.15-1.409-.2-1.611a.479.479 0 0 0 -.19-.341.517.517 0 0 0 -.41-.072c-.466.089-1.164-.679-1.414-1.926a2.866 2.866 0 0 1 .217-2.063 11.805 11.805 0 0 0 .584 1.746c.048.111.193.451.51.451.155 0 .422-.079.473-.606.3-3.147 1.173-4.562 1.7-4.562a.8.8 0 0 1 .348.146 5.036 5.036 0 0 0 2.837.626c.3 0 .616-.011.953-.034a6.931 6.931 0 0 0 4.205-1.423 1.829 1.829 0 0 1 1.134-.507c1.885 0 3.464 2.171 3.675 5.05.036.488.322.662.556.662a.676.676 0 0 0 .531-.307 6.677 6.677 0 0 0 .573-.871 3.411 3.411 0 0 1 .043 1.692 2.9 2.9 0 0 1 -1.027 1.862.438.438 0 0 1 -.352.073.481.481 0 0 0 -.384.04.579.579 0 0 0 -.255.387c-.063.278-.242 2.091-.242 2.17v.065a9.5 9.5 0 0 1 -1.861 2.673l-.172.2a.078.078 0 0 1 -.114-.019 6.5 6.5 0 0 0 -9.487-.039.083.083 0 0 1 -.116.019l-.115-.133a10.638 10.638 0 0 1 -1.953-2.848c-.012-.144-.043-.46-.047-.5zm.177 2.189a18.967 18.967 0 0 0 1.291 1.613l.114.132a.758.758 0 0 0 .577.277h.007a.8.8 0 0 0 .605-.306 5.806 5.806 0 0 1 8.4.033.8.8 0 0 0 .6.312.775.775 0 0 0 .586-.272l.171-.194a17.86 17.86 0 0 0 1.182-1.441c-.666 3.806-3.442 6.669-6.755 6.669-3.355-.004-6.161-2.944-6.778-6.827zm3.327 6.527a6.471 6.471 0 0 0 6.924-.01 2.5 2.5 0 0 0 1.338 1.537 5.3 5.3 0 0 1 -9.575-.022 2.58 2.58 0 0 0 1.313-1.509zm-13.878 9.067a11.907 11.907 0 0 1 10.031-7.383c.06-.005.359-.018 1.829-.031a6.008 6.008 0 0 0 11 0c1.33.01 1.643.02 1.708.025a11.894 11.894 0 0 1 10.123 7.389 1.389 1.389 0 0 1 -.092 1.337 1.758 1.758 0 0 1 -1.488.705h-31.53a1.758 1.758 0 0 1 -1.488-.705 1.389 1.389 0 0 1 -.092-1.342z"
            transform="translate(-757.47 -577.951)" />
        <path
            d="m988.329 752.942c.083-.058.164-.119.245-.181a.835.835 0 0 0 .031-1.125 4.9 4.9 0 0 0 -7.064-.018.836.836 0 0 0 0 1.114c.073.061.147.121.222.179a2.253 2.253 0 0 0 1.388.557 2.465 2.465 0 0 0 1.4-.561 1.357 1.357 0 0 1 .509-.273 1.83 1.83 0 0 1 .618.252 2.3 2.3 0 0 0 2.651.056zm-4.18-.614a1.369 1.369 0 0 1 -1.958.028c-.053-.041-.2-.166-.09-.312a4.214 4.214 0 0 1 5.942.013c.111.146-.058.267-.118.31-.739.521-1.312.217-1.92-.1a2.133 2.133 0 0 0 -.947-.333 1.656 1.656 0 0 0 -.909.394z"
            transform="translate(-825.137 -678.349)" />
        <path
            d="m973.171 699.929v-1.186h1.577v1.186a.947.947 0 0 0 .946.946h3.443a.947.947 0 0 0 .946-.946v-1.648a.947.947 0 0 0 -.946-.946h-3.443a.945.945 0 0 0 -.911.705h-1.647a.945.945 0 0 0 -.911-.705h-3.443a.947.947 0 0 0 -.946.946v1.648a.947.947 0 0 0 .946.946h3.443a.947.947 0 0 0 .946-.946zm2.28-1.648a.244.244 0 0 1 .243-.243h3.443a.244.244 0 0 1 .243.243v1.648a.244.244 0 0 1 -.243.243h-3.443a.244.244 0 0 1 -.243-.243zm-6.912 1.648v-1.648a.244.244 0 0 1 .243-.243h3.443a.244.244 0 0 1 .243.243v1.648a.244.244 0 0 1 -.243.243h-3.443a.244.244 0 0 1 -.243-.243z"
            transform="translate(-814.015 -634.838)" />
        <path
            d="m1450.155 393.328h28.076a1.989 1.989 0 0 0 1.549-.72 1.685 1.685 0 0 0 .331-1.45 9.487 9.487 0 0 0 -9.308-7.437h-1.556c-.653 0-1.2-.8-1.2-1.757v-.976c6.854-1.309 10.832-5.688 11.1-6.867a.476.476 0 0 0 -.163-.528c-1.448-1.04-2.4-3.514-3.41-6.134-1.909-4.957-4.285-11.127-11.379-11.127-7.141 0-9.537 6.212-11.461 11.2-.994 2.578-1.933 5.014-3.333 6.062a.486.486 0 0 0 -.152.551c.312 1.239 4.43 5.731 11.308 6.917v.9c0 .969-.588 1.757-1.31 1.757h-1.661a9.487 9.487 0 0 0 -9.308 7.438 1.686 1.686 0 0 0 .331 1.45 1.989 1.989 0 0 0 1.546.721zm8.086-21.013a.56.56 0 0 0 -.558-.515c-.045 0-.205.025-.24.025-.445 0-1.013-.636-1.151-1.584-.135-.932.219-1.787.775-1.868a1.073 1.073 0 0 0 .843-.605c.283-.706 1.381-2.383 5.464-2.708l.176-.014c1.8-.142 3.663-.289 4.991-1.492a.342.342 0 0 1 .236-.1c.618 0 1.771 1.694 1.8 4.461a.47.47 0 0 0 .472.47 1.951 1.951 0 0 1 .273-.011c.555.081.91.936.775 1.868-.138.949-.7 1.586-1.145 1.586-.035 0-.208-.029-.257-.029a.534.534 0 0 0 -.536.459c-.944 4.625-3.34 7.732-5.964 7.732s-5.003-3.09-5.954-7.675zm-8.154 1.628c1.4-1.235 2.287-3.526 3.3-6.155 1.944-5.04 4.146-10.753 10.806-10.753 6.611 0 8.8 5.672 10.722 10.676 1.029 2.671 1.926 5 3.377 6.234a.22.22 0 0 1 .054.266c-.661 1.1-4.148 4.842-10.3 6.061v-1.572a13.752 13.752 0 0 0 2.777-6.174 1.225 1.225 0 0 0 .13.007c.868 0 1.659-.94 1.841-2.187.2-1.354-.4-2.525-1.369-2.665a1.088 1.088 0 0 0 -.149-.011c-.093-2.952-1.344-4.917-2.5-4.917a1.046 1.046 0 0 0 -.708.284c-1.151 1.042-2.814 1.173-4.575 1.312l-.176.014c-4.475.355-5.729 2.319-6.061 3.147a.418.418 0 0 1 -.291.171c-.965.14-1.566 1.311-1.369 2.665.181 1.246.975 2.185 1.847 2.185a1.137 1.137 0 0 0 .123-.007 13.378 13.378 0 0 0 2.988 6.406v1.425c-6.343-1.13-9.881-5.01-10.524-6.139a.231.231 0 0 1 .057-.274zm9.158 10.481a2.273 2.273 0 0 0 2.013-2.46v-2.385a4.664 4.664 0 0 0 2.936 1.113 4.76 4.76 0 0 0 3.147-1.287v2.559a2.24 2.24 0 0 0 1.907 2.46h1.556c.134 0 .268 0 .4.01l-6.86 5.479a.34.34 0 0 1 -.383 0l-6.815-5.477c.146-.007.292-.012.439-.012zm-10.284 6.889a8.776 8.776 0 0 1 7.191-6.774l7.368 5.921a1.042 1.042 0 0 0 1.262 0l7.416-5.923a8.907 8.907 0 0 1 7.227 6.774.994.994 0 0 1 -.194.856 1.28 1.28 0 0 1 -1 .456h-28.076a1.281 1.281 0 0 1 -1-.456 1 1 0 0 1 -.194-.854z"
            transform="translate(-1209.996 -353.756)" />
        <path
            d="m1721.83 381.138h28.076a1.988 1.988 0 0 0 1.549-.72 1.685 1.685 0 0 0 .331-1.449 9.51 9.51 0 0 0 -7.277-7.22v-.033a.89.89 0 0 0 -.526-.826l-2.553-1.057a.636.636 0 0 0 -.879.457l-.224 1.008a2.012 2.012 0 0 1 -.611-1.525v-2.037a13.758 13.758 0 0 0 2.777-6.174 1.229 1.229 0 0 0 .13.007c.867 0 1.659-.94 1.84-2.187a3.046 3.046 0 0 0 -.219-1.721 2.024 2.024 0 0 0 -.249-.4 8.489 8.489 0 0 0 .174-1.694 8.384 8.384 0 0 0 -4.483-7.428 3.939 3.939 0 0 0 .748-2.288 4.584 4.584 0 0 0 -9.133 0 3.928 3.928 0 0 0 .748 2.288 8.385 8.385 0 0 0 -4.483 7.428 8.477 8.477 0 0 0 .173 1.7 2.037 2.037 0 0 0 -.249.4 3.046 3.046 0 0 0 -.219 1.721c.181 1.246.975 2.185 1.847 2.185a1.2 1.2 0 0 0 .123-.006 13.379 13.379 0 0 0 2.988 6.405v1.807a1.849 1.849 0 0 1 -.81 1.621l-.237-1.105a.636.636 0 0 0 -.878-.457l-2.554 1.057a.889.889 0 0 0 -.525.826v.032a9.509 9.509 0 0 0 -7.277 7.22 1.685 1.685 0 0 0 .331 1.45 1.988 1.988 0 0 0 1.551.715zm11.531-.7c-.292-1.342-1.127-5.238-1.674-7.793l3.547 2.4a1.18 1.18 0 0 0 1.267 0l3.533-2.419-1.737 7.814zm11.115-7.973a8.808 8.808 0 0 1 6.624 6.661 1 1 0 0 1 -.194.856 1.281 1.281 0 0 1 -1 .456h-8.741l2.318-3.258a.95.95 0 0 0 .05-.97l-.623-1.09a.1.1 0 0 1 .089-.156l.685-.014a.728.728 0 0 0 .711-.694zm-3.09-1.887 2.329.964a.2.2 0 0 1 .092.145l-.115 2.538a.032.032 0 0 1 -.024.023l-1.1.022a.539.539 0 0 0 -.475.838l.829 1.452a.256.256 0 0 1 -.012.212l-2.608 3.666h-1.285l2.169-9.755a.143.143 0 0 1 .2-.108zm-9.386-24.727a3.885 3.885 0 0 1 7.728 0 3.252 3.252 0 0 1 -.69 1.983 8.224 8.224 0 0 0 -6.346 0 3.242 3.242 0 0 1 -.692-1.983zm3.864 2.049a7.642 7.642 0 0 1 7.6 7.667 7.817 7.817 0 0 1 -.1 1.225 1.311 1.311 0 0 0 -.273-.074 1.1 1.1 0 0 0 -.153-.011c-.181-2.829-2.993-5.338-4.1-5.338a.616.616 0 0 0 -.464.184.65.65 0 0 0 -.165.5c.049.981-.944 1.167-3.062 1.333l-.164.013c-4.476.356-5.729 2.319-6.061 3.147a.419.419 0 0 1 -.292.171 1.314 1.314 0 0 0 -.274.074 7.827 7.827 0 0 1 -.1-1.225 7.642 7.642 0 0 1 7.612-7.666zm-6.75 12.965c-.445 0-1.014-.636-1.151-1.584a2.336 2.336 0 0 1 .159-1.319.9.9 0 0 1 .615-.549 1.073 1.073 0 0 0 .843-.606c.282-.706 1.381-2.383 5.464-2.707l.164-.013c1.78-.14 3.617-.284 3.709-1.832.006-.1.08-.159.17-.121a6.272 6.272 0 0 1 3.159 4.819.47.47 0 0 0 .472.47.551.551 0 0 0 .06 0 .828.828 0 0 1 .214-.008.9.9 0 0 1 .615.549 2.336 2.336 0 0 1 .159 1.319c-.138.949-.7 1.586-1.145 1.586-.035 0-.208-.029-.256-.029a.534.534 0 0 0 -.537.459c-.944 4.625-3.341 7.732-5.964 7.732s-5-3.084-5.952-7.674a.559.559 0 0 0 -.558-.515c-.041-.002-.202.023-.237.023zm3.814 8.909v-1.155a4.666 4.666 0 0 0 2.936 1.113 4.76 4.76 0 0 0 3.147-1.287v1.329a2.678 2.678 0 0 0 .891 2.084l-3.8 2.6a.486.486 0 0 1 -.476 0l-3.737-2.531a2.57 2.57 0 0 0 1.043-2.153zm-2.583.8a.141.141 0 0 1 .2.1c.283 1.323 1.652 7.716 2.093 9.755h-1.158l-2.658-3.668a.258.258 0 0 1 -.011-.211l.83-1.452a.539.539 0 0 0 -.475-.838l-1.1-.022a.032.032 0 0 1 -.024-.023l-.115-2.538a.2.2 0 0 1 .092-.145zm-3.089 1.887.081 1.791a.729.729 0 0 0 .711.694l.685.014a.1.1 0 0 1 .089.156l-.623 1.091a.952.952 0 0 0 .052.971l2.36 3.257h-8.785a1.28 1.28 0 0 1 -1-.456 1 1 0 0 1 -.194-.856 8.807 8.807 0 0 1 6.628-6.661z"
            transform="translate(-1433.932 -341.669)" />
        <path d="m1808.307 538.341a.516.516 0 1 0 .516.516.516.516 0 0 0 -.516-.516z"
            transform="translate(-1506.374 -503.782)" />
        <path d="m1808.307 550.505a.516.516 0 1 0 .516.516.516.516 0 0 0 -.516-.516z"
            transform="translate(-1506.374 -513.809)" />
        <path
            d="m1987.71 393.328h28.076a1.989 1.989 0 0 0 1.549-.72 1.686 1.686 0 0 0 .331-1.45 9.5 9.5 0 0 0 -7.956-7.341.688.688 0 0 0 -.148-.109l-3.276-1.8a.728.728 0 0 0 -.35-.089.748.748 0 0 0 -.339.081v-.9c6.91-1.287 10.921-5.7 11.193-6.884a.476.476 0 0 0 -.163-.528c-1.448-1.04-2.4-3.514-3.41-6.134-1.909-4.957-4.285-11.127-11.379-11.127-7.141 0-9.536 6.212-11.461 11.2-.994 2.578-1.933 5.014-3.333 6.062a.485.485 0 0 0 -.152.551c.31 1.233 4.393 5.692 11.217 6.9v.887a.736.736 0 0 0 -.4-.116.723.723 0 0 0 -.348.089l-3.421 1.887a9.514 9.514 0 0 0 -8.113 7.362 1.685 1.685 0 0 0 .331 1.449 1.988 1.988 0 0 0 1.552.73zm14.129-13.339c-2.609 0-5-3.084-5.952-7.674a.56.56 0 0 0 -.559-.515c-.045 0-.205.025-.24.025-.445 0-1.013-.636-1.151-1.584-.136-.932.219-1.787.775-1.868a1.073 1.073 0 0 0 .843-.605c.283-.706 1.381-2.383 5.464-2.708l.176-.014c1.8-.142 3.663-.289 4.992-1.492a.342.342 0 0 1 .236-.1c.618 0 1.771 1.694 1.8 4.461a.47.47 0 0 0 .472.47 1.957 1.957 0 0 1 .274-.011c.555.081.91.936.775 1.868-.138.949-.7 1.586-1.145 1.586-.035 0-.208-.029-.256-.029a.534.534 0 0 0 -.536.459c-.949 4.623-3.345 7.731-5.969 7.731zm-3.026-.485a4.456 4.456 0 0 0 6.082-.023v2.483a3.16 3.16 0 0 0 .079.7l-3.105 4.644a.107.107 0 0 1 -.193 0l-2.966-4.569a2.97 2.97 0 0 0 .1-.774zm-11.08-5.561c1.4-1.235 2.287-3.526 3.3-6.155 1.943-5.04 4.146-10.753 10.805-10.753 6.611 0 8.8 5.672 10.723 10.677 1.029 2.671 1.926 5 3.377 6.233a.22.22 0 0 1 .054.266c-.664 1.109-4.182 4.878-10.394 6.078v-1.489a13.59 13.59 0 0 0 2.868-6.276 1.227 1.227 0 0 0 .13.007c.868 0 1.659-.94 1.841-2.187.2-1.354-.4-2.525-1.369-2.665a1.088 1.088 0 0 0 -.149-.011c-.094-2.952-1.345-4.917-2.5-4.917a1.045 1.045 0 0 0 -.708.284c-1.151 1.042-2.814 1.173-4.575 1.312l-.176.014c-4.475.355-5.729 2.319-6.061 3.147a.419.419 0 0 1 -.292.171c-.965.14-1.566 1.311-1.369 2.665.181 1.246.975 2.185 1.847 2.185a1.138 1.138 0 0 0 .123-.007 13.535 13.535 0 0 0 2.9 6.307v1.508c-6.286-1.15-9.793-5-10.433-6.124a.231.231 0 0 1 .057-.271zm10.084 8.71 3.465 5.336a.563.563 0 0 0 .973.007s3.5-5.234 3.573-5.343.15-.112.271-.046l2.677 1.471c.085.047.083.118 0 .16l-1.542.731a.563.563 0 0 0 -.134.964l.367.321a.135.135 0 0 1 -.009.22l-5.613 4.132a.162.162 0 0 1 -.148 0l-5.543-4.111a.138.138 0 0 1 -.01-.222l.2-.18a.576.576 0 0 0 -.126-.97l-1.5-.775c-.086-.044-.087-.118 0-.165l2.873-1.582a.182.182 0 0 1 .225.052zm-4.1 1.887a.62.62 0 0 0 .24.21l1.639.844a.113.113 0 0 1 .026.2l-.141.127a.627.627 0 0 0 .048.988l5.746 4.262a.856.856 0 0 0 .983 0l5.824-4.287a.621.621 0 0 0 .042-.987l-.293-.256a.107.107 0 0 1 .026-.191l1.68-.8a.663.663 0 0 0 .181-.125 8.8 8.8 0 0 1 7.265 6.784 1 1 0 0 1 -.194.856 1.281 1.281 0 0 1 -1 .456h-28.079a1.282 1.282 0 0 1 -1-.456 1 1 0 0 1 -.194-.856 8.812 8.812 0 0 1 7.197-6.769z"
            transform="translate(-1653.092 -353.756)" />
        <path
            d="m2053.822 421.813a2.842 2.842 0 0 0 -2.182-.687c-.121 0-.249 0-.384.01a3.882 3.882 0 0 0 -2.437.723h-1.89a3.878 3.878 0 0 0 -2.436-.723q-.2-.01-.384-.01a2.842 2.842 0 0 0 -2.182.687 1.172 1.172 0 0 0 -.313.834 2.862 2.862 0 0 0 5.724-.009.61.61 0 0 0 0-.076h1.082a.581.581 0 0 0 0 .072 2.862 2.862 0 0 0 5.724.013 1.172 1.172 0 0 0 -.322-.834zm-9.346 2.98a2.162 2.162 0 0 1 -2.159-2.159v-.011-.021a.491.491 0 0 1 .152-.338 2.36 2.36 0 0 1 1.642-.435q.166 0 .35.009c1.709.083 2.149.606 2.177.806a2.162 2.162 0 0 1 -2.163 2.149zm6.8 0a2.163 2.163 0 0 1 -2.159-2.149c.027-.2.467-.723 2.177-.806q.184-.009.349-.009a2.358 2.358 0 0 1 1.642.435.5.5 0 0 1 .153.328v.041a2.162 2.162 0 0 1 -2.166 2.16z"
            transform="translate(-1699.108 -407.164)" />
        <path
            d="m1179.487 398.262h28.076a1.989 1.989 0 0 0 1.549-.72 1.685 1.685 0 0 0 .331-1.45 9.511 9.511 0 0 0 -7.277-7.22v-.033a.889.889 0 0 0 -.525-.826l-2.554-1.057a.636.636 0 0 0 -.878.457l-.224 1.009a2.012 2.012 0 0 1 -.611-1.525v-3.215a11.018 11.018 0 0 0 3.555-5.141l.026.007a.98.98 0 0 0 .79-.131 2.906 2.906 0 0 0 1.1-1.891c.262-1.3-.13-2.4-.911-2.586a19.692 19.692 0 0 0 .392-3.551 7.268 7.268 0 0 0 -1.649-5.119 2.624 2.624 0 0 0 -1.864-.842c-.036 0-.076 0-.12.006a.652.652 0 0 1 -.578-.2 7.9 7.9 0 0 0 -4.946-1.794c-4.3 0-7.939 3.686-8.281 8.392a23.476 23.476 0 0 0 .186 3.113c-.763.2-1.143 1.291-.884 2.578s1.057 2.163 1.855 2.031l.045-.006a10.807 10.807 0 0 0 3.792 5.3v3.052a1.85 1.85 0 0 1 -.81 1.621l-.236-1.105a.636.636 0 0 0 -.878-.457l-2.554 1.057a.89.89 0 0 0 -.525.826v.032a9.51 9.51 0 0 0 -7.277 7.22 1.686 1.686 0 0 0 .331 1.45 1.988 1.988 0 0 0 1.554.718zm11.531-.7c-.292-1.342-1.127-5.238-1.674-7.793l3.548 2.4a1.179 1.179 0 0 0 1.267 0l3.533-2.419-1.737 7.814zm11.115-7.973a8.809 8.809 0 0 1 6.624 6.661 1 1 0 0 1 -.194.856 1.281 1.281 0 0 1 -1 .456h-8.741l2.317-3.258a.95.95 0 0 0 .05-.97l-.623-1.09a.1.1 0 0 1 .089-.156l.685-.014a.729.729 0 0 0 .711-.694zm-3.089-1.887 2.329.964a.2.2 0 0 1 .092.145l-.115 2.538a.031.031 0 0 1 -.023.023l-1.1.022a.539.539 0 0 0 -.475.838l.829 1.451a.256.256 0 0 1 -.012.213l-2.608 3.666h-1.285l2.169-9.755a.143.143 0 0 1 .198-.107zm-5.869-24.553a7.206 7.206 0 0 1 4.508 1.641 1.42 1.42 0 0 0 .909.356c.059 0 .207-.012.226-.012a1.939 1.939 0 0 1 1.366.635 6.68 6.68 0 0 1 1.444 4.62 19.207 19.207 0 0 1 -.381 3.425c-.019.1-.059.1-.09.005a7.365 7.365 0 0 0 -1.7-2.635 7.151 7.151 0 0 1 -1.465-2.127.73.73 0 0 0 -.671-.527.813.813 0 0 0 -.593.293c-1.641 1.738-4.663 2.817-7.885 2.817-.722 0-2.277.3-2.929 2.706-.025.094-.056.092-.07 0a23.361 23.361 0 0 1 -.245-3.455c.311-4.344 3.64-7.744 7.575-7.744zm-6.456 15.061c-.047-.134-.218-.436-.783-.344-.345.058-.868-.562-1.052-1.476a1.846 1.846 0 0 1 .294-1.723c.07.45.157.908.264 1.354.039.163.131.546.471.546.39 0 .428-.469.441-.623.188-2.288 1.093-3.6 2.485-3.6 3.46 0 6.6-1.135 8.4-3.037a.068.068 0 0 1 .1.019 7.826 7.826 0 0 0 1.591 2.327 6.2 6.2 0 0 1 1.785 3.223c.077.384.245.579.5.579s.409-.18.5-.536c.024-.092.048-.19.073-.291.286.08.568.788.372 1.76a2.248 2.248 0 0 1 -.781 1.43.3.3 0 0 1 -.232.055c-.595-.168-.793.189-.85.351-1.336 3.771-3.936 6.114-6.786 6.114s-5.459-2.349-6.793-6.13zm3.871 8.69v-2.613a6.046 6.046 0 0 0 6.082-.135v2.748a2.678 2.678 0 0 0 .891 2.084l-3.8 2.6a.485.485 0 0 1 -.476 0l-3.738-2.531a2.57 2.57 0 0 0 1.04-2.153zm-2.583.8a.141.141 0 0 1 .2.1c.283 1.322 1.651 7.716 2.093 9.755h-1.158l-2.658-3.668a.256.256 0 0 1 -.011-.211l.829-1.451a.539.539 0 0 0 -.475-.838l-1.1-.022a.032.032 0 0 1 -.024-.023l-.115-2.537a.2.2 0 0 1 .092-.145zm-3.089 1.887.082 1.791a.729.729 0 0 0 .712.694l.685.014a.1.1 0 0 1 .089.156l-.623 1.09a.951.951 0 0 0 .051.971l2.36 3.257h-8.785a1.28 1.28 0 0 1 -1-.456 1 1 0 0 1 -.194-.856 8.807 8.807 0 0 1 6.622-6.662z"
            transform="translate(-986.889 -358.794)" />
        <path d="m1265.966 538.341a.516.516 0 1 0 .516.516.516.516 0 0 0 -.516-.516z"
            transform="translate(-1059.332 -503.783)" />
        <path d="m1265.966 550.505a.516.516 0 1 0 .516.516.516.516 0 0 0 -.516-.516z"
            transform="translate(-1059.332 -513.809)" />
        <path
            d="m1238.871 432.625v-1.186h1.577v1.186a.947.947 0 0 0 .946.946h3.443a.947.947 0 0 0 .946-.946v-1.648a.947.947 0 0 0 -.946-.946h-3.443a.945.945 0 0 0 -.911.705h-1.647a.945.945 0 0 0 -.911-.705h-3.443a.947.947 0 0 0 -.946.946v1.648a.947.947 0 0 0 .946.946h3.443a.947.947 0 0 0 .946-.946zm2.28-1.648a.244.244 0 0 1 .243-.243h3.443a.244.244 0 0 1 .243.243v1.648a.244.244 0 0 1 -.243.243h-3.443a.244.244 0 0 1 -.243-.243zm-6.912 1.648v-1.648a.244.244 0 0 1 .243-.243h3.443a.244.244 0 0 1 .243.243v1.648a.244.244 0 0 1 -.243.243h-3.443a.244.244 0 0 1 -.243-.243z"
            transform="translate(-1033.026 -414.505)" />
        <path
            d="m1462.721 659.15a.871.871 0 0 0 -.178-.262l-2.137-2.132a.88.88 0 0 0 -1.243 0l-.09.09v-1.412a12.509 12.509 0 0 0 3.873-6.848 1.191 1.191 0 0 0 .7-.183 3.6 3.6 0 0 0 1.354-2.326 3.4 3.4 0 0 0 -.39-2.683 8 8 0 0 0 .588-3.044 6.531 6.531 0 0 0 -4.653-6.62 3.854 3.854 0 0 0 -1.1-.143c-.121 0-.217 0-.521-.24a8.138 8.138 0 0 0 -5.016-1.745c-2.993 0-5.306 1.108-6.688 3.205a11.45 11.45 0 0 0 -1.2 8.27c-.7.435-1.012 1.636-.738 3 .293 1.455 1.158 2.5 2.035 2.5h.015a12.518 12.518 0 0 0 3.875 6.862v1.407l-.086-.086a.879.879 0 0 0 -1.243 0l-2.142 2.14a.872.872 0 0 0 -.173.252 14.521 14.521 0 0 0 -10.209 8.648 1.536 1.536 0 0 0 .1 1.46 1.654 1.654 0 0 0 1.416.687h32.534a1.655 1.655 0 0 0 1.416-.687 1.537 1.537 0 0 0 .1-1.46 14.5 14.5 0 0 0 -10.199-8.65zm-3.061-1.9a.177.177 0 0 1 .249 0l2.137 2.132a.175.175 0 0 1 0 .248l-3.9 3.9a.175.175 0 0 1 -.248 0l-2.263-2.263zm-5.022 7.692a.7.7 0 0 0 .994 0l.016-.016.948 4.312h-2.911l.946-4.3zm.373-.621-1.211-1.211 1.343-1.343 1.335 1.335-1.219 1.219a.176.176 0 0 1 -.247.005zm-1.1-32.02a7.432 7.432 0 0 1 4.581 1.594 1.4 1.4 0 0 0 1.058.39 2.136 2.136 0 0 1 .789.113 5.791 5.791 0 0 1 4.155 5.948 6.98 6.98 0 0 1 -1.121 3.88c-.054.08-.108.066-.119-.03-.356-3.05-2.174-5.3-4.338-5.3a2.479 2.479 0 0 0 -1.549.642 6.242 6.242 0 0 1 -3.837 1.289c-.321.021-.625.032-.906.032a4.363 4.363 0 0 1 -2.49-.535 1.353 1.353 0 0 0 -.695-.238c-1.225 0-1.957 2.057-2.282 4.255-.014.1-.05.1-.08.007-.89-2.766-.935-6.629.732-9.157 1.265-1.913 3.318-2.885 6.102-2.885zm-5.923 15.973a.482.482 0 0 0 -.19-.341.517.517 0 0 0 -.41-.072c-.468.09-1.164-.68-1.414-1.926a2.857 2.857 0 0 1 .228-2.078 11.735 11.735 0 0 0 .558 1.649c.048.112.193.451.51.451.155 0 .422-.079.473-.606.3-3.147 1.173-4.562 1.7-4.562a.8.8 0 0 1 .348.146 5.036 5.036 0 0 0 2.837.626c.3 0 .616-.011.953-.034a6.929 6.929 0 0 0 4.205-1.423 1.83 1.83 0 0 1 1.134-.507c1.885 0 3.464 2.171 3.675 5.05.036.488.322.662.557.662a.675.675 0 0 0 .531-.307 6.654 6.654 0 0 0 .558-.843 3.337 3.337 0 0 1 .073 1.776 2.9 2.9 0 0 1 -1.027 1.862.439.439 0 0 1 -.352.073.482.482 0 0 0 -.384.041.575.575 0 0 0 -.255.386c-1.082 4.753-3.955 7.946-7.149 7.946s-6.079-3.198-7.158-7.964zm3.924 7.67a5.713 5.713 0 0 0 6.458 0v1.6l-3.227 3.227-3.231-3.231zm-3.676 3.446 2.142-2.14a.176.176 0 0 1 .249 0l4.02 4.02-2.263 2.263a.176.176 0 0 1 -.249 0l-3.9-3.894a.175.175 0 0 1 0-.248zm-10.194 9.472a.836.836 0 0 1 -.035-.8 13.818 13.818 0 0 1 9.551-8.192.874.874 0 0 0 .182.267l3.9 3.895a.879.879 0 0 0 1.242 0l.423-.423.739.739-1.076 4.892h-14.092a.968.968 0 0 1 -.833-.374zm34.2 0a.967.967 0 0 1 -.832.376h-14.092l-1.078-4.9.737-.737.43.43a.878.878 0 0 0 1.242 0l3.9-3.9a.869.869 0 0 0 .176-.259 13.8 13.8 0 0 1 9.555 8.194.837.837 0 0 1 -.039.8z"
            transform="translate(-1200.92 -580.657)" />
        <path
            d="m1782.037 702.349a.58.58 0 0 0 0 .072 2.862 2.862 0 0 0 5.725.013 1.174 1.174 0 0 0 -.313-.833 2.842 2.842 0 0 0 -2.182-.687q-.182 0-.384.01a3.882 3.882 0 0 0 -2.437.723h-1.89a3.879 3.879 0 0 0 -2.436-.723q-.2-.01-.384-.01a2.842 2.842 0 0 0 -2.182.687 1.173 1.173 0 0 0 -.313.834 2.862 2.862 0 0 0 5.724-.009.59.59 0 0 0 0-.076zm2.875-.724q.184-.009.35-.009a2.36 2.36 0 0 1 1.642.435.5.5 0 0 1 .153.328v.041a2.159 2.159 0 0 1 -4.319.01c.025-.199.462-.722 2.174-.805zm-6.814 2.955a2.162 2.162 0 0 1 -2.159-2.159v-.041a.5.5 0 0 1 .138-.312c.15-.168.564-.451 1.657-.451q.166 0 .349.009c1.71.083 2.149.606 2.177.806a2.162 2.162 0 0 1 -2.16 2.148z"
            transform="translate(-1479.538 -637.788)" />
        <path
            d="m1710.542 669.949h32.534a1.654 1.654 0 0 0 1.416-.688 1.535 1.535 0 0 0 .1-1.46 14.5 14.5 0 0 0 -10.2-8.647.877.877 0 0 0 -.179-.262l-2.137-2.132a.88.88 0 0 0 -1.243 0l-.09.09v-1.41a12.511 12.511 0 0 0 3.873-6.848 1.19 1.19 0 0 0 .7-.183 3.6 3.6 0 0 0 1.355-2.326 3.365 3.365 0 0 0 -.413-2.712 8.012 8.012 0 0 0 .576-3.014 6.531 6.531 0 0 0 -4.653-6.62 3.846 3.846 0 0 0 -1.1-.143c-.121 0-.217 0-.522-.24a8.137 8.137 0 0 0 -5.016-1.746c-2.993 0-5.306 1.108-6.688 3.205a11.458 11.458 0 0 0 -1.2 8.289 2.918 2.918 0 0 0 -.706 2.98c.293 1.455 1.158 2.5 2.035 2.5h.016a12.518 12.518 0 0 0 3.875 6.862v1.407l-.086-.086a.879.879 0 0 0 -1.243 0l-2.142 2.14a.878.878 0 0 0 -.173.252 14.52 14.52 0 0 0 -10.209 8.648 1.536 1.536 0 0 0 .1 1.46 1.654 1.654 0 0 0 1.42.684zm16.137-5.62-1.211-1.211 1.343-1.343 1.335 1.335-1.219 1.219a.175.175 0 0 1 -.248.001zm-.373.621a.7.7 0 0 0 .994 0l.016-.016.948 4.312h-2.911l.946-4.3zm17.637 3.118a.837.837 0 0 1 -.035.8.969.969 0 0 1 -.832.376h-14.092l-1.078-4.9.737-.737.43.43a.878.878 0 0 0 1.242 0l3.9-3.9a.869.869 0 0 0 .177-.259 13.8 13.8 0 0 1 9.551 8.191zm-12.615-10.81a.177.177 0 0 1 .249 0l2.137 2.132a.175.175 0 0 1 0 .248l-3.9 3.9a.175.175 0 0 1 -.248 0l-2.263-2.263zm-5.784-24.948a7.432 7.432 0 0 1 4.581 1.595 1.4 1.4 0 0 0 1.058.39 2.156 2.156 0 0 1 .789.114 5.79 5.79 0 0 1 4.155 5.948 6.982 6.982 0 0 1 -1.121 3.88c-.054.081-.107.066-.119-.03-.356-3.05-2.174-5.3-4.338-5.3a2.479 2.479 0 0 0 -1.549.642 6.242 6.242 0 0 1 -3.837 1.289c-.321.021-.625.032-.906.032a4.363 4.363 0 0 1 -2.49-.535 1.354 1.354 0 0 0 -.695-.238c-1.225 0-1.957 2.057-2.281 4.255-.014.1-.05.1-.08.007-.891-2.766-.935-6.629.732-9.157 1.262-1.919 3.315-2.891 6.1-2.891zm-5.888 15.972a.48.48 0 0 0 -.19-.341.517.517 0 0 0 -.41-.072c-.463.089-1.164-.679-1.414-1.926a2.935 2.935 0 0 1 .2-2.042 11.7 11.7 0 0 0 .549 1.614c.048.111.193.451.51.451.155 0 .422-.079.473-.606.3-3.147 1.173-4.562 1.7-4.562a.8.8 0 0 1 .348.146 5.036 5.036 0 0 0 2.837.626c.3 0 .616-.011.953-.034a6.931 6.931 0 0 0 4.205-1.423 1.829 1.829 0 0 1 1.134-.507c1.884 0 3.464 2.171 3.675 5.05.036.488.322.662.556.662a.676.676 0 0 0 .531-.307 6.629 6.629 0 0 0 .578-.879 3.282 3.282 0 0 1 .088 1.811 2.9 2.9 0 0 1 -1.027 1.862.438.438 0 0 1 -.352.073.482.482 0 0 0 -.384.04.579.579 0 0 0 -.255.386c-1.082 4.753-3.955 7.946-7.149 7.946s-6.078-3.201-7.157-7.967zm3.924 7.67a5.713 5.713 0 0 0 6.458 0v1.6l-3.227 3.227-3.231-3.231zm-3.68 3.448 2.142-2.14a.175.175 0 0 1 .248 0l4.02 4.02-2.263 2.263a.176.176 0 0 1 -.249 0l-3.9-3.894a.175.175 0 0 1 0-.248zm-10.229 8.67a13.819 13.819 0 0 1 9.551-8.192.879.879 0 0 0 .182.267l3.9 3.895a.879.879 0 0 0 1.243 0l.422-.422.739.739-1.076 4.892h-14.092a.969.969 0 0 1 -.832-.376.837.837 0 0 1 -.034-.804z"
            transform="translate(-1424.85 -580.661)" />
        <path
            d="m1168.183 669.945h32.534a1.654 1.654 0 0 0 1.416-.687 1.536 1.536 0 0 0 .1-1.46 14.5 14.5 0 0 0 -10.531-8.719l-.159-.028-.378-.512a1.846 1.846 0 0 0 -1.058-.649l-.561-.094a.87.87 0 0 0 -.339.01l-.56-.579a.881.881 0 0 0 -.267-.187v-1.6a12.511 12.511 0 0 0 3.872-6.848 1.19 1.19 0 0 0 .7-.183 3.6 3.6 0 0 0 1.354-2.326 3.288 3.288 0 0 0 -.458-2.766 8.02 8.02 0 0 0 .555-2.961 6.531 6.531 0 0 0 -4.653-6.62 3.855 3.855 0 0 0 -1.1-.143c-.121 0-.217 0-.521-.24a8.138 8.138 0 0 0 -5.016-1.745c-2.993 0-5.306 1.108-6.688 3.205a11.474 11.474 0 0 0 -1.188 8.329 3 3 0 0 0 -.648 2.941c.293 1.455 1.158 2.5 2.035 2.5h.015a12.517 12.517 0 0 0 3.875 6.862v1.6a.874.874 0 0 0 -.268.188l-.558.578a.864.864 0 0 0 -.339-.01l-.561.094a1.848 1.848 0 0 0 -1.058.649l-.42.57a14.129 14.129 0 0 0 -10.659 8.69 1.549 1.549 0 0 0 .113 1.464 1.661 1.661 0 0 0 1.419.677zm12.662-12.279h.07a.168.168 0 0 1 .087.045l2.6 2.534c.015.014.032.025.048.038l-1.351 1.351a.878.878 0 0 0 0 1.243l1 1-1.033 5.366h-.425l-1.491-10.714a.869.869 0 0 0 -.1-.293l.5-.52a.167.167 0 0 1 .095-.05zm7.014.036a.216.216 0 0 1 .285.013l.5.52a.871.871 0 0 0 -.1.293l-1.491 10.714h-.441l-1.359-5.375.99-.99a.878.878 0 0 0 0-1.242l-1.352-1.352c-.006-.006-.013-.01-.019-.016zm-3.585 3.027a.175.175 0 0 1 .124.051l1.352 1.352a.176.176 0 0 1 0 .248l-1.352 1.352a.176.176 0 0 1 -.249 0l-1.352-1.352a.175.175 0 0 1 0-.248l1.352-1.352a.175.175 0 0 1 .125-.052zm-.361 3.679a.853.853 0 0 0 .752-.016l1.226 4.851h-2.909zm17.636 4.459a.968.968 0 0 1 -.832.376h-8.723l.927-1.807a.927.927 0 0 0 -.335-1.206l-1.518-.938a.1.1 0 0 1 0-.178l2.693-1.507a.8.8 0 0 0 .258-1.2l-1.846-2.5a13.8 13.8 0 0 1 9.407 8.156.837.837 0 0 1 -.03.803zm-12.118-10.378.561.094a1.149 1.149 0 0 1 .608.373l2.857 3.873a.1.1 0 0 1 -.036.166l-2.907 1.627a.631.631 0 0 0 -.025 1.14l1.727 1.067a.229.229 0 0 1 .08.287l-1.092 2.128h-3.437l1.478-10.617a.159.159 0 0 1 .187-.137zm-6.314-26.182a7.432 7.432 0 0 1 4.581 1.594 1.4 1.4 0 0 0 1.058.39 2.135 2.135 0 0 1 .789.113 5.791 5.791 0 0 1 4.156 5.948 6.98 6.98 0 0 1 -1.121 3.88c-.054.08-.108.066-.119-.03-.356-3.05-2.174-5.3-4.338-5.3a2.479 2.479 0 0 0 -1.549.642 6.242 6.242 0 0 1 -3.837 1.289c-.321.021-.625.032-.905.032a4.363 4.363 0 0 1 -2.49-.535 1.353 1.353 0 0 0 -.695-.238c-1.225 0-1.957 2.057-2.282 4.255-.014.1-.05.1-.08.007-.89-2.766-.935-6.629.732-9.157 1.264-1.919 3.316-2.891 6.101-2.891zm-5.821 15.973a.482.482 0 0 0 -.19-.341.517.517 0 0 0 -.41-.072c-.468.09-1.164-.68-1.414-1.926a3.068 3.068 0 0 1 .156-1.963 11.641 11.641 0 0 0 .529 1.535c.048.112.193.451.51.451.155 0 .422-.079.473-.606.3-3.147 1.173-4.562 1.7-4.562a.8.8 0 0 1 .348.146 5.036 5.036 0 0 0 2.837.626c.3 0 .616-.011.952-.034a6.929 6.929 0 0 0 4.205-1.423 1.83 1.83 0 0 1 1.134-.507c1.884 0 3.464 2.171 3.674 5.05.036.488.322.662.557.662a.675.675 0 0 0 .531-.307 6.681 6.681 0 0 0 .615-.947 3.192 3.192 0 0 1 .117 1.88 2.9 2.9 0 0 1 -1.027 1.862.439.439 0 0 1 -.352.073.482.482 0 0 0 -.384.041.576.576 0 0 0 -.255.386c-1.082 4.753-3.955 7.946-7.149 7.946s-6.077-3.205-7.153-7.971zm7.153 8.67a5.925 5.925 0 0 0 3.229-1v1.061a.888.888 0 0 0 -.278.16l-3 2.582a.235.235 0 0 1 -.3-.01l-2.6-2.534a.875.875 0 0 0 -.271-.179v-1.079a5.926 5.926 0 0 0 3.221.998zm-6.151 2.007a1.153 1.153 0 0 1 .608-.373l.561-.094a.158.158 0 0 1 .186.137l1.478 10.617h-3.431l-1.092-2.128a.229.229 0 0 1 .08-.287l1.727-1.067a.631.631 0 0 0 -.025-1.14l-2.908-1.627a.115.115 0 0 1 -.062-.073.116.116 0 0 1 .026-.093zm-1.628 1.023-1.795 2.432a.8.8 0 0 0 .258 1.2l2.693 1.507a.1.1 0 0 1 0 .178l-1.518.938a.927.927 0 0 0 -.335 1.205l.927 1.807h-8.723a.974.974 0 0 1 -.833-.375.85.85 0 0 1 -.042-.809 13.338 13.338 0 0 1 9.37-8.085z"
            transform="translate(-977.79 -580.657)" />
        <path
            d="m1241.307 701.353v1.186a.947.947 0 0 0 .946.946h3.443a.947.947 0 0 0 .946-.946v-1.648a.947.947 0 0 0 -.946-.946h-3.443a.945.945 0 0 0 -.911.705h-1.642a.945.945 0 0 0 -.911-.705h-3.443a.947.947 0 0 0 -.946.946v1.648a.947.947 0 0 0 .946.946h3.443a.947.947 0 0 0 .946-.946v-1.186zm.7-.462a.244.244 0 0 1 .243-.243h3.443a.244.244 0 0 1 .243.243v1.648a.244.244 0 0 1 -.243.243h-3.443a.244.244 0 0 1 -.243-.243zm-2.983 1.648a.244.244 0 0 1 -.243.243h-3.443a.244.244 0 0 1 -.244-.243v-1.648a.244.244 0 0 1 .244-.243h3.443a.244.244 0 0 1 .243.243z"
            transform="translate(-1033.735 -636.99)" />
        <path
            d="m1975.718 667.024h31.531a2.456 2.456 0 0 0 2.072-1.017 2.072 2.072 0 0 0 .159-2 12.593 12.593 0 0 0 -10.719-7.823c-.05 0-.2-.016-1.859-.028-.583 0-1.119-.56-1.357-1.375a9.673 9.673 0 0 0 3.535-7.695c.014-.163.139-1.447.2-1.9a1.175 1.175 0 0 0 .69-.184 3.6 3.6 0 0 0 1.355-2.326 3.49 3.49 0 0 0 -.351-2.632 8.012 8.012 0 0 0 .564-2.983 6.531 6.531 0 0 0 -4.653-6.62 3.846 3.846 0 0 0 -1.1-.143c-.121 0-.217 0-.521-.24a8.137 8.137 0 0 0 -5.016-1.746c-2.993 0-5.306 1.108-6.688 3.206a11.4 11.4 0 0 0 -1.222 8.162c-.693.44-1 1.655-.73 3 .293 1.455 1.158 2.5 2.035 2.5h.007c.038.25.094.736.157 1.384.024.244.042.452.047.511a9.669 9.669 0 0 0 3.556 7.724c-.247.81-.794 1.357-1.4 1.362-1.683.015-1.854.03-1.911.034a12.607 12.607 0 0 0 -10.617 7.815 2.072 2.072 0 0 0 .159 2 2.455 2.455 0 0 0 2.077 1.014zm14.535-38a7.432 7.432 0 0 1 4.581 1.595 1.4 1.4 0 0 0 1.058.39 2.147 2.147 0 0 1 .789.114 5.79 5.79 0 0 1 4.155 5.948 6.982 6.982 0 0 1 -1.121 3.88c-.054.081-.107.066-.119-.03-.356-3.05-2.174-5.3-4.338-5.3a2.479 2.479 0 0 0 -1.549.642 6.243 6.243 0 0 1 -3.837 1.289c-.321.021-.625.032-.905.032a4.365 4.365 0 0 1 -2.49-.535 1.351 1.351 0 0 0 -.695-.238c-1.225 0-1.957 2.057-2.282 4.255-.014.1-.05.1-.08.007-.891-2.766-.935-6.629.732-9.157 1.263-1.916 3.316-2.892 6.101-2.892zm-5.741 17.472c-.085-.867-.151-1.409-.2-1.611a.48.48 0 0 0 -.19-.341.517.517 0 0 0 -.41-.072c-.466.089-1.164-.679-1.415-1.926a2.868 2.868 0 0 1 .217-2.063 11.784 11.784 0 0 0 .583 1.746c.048.111.193.451.51.451.155 0 .422-.079.473-.606.3-3.147 1.173-4.562 1.7-4.562a.8.8 0 0 1 .348.146 5.035 5.035 0 0 0 2.837.626c.3 0 .616-.011.953-.034a6.932 6.932 0 0 0 4.205-1.423 1.828 1.828 0 0 1 1.134-.507c1.884 0 3.464 2.171 3.675 5.05.036.488.322.662.557.662a.676.676 0 0 0 .531-.307 6.641 6.641 0 0 0 .573-.871 3.413 3.413 0 0 1 .043 1.692 2.9 2.9 0 0 1 -1.027 1.862.438.438 0 0 1 -.352.073.48.48 0 0 0 -.384.04.579.579 0 0 0 -.255.387c-.063.278-.242 2.091-.242 2.17v.065a9.5 9.5 0 0 1 -1.861 2.673l-.172.2a.078.078 0 0 1 -.114-.019 6.5 6.5 0 0 0 -9.487-.039.083.083 0 0 1 -.116.019l-.115-.133a10.642 10.642 0 0 1 -1.953-2.839c-.012-.149-.042-.465-.047-.505zm.177 2.189a18.944 18.944 0 0 0 1.291 1.613l.114.132a.758.758 0 0 0 .577.277h.007a.8.8 0 0 0 .605-.306 5.806 5.806 0 0 1 8.4.033.8.8 0 0 0 .6.312.774.774 0 0 0 .586-.272l.171-.194a17.873 17.873 0 0 0 1.182-1.441c-.666 3.806-3.442 6.669-6.755 6.669-3.356 0-6.162-2.94-6.779-6.823zm3.327 6.527a6.471 6.471 0 0 0 6.924-.01 2.5 2.5 0 0 0 1.338 1.537 5.3 5.3 0 0 1 -9.575-.022 2.579 2.579 0 0 0 1.312-1.505zm-13.878 9.067a11.908 11.908 0 0 1 10.027-7.381c.06-.005.359-.018 1.829-.031a6.008 6.008 0 0 0 11 0c1.33.01 1.643.02 1.708.025a11.894 11.894 0 0 1 10.124 7.389 1.389 1.389 0 0 1 -.092 1.337 1.758 1.758 0 0 1 -1.488.705h-31.531a1.757 1.757 0 0 1 -1.488-.705 1.389 1.389 0 0 1 -.089-1.34z"
            transform="translate(-1642.805 -577.951)" />
        <path
            d="m2062.4 752.942c.083-.058.164-.119.245-.181a.835.835 0 0 0 .031-1.125 4.9 4.9 0 0 0 -7.064-.018.836.836 0 0 0 0 1.114c.073.061.147.121.222.179a2.253 2.253 0 0 0 1.388.557 2.465 2.465 0 0 0 1.4-.561 1.359 1.359 0 0 1 .509-.273 1.828 1.828 0 0 1 .618.252 2.3 2.3 0 0 0 2.651.056zm-4.179-.614a1.369 1.369 0 0 1 -1.958.028c-.053-.041-.2-.166-.09-.312a4.214 4.214 0 0 1 5.942.013c.111.146-.058.267-.119.31-.739.521-1.312.217-1.92-.1a2.132 2.132 0 0 0 -.947-.333 1.656 1.656 0 0 0 -.912.394z"
            transform="translate(-1710.47 -678.349)" />
        <path
            d="m2047.239 699.929v-1.186h1.577v1.186a.947.947 0 0 0 .946.946h3.443a.947.947 0 0 0 .947-.946v-1.648a.948.948 0 0 0 -.947-.946h-3.443a.945.945 0 0 0 -.911.705h-1.651a.946.946 0 0 0 -.911-.705h-3.443a.947.947 0 0 0 -.946.946v1.648a.947.947 0 0 0 .946.946h3.443a.947.947 0 0 0 .95-.946zm2.28-1.648a.244.244 0 0 1 .243-.243h3.443a.244.244 0 0 1 .243.243v1.648a.244.244 0 0 1 -.243.243h-3.443a.244.244 0 0 1 -.243-.243zm-6.912 1.648v-1.648a.244.244 0 0 1 .243-.243h3.443a.244.244 0 0 1 .243.243v1.648a.244.244 0 0 1 -.243.243h-3.443a.244.244 0 0 1 -.243-.243z"
            transform="translate(-1699.349 -634.838)" />
    </g>
</svg>