<svg xmlns="http://www.w3.org/2000/svg" width="21.766" height="24.472" viewBox="0 0 21.766 24.472">
    <g id="Group_136" data-name="Group 136" transform="translate(-510.506 -915.202)">
        <g id="Group_134" data-name="Group 134" transform="translate(510.506 915.202)">
            <g id="Group_131" data-name="Group 131" transform="translate(9.384 0)">
                <path id="Path_115" data-name="Path 115"
                    d="M541.835,932.307a.814.814,0,0,1-.576-1.39l9.574-9.574c1.006-1.006,1.251-2.461.534-3.178l-.923-.92a1.619,1.619,0,0,0-1.378-.4,3.14,3.14,0,0,0-1.8.932.814.814,0,1,1-1.152-1.151,4.774,4.774,0,0,1,2.752-1.4,3.207,3.207,0,0,1,2.728.862l.923.92c1.365,1.365,1.125,3.824-.533,5.482l-9.574,9.574A.813.813,0,0,1,541.835,932.307Z"
                    transform="translate(-541.021 -915.202)" fill="#b9b9b9" />
            </g>
            <g id="Group_132" data-name="Group 132" transform="translate(6.694 4.279)">
                <path id="Path_116" data-name="Path 116"
                    d="M533.088,935.2a.814.814,0,0,1-.576-1.39l4.454-4.454a.814.814,0,1,1,1.151,1.151l-4.454,4.454A.811.811,0,0,1,533.088,935.2Z"
                    transform="translate(-532.274 -929.115)" fill="#b9b9b9" />
            </g>
            <g id="Group_133" data-name="Group 133" transform="translate(0 10.927)">
                <path id="Path_117" data-name="Path 117"
                    d="M511.321,961.807a.814.814,0,0,1-.721-1.194l1.35-2.565,3.268-6.851a.814.814,0,0,1,1.477.685c-.221.491.2,1.365,1.041,2.175a3.639,3.639,0,0,0,2.559,1.288l.034-.015a.814.814,0,0,1,.709,1.465l-.071.034-.226.106a.851.851,0,0,1-.119.076l-6.178,3.217-2.738,1.481A.814.814,0,0,1,511.321,961.807Zm4.326-7.724-2.233,4.681-.014.029-.111.211.394-.213,4.547-2.368a7.62,7.62,0,0,1-1.62-1.19A6.465,6.465,0,0,1,515.646,954.083Z"
                    transform="translate(-510.506 -950.733)" fill="#b9b9b9" />
            </g>
        </g>
        <g id="Group_135" data-name="Group 135" transform="translate(514.99 938.046)">
            <path id="Path_118" data-name="Path 118"
                d="M538.593,991.113H525.9a.814.814,0,0,1,0-1.628h12.692a.814.814,0,0,1,0,1.628Z"
                transform="translate(-525.087 -989.485)" fill="#b9b9b9" />
        </g>
    </g>
</svg>
