<svg height="22.862" viewBox="0 0 23.536 22.862" width="23.536" xmlns="http://www.w3.org/2000/svg">
    <g fill="#b9b9b9">
        <path d="m838.925 927.33h-6.378a.851.851 0 0 1 0-1.7h6.378a.851.851 0 1 1 0 1.7z"
            transform="translate(-824.011 -923.633)" />
        <path
            d="m830.468 946.5h-21.835a.851.851 0 0 1 -.851-.851v-19.17a.851.851 0 0 1 .851-.851h2.367a.851.851 0 1 1 0 1.7h-1.519v17.464h20.134v-17.462h-1.605a.851.851 0 0 1 0-1.7h2.457a.851.851 0 0 1 .851.851v19.166a.851.851 0 0 1 -.85.853z"
            transform="translate(-807.782 -923.633)" />
        <path d="m861.223 951.09h-2.213a.851.851 0 0 1 0-1.7h2.213a.851.851 0 0 1 0 1.7z"
            transform="translate(-841.97 -939.758)" />
        <path
            d="m861.1 923.65a.851.851 0 0 1 -.851-.851v-2.528a.851.851 0 0 1 1.7 0v2.529a.851.851 0 0 1 -.849.85z"
            transform="translate(-843.386 -919.421)" />
        <path
            d="m823.927 923.65a.851.851 0 0 1 -.851-.851v-2.528a.851.851 0 0 1 1.7 0v2.529a.851.851 0 0 1 -.849.85z"
            transform="translate(-818.161 -919.421)" />
        <path d="m861.223 962.4h-2.213a.851.851 0 0 1 0-1.7h2.213a.851.851 0 0 1 0 1.7z"
            transform="translate(-841.97 -947.435)" />
        <path d="m861.223 973.3h-2.213a.851.851 0 0 1 0-1.7h2.213a.851.851 0 0 1 0 1.7z"
            transform="translate(-841.97 -954.83)" />
        <path d="m841.554 951.09h-2.392a.851.851 0 0 1 0-1.7h2.392a.851.851 0 0 1 0 1.7z"
            transform="translate(-828.501 -939.758)" />
        <path d="m841.554 962.4h-2.392a.851.851 0 0 1 0-1.7h2.392a.851.851 0 0 1 0 1.7z"
            transform="translate(-828.501 -947.435)" />
        <path d="m841.554 973.3h-2.392a.851.851 0 0 1 0-1.7h2.392a.851.851 0 0 1 0 1.7z"
            transform="translate(-828.501 -954.83)" />
        <path d="m822.6 951.09h-2.36a.851.851 0 0 1 0-1.7h2.36a.851.851 0 0 1 0 1.7z"
            transform="translate(-815.659 -939.758)" />
        <path d="m822.6 962.4h-2.36a.851.851 0 0 1 0-1.7h2.36a.851.851 0 0 1 0 1.7z"
            transform="translate(-815.659 -947.435)" />
        <path d="m822.6 973.3h-2.36a.851.851 0 0 1 0-1.7h2.36a.851.851 0 0 1 0 1.7z"
            transform="translate(-815.659 -954.83)" />
        <path d="m830.468 938.612h-21.835a.851.851 0 0 1 0-1.7h21.835a.851.851 0 0 1 0 1.7z"
            transform="translate(-807.782 -931.29)" />
    </g>
</svg>