<svg height="26.571" viewBox="0 0 27.711 26.571" width="27.711" xmlns="http://www.w3.org/2000/svg"><path d="m650.039 260.716a2.234 2.234 0 0 1 -1.117-.3l-6.068-3.5-6.067 3.5a2.232 2.232 0 0 1 -3.3-2.4l1.453-6.852-5.2-4.69a2.232 2.232 0 0 1 1.26-3.874l6.966-.736 2.853-6.4a2.231 2.231 0 0 1 4.075 0l2.853 6.4 6.965.736a2.232 2.232 0 0 1 1.259 3.877l-5.2 4.69 1.453 6.852a2.241 2.241 0 0 1 -2.18 2.7zm-7.185-5.46a.771.771 0 0 1 .385.1l6.452 3.721a.692.692 0 0 0 1.022-.743l-1.545-7.286a.77.77 0 0 1 .238-.731l5.532-4.987a.691.691 0 0 0 -.39-1.2l-7.407-.783a.769.769 0 0 1 -.621-.452l-3.033-6.8a.692.692 0 0 0 -1.264 0l-3.033 6.8a.769.769 0 0 1 -.621.452l-7.407.783a.691.691 0 0 0 -.39 1.2l5.532 4.987a.77.77 0 0 1 .238.731l-1.545 7.286a.692.692 0 0 0 1.023.743l6.451-3.721a.772.772 0 0 1 .383-.1z" fill="#92e0ff" transform="translate(-628.998 -234.145)"/></svg>