<svg height="53.182" viewBox="0 0 69.188 53.182" width="69.188" xmlns="http://www.w3.org/2000/svg">
    <g fill="#fff">
        <path
            d="m571.1 1350.035h-64.8a2.191 2.191 0 0 1 -2.191-2.191v-41.732a2.191 2.191 0 0 1 2.191-2.191h17.02l2.723-5.809a2.189 2.189 0 0 1 1.984-1.26h19.883a2.19 2.19 0 0 1 1.909 1.116l3.348 5.953h17.933a2.191 2.191 0 0 1 2.191 2.191v41.732a2.191 2.191 0 0 1 -2.191 2.191zm-62.616-4.382h60.424v-37.353h-17.03a2.191 2.191 0 0 1 -1.91-1.116l-3.348-5.953h-17.206l-2.723 5.809a2.189 2.189 0 0 1 -1.984 1.26h-16.22z"
            transform="translate(-504.105 -1296.854)" />
        <path
            d="m541.873 1344.141a16.436 16.436 0 1 1 16.434-16.435 16.453 16.453 0 0 1 -16.434 16.435zm0-28.491a12.054 12.054 0 1 0 12.053 12.056 12.069 12.069 0 0 0 -12.053-12.056z"
            transform="translate(-507.784 -1299.34)" />
        <path d="m26.791 27.459h16v3h-16z" />
        <path d="m0 0h16v3h-16z" transform="matrix(0 -1 1 0 33.291 36.959)" />
    </g>
</svg>