<svg height="23.169" viewBox="0 0 23.169 23.169" width="23.169" xmlns="http://www.w3.org/2000/svg"><g transform="translate(1129.777 249.679)"><path d="m-1121.78-246.973.074-.2a3.813 3.813 0 0 1 7.185.063l.07.2.195-.091a3.813 3.813 0 0 1 5.036 5.125l-.094.193.2.074a3.813 3.813 0 0 1 -.063 7.185l-.2.07.091.195a3.813 3.813 0 0 1 -5.125 5.036l-.193-.094-.074.2a3.813 3.813 0 0 1 -7.185-.063l-.07-.2-.195.091a3.813 3.813 0 0 1 -5.036-5.125l.094-.193-.2-.074a3.813 3.813 0 0 1 .063-7.185l.2-.07-.091-.195a3.813 3.813 0 0 1 5.125-5.036z" fill="#92e0ff"/><path d="m-1076.722-193.265-5.043 5.043-3.262-3.262-1.939 1.939 5.2 5.2 1.939-1.939 5.043-5.043z" fill="#fff" transform="translate(-37.318 -49.176)"/></g></svg>