<svg height="33.516" viewBox="0 0 46.21 33.516" width="46.21" xmlns="http://www.w3.org/2000/svg">
    <path
        d="m1545.456-781.318v1.678a1.018 1.018 0 0 1 -.983 1.045h-3.529a1.31 1.31 0 0 1 -1.267-1.387l.348-11.209"
        fill="#64bdfa" transform="translate(-1537.606 811.7)" />
    <path
        d="m1539.115-778.351h-3.529a1.633 1.633 0 0 1 -1.18-.507 1.8 1.8 0 0 1 -.5-1.306l.348-11.208.823.026-.348 11.209a.973.973 0 0 0 .266.707.817.817 0 0 0 .589.256h3.529a.605.605 0 0 0 .572-.633v-1.678h.824v1.678a1.428 1.428 0 0 1 -1.394 1.456z"
        fill="#0b6bc0" transform="translate(-1532.249 811.867)" />
    <path
        d="m2046.756-781.318v1.678a1.018 1.018 0 0 0 .984 1.045h3.529a1.31 1.31 0 0 0 1.267-1.387l-.348-11.209"
        fill="#64bdfa" transform="translate(-2008.489 811.7)" />
    <path
        d="m2045.911-778.351h-3.529a1.428 1.428 0 0 1 -1.4-1.456v-1.678h.824v1.678a.605.605 0 0 0 .572.633h3.529a.817.817 0 0 0 .589-.256.973.973 0 0 0 .266-.706l-.348-11.209.823-.026.348 11.209a1.8 1.8 0 0 1 -.5 1.305 1.633 1.633 0 0 1 -1.174.506z"
        fill="#0b6bc0" transform="translate(-2003.132 811.867)" />
    <path
        d="m1550.089-1072.719a3.263 3.263 0 0 0 -2.643 1.387c-2.744 3.772-5.233 9.95-5.913 11.7a1.748 1.748 0 0 1 -.587.779l-1.283.972a1.542 1.542 0 0 0 -.587 1.383l1.234 12.489a1.361 1.361 0 0 0 1.328 1.263h36.925a1.361 1.361 0 0 0 1.328-1.263l1.234-12.489a1.542 1.542 0 0 0 -.587-1.383l-1.283-.972a1.747 1.747 0 0 1 -.587-.779c-.68-1.747-3.169-7.925-5.913-11.7a3.263 3.263 0 0 0 -2.643-1.387z"
        fill="#fff" transform="translate(-1537.042 1073.131)" />
    <path
        d="m1573.208-1047.695h-36.925a1.768 1.768 0 0 1 -1.737-1.636l-1.234-12.487a1.956 1.956 0 0 1 .75-1.753l1.281-.971a1.329 1.329 0 0 0 .451-.6c.706-1.814 3.221-8.02 5.964-11.792a3.653 3.653 0 0 1 2.976-1.557h20.025a3.654 3.654 0 0 1 2.977 1.558c2.743 3.77 5.257 9.976 5.963 11.789a1.327 1.327 0 0 0 .45.6l1.285.973a1.955 1.955 0 0 1 .748 1.751l-1.234 12.489a1.767 1.767 0 0 1 -1.74 1.636zm-28.475-29.969a2.839 2.839 0 0 0 -2.309 1.217c-2.686 3.692-5.166 9.816-5.863 11.6a2.165 2.165 0 0 1 -.724.959l-1.281.97a1.129 1.129 0 0 0 -.426 1.015l1.234 12.488a.948.948 0 0 0 .918.892h36.925a.948.948 0 0 0 .917-.89l1.235-12.49a1.128 1.128 0 0 0 -.424-1.013l-1.285-.973a2.164 2.164 0 0 1 -.723-.96c-.7-1.787-3.176-7.911-5.861-11.6a2.84 2.84 0 0 0 -2.31-1.218z"
        fill="#0b6bbe" transform="translate(-1531.686 1078.488)" />
    <path
        d="m1571.659-861.33 3.615.8c1.06.234 2.18 1.606 2.822 2.517a.462.462 0 0 1 -.393.734l-7.289-.7a.954.954 0 0 1 -.833-.869 2.429 2.429 0 0 1 .591-2.08 1.6 1.6 0 0 1 1.487-.402z"
        fill="#92e0ff" transform="translate(-1565.356 876.87)" />
    <path
        d="m1572.391-862.231q-.04 0-.082 0l-7.289-.7a1.369 1.369 0 0 1 -1.2-1.235 2.826 2.826 0 0 1 .709-2.415 2 2 0 0 1 1.866-.51l3.615.8c1.155.255 2.307 1.6 3.07 2.682a.891.891 0 0 1 .04.959.838.838 0 0 1 -.729.419zm-6.47-4.094a1.133 1.133 0 0 0 -.81.32 2.024 2.024 0 0 0 -.473 1.746.544.544 0 0 0 .463.5l7.288.7a.045.045 0 0 0 .026-.034.058.058 0 0 0 -.009-.053 5.628 5.628 0 0 0 -2.574-2.352l-3.615-.8a1.371 1.371 0 0 0 -.296-.027z"
        fill="#0b6bbe" transform="translate(-1560.001 882.235)" />
    <path d="m20.402 27.048-11.951-.483" fill="#fff" />
    <path
        d="m1635.666-710.81h-.017l-11.951-.483a.412.412 0 0 1 -.395-.428.412.412 0 0 1 .428-.395l11.951.483a.412.412 0 0 1 .395.428.412.412 0 0 1 -.411.395z"
        fill="#0b6bbe" transform="translate(-1615.264 738.269)" />
    <path
        d="m1520.695-940.068v-2.465a.508.508 0 0 0 -.514-.5h-1.913a1.74 1.74 0 0 0 -1.716 1.376l-.09.445a.69.69 0 0 0 .625.819z"
        fill="#fff" transform="translate(-1516.036 952.704)" />
    <path
        d="m1515.341-945.014h-.037l-3.608-.328a1.119 1.119 0 0 1 -.8-.444 1.09 1.09 0 0 1 -.194-.866l.091-.445a2.157 2.157 0 0 1 2.119-1.706h1.913a.921.921 0 0 1 .925.914v2.465a.412.412 0 0 1 -.134.3.412.412 0 0 1 -.275.11zm-2.427-2.967a1.331 1.331 0 0 0 -1.312 1.047l-.091.445a.263.263 0 0 0 .048.21.291.291 0 0 0 .211.116l3.159.287v-2.014a.1.1 0 0 0 -.1-.09z"
        fill="#0b6bbe" transform="translate(-1510.682 958.062)" />
    <path
        d="m1661.772-1035.748-3.321-7.728a2.346 2.346 0 0 0 -2.044-1.615h-17.772a2.346 2.346 0 0 0 -2.044 1.615l-3.321 7.728c-.173.411.045.924.392.924h27.718c.348 0 .565-.513.392-.924z"
        fill="#92e0ff" transform="translate(-1624.463 1047.475)" />
    <path
        d="m1656.03-1039.769h-27.718a.813.813 0 0 1 -.677-.385 1.209 1.209 0 0 1 -.095-1.111l3.322-7.731a2.749 2.749 0 0 1 2.423-1.864h17.772a2.751 2.751 0 0 1 2.424 1.867l3.319 7.725a1.209 1.209 0 0 1 -.095 1.111.813.813 0 0 1 -.675.388zm-27.7-.824h27.676a.373.373 0 0 0 .034-.351l-3.32-7.726a1.956 1.956 0 0 0 -1.666-1.366h-17.772a1.954 1.954 0 0 0 -1.665 1.363l-3.322 7.731a.372.372 0 0 0 .037.35z"
        fill="#0b6bbe" transform="translate(-1619.112 1052.831)" />
    <path
        d="m1983.551-861.33-3.615.8c-1.06.234-2.18 1.606-2.822 2.517a.462.462 0 0 0 .393.734l7.288-.7a.954.954 0 0 0 .833-.869 2.429 2.429 0 0 0 -.591-2.08 1.6 1.6 0 0 0 -1.486-.402z"
        fill="#92e0ff" transform="translate(-1943.736 876.87)" />
    <path
        d="m1972.119-862.232a.838.838 0 0 1 -.728-.426.892.892 0 0 1 .041-.959c.763-1.083 1.915-2.427 3.07-2.682l3.615-.8a2 2 0 0 1 1.866.51 2.826 2.826 0 0 1 .709 2.415 1.369 1.369 0 0 1 -1.2 1.235l-7.288.7q-.044.007-.085.007zm6.47-4.094a1.37 1.37 0 0 0 -.295.033l-3.615.8a5.628 5.628 0 0 0 -2.574 2.352.058.058 0 0 0 -.009.053.058.058 0 0 0 .022.034l7.292-.7a.544.544 0 0 0 .463-.5 2.024 2.024 0 0 0 -.473-1.746 1.134 1.134 0 0 0 -.811-.325z"
        fill="#0b6bbe" transform="translate(-1938.392 882.235)" />
    <path
        d="m1751.031-836.113h-12.2c-.438-.024-.768.316-.634.654l.647 1.625a2.7 2.7 0 0 0 2.368 1.53h7.438a2.7 2.7 0 0 0 2.368-1.53l.647-1.625c.135-.341-.196-.678-.634-.654z"
        fill="#64bdfa" transform="translate(-1721.927 853.416)" />
    <path
        d="m1743.286-837.25h-7.469a3.105 3.105 0 0 1 -2.721-1.789l-.647-1.625a.822.822 0 0 1 .1-.8 1.08 1.08 0 0 1 .925-.421h12.182a1.078 1.078 0 0 1 .925.421.822.822 0 0 1 .1.8l-.647 1.625a3.105 3.105 0 0 1 -2.721 1.789zm-7.422-.824h7.407a2.281 2.281 0 0 0 2-1.271l.647-1.625a.233.233 0 0 0 -.229-.09h-12.246a.238.238 0 0 0 -.23.091l.649 1.625a2.281 2.281 0 0 0 2.002 1.271z"
        fill="#0b6bc0" transform="translate(-1716.564 858.774)" />
    <path d="m25.715 27.048 11.811-.483" fill="#fff" />
    <path
        d="m1865.558-710.809a.412.412 0 0 1 -.411-.4.412.412 0 0 1 .395-.428l11.811-.483a.413.413 0 0 1 .428.395.412.412 0 0 1 -.395.428l-11.811.483z"
        fill="#0b6bbe" transform="translate(-1839.843 738.269)" />
    <path
        d="m2092.77-940.068v-2.465a.508.508 0 0 1 .514-.5h1.913a1.74 1.74 0 0 1 1.716 1.376l.091.445a.69.69 0 0 1 -.625.819z"
        fill="#fff" transform="translate(-2051.218 952.704)" />
    <path
        d="m2087.412-945.014a.412.412 0 0 1 -.278-.108.412.412 0 0 1 -.134-.3v-2.465a.921.921 0 0 1 .926-.914h1.913a2.157 2.157 0 0 1 2.119 1.706l.091.445a1.09 1.09 0 0 1 -.194.866 1.12 1.12 0 0 1 -.8.444l-3.608.328zm.514-2.967a.1.1 0 0 0 -.1.09v2.014l3.159-.287a.291.291 0 0 0 .21-.116.263.263 0 0 0 .048-.21l-.091-.445a1.331 1.331 0 0 0 -1.312-1.047z"
        fill="#0b6bbe" transform="translate(-2045.86 958.062)" />
    <rect fill="#fff" height="3.323" rx="1.288" width="2.575" x="5.893" y="24.681" />
    <path
        d="m1589.578-734.361h-.824a1.289 1.289 0 0 1 -1.287-1.288v-1.571a1.289 1.289 0 0 1 1.287-1.288h.824a1.289 1.289 0 0 1 1.288 1.288v1.571a1.289 1.289 0 0 1 -1.288 1.288zm-.824-3.323a.464.464 0 0 0 -.464.464v1.571a.464.464 0 0 0 .464.464h.824a.465.465 0 0 0 .464-.464v-1.571a.465.465 0 0 0 -.464-.464z"
        fill="#0b6bbe" transform="translate(-1581.986 762.776)" />
    <rect fill="#fff" height="3.323" rx="1.288" width="2.575" x="37.742" y="24.681" />
    <path
        d="m2035.741-734.361h-.824a1.289 1.289 0 0 1 -1.287-1.288v-1.571a1.289 1.289 0 0 1 1.287-1.288h.824a1.289 1.289 0 0 1 1.288 1.288v1.571a1.289 1.289 0 0 1 -1.288 1.288zm-.824-3.323a.464.464 0 0 0 -.464.464v1.571a.464.464 0 0 0 .464.464h.824a.465.465 0 0 0 .464-.464v-1.571a.465.465 0 0 0 -.464-.464z"
        fill="#0b6bbe" transform="translate(-1996.3 762.776)" />
    <path d="m18.804 25.511h8.4v2.59h-8.4z" fill="#0c6bc2" />
    <path
        d="m1777.144-723.463h-8.4a.412.412 0 0 1 -.412-.412v-2.59a.412.412 0 0 1 .412-.412h8.4a.412.412 0 0 1 .412.412v2.59a.412.412 0 0 1 -.412.412zm-7.988-.824h7.576v-1.766h-7.576z"
        fill="#0b6bbe" transform="translate(-1749.941 751.976)" />
</svg>